<svg
        width="134"
        height="106"
        viewBox="0 0 134 106"
        fill="none"
        xmlns="http://www.w3.org/2000/svg"
>
    <circle cx="1.66667" cy="104" r="1.66667" fill="#db0f80"/>
    <circle cx="16.3333" cy="104" r="1.66667" fill="#db0f80"/>
    <circle cx="31" cy="104" r="1.66667" fill="#db0f80"/>
    <circle cx="45.6667" cy="104" r="1.66667" fill="#db0f80"/>
    <circle cx="60.3334" cy="104" r="1.66667" fill="#db0f80"/>
    <circle cx="88.6667" cy="104" r="1.66667" fill="#db0f80"/>
    <circle cx="117.667" cy="104" r="1.66667" fill="#db0f80"/>
    <circle cx="74.6667" cy="104" r="1.66667" fill="#db0f80"/>
    <circle cx="103" cy="104" r="1.66667" fill="#db0f80"/>
    <circle cx="132" cy="104" r="1.66667" fill="#db0f80"/>
    <circle cx="1.66667" cy="89.3333" r="1.66667" fill="#db0f80"/>
    <circle cx="16.3333" cy="89.3333" r="1.66667" fill="#db0f80"/>
    <circle cx="31" cy="89.3333" r="1.66667" fill="#db0f80"/>
    <circle cx="45.6667" cy="89.3333" r="1.66667" fill="#db0f80"/>
    <circle cx="60.3333" cy="89.3338" r="1.66667" fill="#db0f80"/>
    <circle cx="88.6667" cy="89.3338" r="1.66667" fill="#db0f80"/>
    <circle cx="117.667" cy="89.3338" r="1.66667" fill="#db0f80"/>
    <circle cx="74.6667" cy="89.3338" r="1.66667" fill="#db0f80"/>
    <circle cx="103" cy="89.3338" r="1.66667" fill="#db0f80"/>
    <circle cx="132" cy="89.3338" r="1.66667" fill="#db0f80"/>
    <circle cx="1.66667" cy="74.6673" r="1.66667" fill="#db0f80"/>
    <circle cx="1.66667" cy="31.0003" r="1.66667" fill="#db0f80"/>
    <circle cx="16.3333" cy="74.6668" r="1.66667" fill="#db0f80"/>
    <circle cx="16.3333" cy="31.0003" r="1.66667" fill="#db0f80"/>
    <circle cx="31" cy="74.6668" r="1.66667" fill="#db0f80"/>
    <circle cx="31" cy="31.0003" r="1.66667" fill="#db0f80"/>
    <circle cx="45.6667" cy="74.6668" r="1.66667" fill="#db0f80"/>
    <circle cx="45.6667" cy="31.0003" r="1.66667" fill="#db0f80"/>
    <circle cx="60.3333" cy="74.6668" r="1.66667" fill="#db0f80"/>
    <circle cx="60.3333" cy="30.9998" r="1.66667" fill="#db0f80"/>
    <circle cx="88.6667" cy="74.6668" r="1.66667" fill="#db0f80"/>
    <circle cx="88.6667" cy="30.9998" r="1.66667" fill="#db0f80"/>
    <circle cx="117.667" cy="74.6668" r="1.66667" fill="#db0f80"/>
    <circle cx="117.667" cy="30.9998" r="1.66667" fill="#db0f80"/>
    <circle cx="74.6667" cy="74.6668" r="1.66667" fill="#db0f80"/>
    <circle cx="74.6667" cy="30.9998" r="1.66667" fill="#db0f80"/>
    <circle cx="103" cy="74.6668" r="1.66667" fill="#db0f80"/>
    <circle cx="103" cy="30.9998" r="1.66667" fill="#db0f80"/>
    <circle cx="132" cy="74.6668" r="1.66667" fill="#db0f80"/>
    <circle cx="132" cy="30.9998" r="1.66667" fill="#db0f80"/>
    <circle cx="1.66667" cy="60.0003" r="1.66667" fill="#db0f80"/>
    <circle cx="1.66667" cy="16.3333" r="1.66667" fill="#db0f80"/>
    <circle cx="16.3333" cy="60.0003" r="1.66667" fill="#db0f80"/>
    <circle cx="16.3333" cy="16.3333" r="1.66667" fill="#db0f80"/>
    <circle cx="31" cy="60.0003" r="1.66667" fill="#db0f80"/>
    <circle cx="31" cy="16.3333" r="1.66667" fill="#db0f80"/>
    <circle cx="45.6667" cy="60.0003" r="1.66667" fill="#db0f80"/>
    <circle cx="45.6667" cy="16.3333" r="1.66667" fill="#db0f80"/>
    <circle cx="60.3333" cy="60.0003" r="1.66667" fill="#db0f80"/>
    <circle cx="60.3333" cy="16.3333" r="1.66667" fill="#db0f80"/>
    <circle cx="88.6667" cy="60.0003" r="1.66667" fill="#db0f80"/>
    <circle cx="88.6667" cy="16.3333" r="1.66667" fill="#db0f80"/>
    <circle cx="117.667" cy="60.0003" r="1.66667" fill="#db0f80"/>
    <circle cx="117.667" cy="16.3333" r="1.66667" fill="#db0f80"/>
    <circle cx="74.6667" cy="60.0003" r="1.66667" fill="#db0f80"/>
    <circle cx="74.6667" cy="16.3333" r="1.66667" fill="#db0f80"/>
    <circle cx="103" cy="60.0003" r="1.66667" fill="#db0f80"/>
    <circle cx="103" cy="16.3333" r="1.66667" fill="#db0f80"/>
    <circle cx="132" cy="60.0003" r="1.66667" fill="#db0f80"/>
    <circle cx="132" cy="16.3333" r="1.66667" fill="#db0f80"/>
    <circle cx="1.66667" cy="45.3333" r="1.66667" fill="#db0f80"/>
    <circle cx="1.66667" cy="1.66683" r="1.66667" fill="#db0f80"/>
    <circle cx="16.3333" cy="45.3333" r="1.66667" fill="#db0f80"/>
    <circle cx="16.3333" cy="1.66683" r="1.66667" fill="#db0f80"/>
    <circle cx="31" cy="45.3333" r="1.66667" fill="#db0f80"/>
    <circle cx="31" cy="1.66683" r="1.66667" fill="#db0f80"/>
    <circle cx="45.6667" cy="45.3333" r="1.66667" fill="#db0f80"/>
    <circle cx="45.6667" cy="1.66683" r="1.66667" fill="#db0f80"/>
    <circle cx="60.3333" cy="45.3338" r="1.66667" fill="#db0f80"/>
    <circle cx="60.3333" cy="1.66683" r="1.66667" fill="#db0f80"/>
    <circle cx="88.6667" cy="45.3338" r="1.66667" fill="#db0f80"/>
    <circle cx="88.6667" cy="1.66683" r="1.66667" fill="#db0f80"/>
    <circle cx="117.667" cy="45.3338" r="1.66667" fill="#db0f80"/>
    <circle cx="117.667" cy="1.66683" r="1.66667" fill="#db0f80"/>
    <circle cx="74.6667" cy="45.3338" r="1.66667" fill="#db0f80"/>
    <circle cx="74.6667" cy="1.66683" r="1.66667" fill="#db0f80"/>
    <circle cx="103" cy="45.3338" r="1.66667" fill="#db0f80"/>
    <circle cx="103" cy="1.66683" r="1.66667" fill="#db0f80"/>
    <circle cx="132" cy="45.3338" r="1.66667" fill="#db0f80"/>
    <circle cx="132" cy="1.66683" r="1.66667" fill="#db0f80"/>
</svg>
