<?xml version="1.0" encoding="utf-8"?>
<!-- Generator: Adobe Illustrator 23.0.3, SVG Export Plug-In . SVG Version: 6.00 Build 0)  -->
<svg version="1.1" id="Layer_1" xmlns="http://www.w3.org/2000/svg" xmlns:xlink="http://www.w3.org/1999/xlink" x="0px" y="0px"
	 viewBox="0 0 192 142" style="enable-background:new 0 0 192 142;" xml:space="preserve">
<g>
	<path id="path17" d="M150.3,106c0,1.1-0.8,1.8-1.7,1.8v0c-1,0-1.7-0.7-1.7-1.8c0-1.1,0.8-1.8,1.7-1.8
		C149.6,104.2,150.3,104.9,150.3,106z M151,106c0-1.5-1.1-2.3-2.4-2.3c-1.3,0-2.4,0.9-2.4,2.3c0,1.5,1.1,2.3,2.4,2.3
		C149.9,108.3,151,107.4,151,106 M148.2,106.1h0.3l0.6,1.1h0.7l-0.7-1.1c0.3,0,0.6-0.2,0.6-0.7c0-0.6-0.4-0.8-1.1-0.8h-1v2.5h0.6
		V106.1 M148.2,105.7v-0.6h0.4c0.2,0,0.5,0,0.5,0.3c0,0.3-0.1,0.3-0.4,0.3H148.2"/>
	<path id="path19" d="M134.8,93.1l3,8.3h-6.1L134.8,93.1z M131.5,89.9l-7,17.6h4.9l1.1-3.1h8.2l1,3.1h5.3l-7-17.6L131.5,89.9z
		 M117.6,107.5h5V89.9l-5,0V107.5z M83,89.9l-4.2,14l-4-14l-5.4,0l5.7,17.6h7.2l5.7-17.6H83z M103.1,93.7h2.1c3.1,0,5.1,1.4,5.1,5
		c0,3.6-2,5-5.1,5h-2.1V93.7z M98.2,89.9v17.6h8.1c4.3,0,5.7-0.7,7.2-2.3c1.1-1.1,1.8-3.6,1.8-6.3c0-2.5-0.6-4.7-1.6-6.1
		c-1.8-2.5-4.5-2.9-8.5-2.9H98.2L98.2,89.9z M51,89.9v17.7h5V94.1l3.9,0c1.3,0,2.2,0.3,2.8,1c0.8,0.8,1.1,2.2,1.1,4.7v7.8h4.9v-9.8
		c0-7-4.4-7.9-8.8-7.9H51z M90.2,89.9l0,17.6h5V89.9H90.2z"/>
	<path d="M64.4,54.8c0,0,6.4-9.5,19.2-10.4v-3.4c-14.2,1.1-26.4,13.1-26.4,13.1S64.1,74.2,83.6,76v-3.6
		C69.3,70.6,64.4,54.8,64.4,54.8z"/>
	<path d="M83.6,65.1v3.3c-10.8-1.9-13.8-13.2-13.8-13.2s5.2-5.7,13.8-6.7v3.7c0,0,0,0,0,0c-4.5-0.5-8.1,3.7-8.1,3.7
		S77.5,63.1,83.6,65.1"/>
	<path d="M83.6,34.6v6.3c0.4,0,0.8-0.1,1.3-0.1c16.1-0.5,26.6,13.2,26.6,13.2S99.4,68.7,86.8,68.7c-1.2,0-2.2-0.1-3.2-0.3v3.9
		c0.9,0.1,1.8,0.2,2.7,0.2c11.7,0,20.1-6,28.3-13c1.4,1.1,6.9,3.7,8.1,4.9c-7.8,6.5-25.9,11.8-36.2,11.8c-1,0-1.9-0.1-2.9-0.2v5.5
		H128V34.6H83.6z"/>
	<path d="M83.6,48.6v-4.2c0.4,0,0.8-0.1,1.3-0.1c11.6-0.4,19.2,10,19.2,10s-8.2,11.4-17,11.4c-1.3,0-2.4-0.2-3.4-0.5V52.3
		c4.5,0.5,5.4,2.5,8.1,7.1l6-5.1c0,0-4.4-5.8-11.8-5.8C85.1,48.5,84.3,48.5,83.6,48.6"/>
</g>
</svg>
