<?xml version="1.0" encoding="utf-8"?>
<!-- Generator: Adobe Illustrator 23.0.3, SVG Export Plug-In . SVG Version: 6.00 Build 0)  -->
<svg version="1.1" id="Layer_1" xmlns="http://www.w3.org/2000/svg" xmlns:xlink="http://www.w3.org/1999/xlink" x="0px" y="0px"
	 viewBox="0 0 192 142" style="enable-background:new 0 0 192 142;" xml:space="preserve">
<g>
	<path d="M90.2,67.2c0,1,0,2.1,0,3.2c0,0.5,0,0.6-0.5,0.8c-0.3,0.1-0.6,0.1-0.9,0.1c-1.3,0.1-2.7,0.3-4,0.1c-1.8-0.1-3.2-1-4.1-2.7
		c-0.4-0.8-0.6-1.6-0.8-2.5c-0.1-1.6-0.1-3.1-0.1-4.5c0-1.2,0.3-2.2,0.8-3.2c0.6-1.3,1.8-2.1,3.1-2.5c1-0.3,2.2-0.3,3.4-0.1
		c0.5,0.1,1,0.1,1.7,0.1c0.4,0,0.6,0.1,1,0.1c0.4,0,0.5,0.3,0.5,0.5c0,0.4,0,0.9,0,1.3s-0.1,0.4-0.4,0.4c-0.5,0-0.9-0.1-1.4-0.1
		c-0.5,0-1.2,0-1.7,0c-0.5,0-0.9,0-1.4,0c-0.9,0-1.6,0.4-2.1,1.2c-0.4,0.6-0.5,1.3-0.5,1.9c0,1.4,0,3,0,4.4c0,0.8,0.3,1.6,0.8,2.2
		c0.4,0.5,0.9,0.8,1.4,0.9c0.8,0.1,1.4-0.1,2.2,0c0.3,0,0.3-0.1,0.3-0.3c0-0.5,0-0.9,0-1.4c0-1.2,0-2.3,0-3.4c0-0.5,0.1-0.5,0.5-0.5
		c0.5,0,1,0,1.7,0c0.5,0,0.6,0.1,0.6,0.6C90.2,65,90.2,66,90.2,67.2z"/>
	<path d="M182.8,65.8c-0.1,0.1-0.1,0.4-0.3,0.5c-0.3,0.6-0.6,1.3-0.9,1.8c-0.8,1.4-1.9,2.6-3.2,3.6c-0.4,0.4-0.9,0.6-1.4,1
		c-0.3,0.3-0.5,0.4-0.8,0.5c-0.1,0-0.3,0.1-0.4,0.1c-0.8,0.4-1.7,0.8-2.5,1c-1.2,0.4-2.3,0.6-3.5,0.6c-1.2,0.1-2.5,0.3-3.6,0.1
		c-0.3,0-0.5,0-0.9,0c-0.5,0-0.6,0.3-0.6,0.6c0,0.1,0,0.3,0,0.4c0,2.5,0,5.1,0,7.5c0,0.6-0.3,1-1,1c-0.5,0-1,0-1.6-0.1
		c-1,0-1.9-0.3-3-0.6c-1.7-0.5-3-1.6-4-3.1c-1-1.6-1.4-3.2-1.4-5.2c0-7.6,0-15.4,0-23.1c0-0.1,0-0.3,0-0.4c0-0.4,0.1-0.5,0.5-0.6
		c0.1,0,0.4,0,0.5,0c1.4,0,2.7,0,4.1,0c0.5,0,1,0,1.6-0.4c0.3-0.1,0.5-0.4,0.8-0.6c1-1,1.9-2.2,3-3.2c0.1-0.1,0.3-0.4,0.4-0.6
		c-0.3-0.3-0.5-0.1-0.8-0.1c-6.1,0-12.3,0-18.4,0c-0.4,0-0.8,0-1.2,0.1c-0.9,0.3-1.7,0.8-2.1,1.7c-0.1,0.4-0.3,0.9-0.3,1.4
		c0,7.4,0,14.8,0,22c0,2.1-0.1,4.1,0.1,6.1c0.1,0.8,0.1,1.6,0.3,2.5c0.4,1.7,0.8,3.4,1.6,5.1c0.8,1.6,1.7,3,2.8,4.3
		c1.2,1.2,2.5,2.2,4,3c1.4,0.8,2.8,1.2,4.3,1.6c1.6,0.4,3.1,0.5,4.7,0.5c6.5,0,12.9,0,19.4,0c0.3,0,0.4,0,0.6,0
		c1.2-0.1,2.1-0.6,2.6-1.6c0.4-0.6,0.5-1.4,0.5-2.3c0-7.8,0-15.5,0-23.3c0-0.5,0-1,0-1.6C183,66.2,183,66,182.8,65.8z M166.1,66.8
		c0.3,0,0.6,0,0.9,0c0.6,0,1.2,0,1.8-0.1c2.2-0.5,3.5-1.8,3.9-4c0.4-1.9-0.1-3.5-1.6-4.8c-0.8-0.8-1.8-1.2-3-1.3c-0.8,0-1.6,0-2.3,0
		c-0.3,0-0.5,0.1-0.8,0.3c-0.4,0.3-0.5,0.6-0.4,1c0,1.3,0,2.5,0,3.8l0,0c0,1.3,0,2.6,0,3.9C164.8,66.2,165.4,66.8,166.1,66.8z"/>
	<path d="M109.6,65.4c0,1.7,0,3.4,0,5.1c0,0.6-0.3,0.8-0.8,0.8c-0.4,0-0.9,0-1.4,0c-0.4,0-0.5-0.1-0.5-0.5c0-0.3-0.1-0.4-0.4-0.1
		c-1,0.6-2.2,0.9-3.4,0.8c-1.2-0.1-2.1-0.5-2.6-1.6c-0.4-0.6-0.5-1.3-0.5-1.9c0-2.6,0-5.2,0-7.8c0-0.5,0.1-0.6,0.6-0.6s0.9,0,1.4,0
		c0.6,0,0.8,0.1,0.8,0.8c0,1.2,0,2.5,0,3.6s0,2.2,0,3.4c0,0.1,0,0.4,0,0.5c0.1,0.8,0.5,1.3,1.3,1.3c0.6,0,1.3-0.1,1.9-0.4
		c0.8-0.4,0.8-0.4,0.8-1.2c0-2.3,0-4.8,0-7.1c0-0.1,0-0.3,0-0.4c0-0.3,0.1-0.5,0.4-0.5c0.6,0,1.2,0,1.8,0c0.3,0,0.5,0.3,0.5,0.5
		c0,0.1,0,0.3,0,0.4C109.6,62.2,109.6,63.8,109.6,65.4z"/>
	<path d="M102.5,87c0-1.4,0-2.8,0-4.3c0-0.1,0-0.1,0-0.3c0-0.4,0.1-0.8,0.5-1c0.4-0.3,0.9-0.1,1.2,0.1c0.1,0.1,0.3,0.1,0.5,0
		c0.9-0.3,1.8-0.4,2.7-0.4c1.9,0.1,3.2,1.3,3.4,3.2c0.1,1.3,0.1,2.6,0.1,4c0,1,0,1.9,0,3c0,0.3,0,0.5-0.1,0.6
		c-0.1,0.4-0.5,0.5-1,0.5c-0.4,0-0.6-0.3-0.8-0.6c0-0.3-0.1-0.4-0.1-0.6c0-1.9,0-3.9,0-5.8c0-0.4,0-0.8-0.1-1.2
		c-0.1-0.8-0.6-1.2-1.4-1.3c-0.9-0.1-1.8,0.1-2.7,0.5c-0.1,0-0.1,0.1-0.1,0.3c0,0.1,0,0.3,0,0.4c0,2.3,0,4.7,0,7c0,0.1,0,0.3,0,0.5
		c0,0.5-0.4,0.9-0.9,0.9c-0.6,0-1-0.4-1-0.9C102.5,90.3,102.5,88.6,102.5,87L102.5,87z"/>
	<path d="M29.5,87c0-1.6,0-3.1,0-4.7c0-0.6,0.3-0.9,0.8-1c0.3-0.1,0.6,0,0.8,0.3c0.1,0.1,0.3,0.1,0.5,0.1c0.9-0.4,1.8-0.5,2.7-0.4
		c1.6,0.1,2.8,1,3.2,2.7c0.1,0.6,0.3,1.2,0.3,1.8c0,1.8,0,3.6,0,5.4c0,0.3,0,0.5-0.1,0.8c-0.1,0.4-0.4,0.6-0.8,0.6
		c-0.6,0-1.2-0.3-1.2-1c0-0.4,0-0.8,0-1.2c0-1.6,0-3.2,0-4.8c0-0.3,0-0.5,0-0.9c-0.1-1-0.6-1.7-1.7-1.8c-0.9-0.1-1.8,0.1-2.6,0.5
		c-0.1,0-0.3,0.1-0.3,0.3s0,0.3,0,0.4c0,2.3,0,4.8,0,7.1c0,0.1,0,0.4,0,0.5c-0.1,0.4-0.4,0.8-1,0.6c-0.5,0-0.8-0.4-0.9-0.8
		c0-0.1,0-0.3,0-0.4C29.5,90,29.5,88.6,29.5,87z"/>
	<path d="M92.9,90.6c0.1-0.4,0.3-0.8,0.4-1.2c0.6-2.5,1.4-4.9,2.1-7.4c0.1-0.6,0.6-0.9,1.4-0.8c0.3,0.1,0.5,0.3,0.5,0.5
		c0,0.3,0,0.5-0.1,0.8c-0.6,2.2-1.3,4.4-1.9,6.6c-0.1,0.6-0.4,1.3-0.5,1.9c-0.1,0.3-0.1,0.5-0.4,0.8c-0.4,0.6-1,0.8-1.8,0.8
		c-0.6-0.1-1.2-0.4-1.4-1.2c-0.3-0.9-0.6-1.9-0.9-2.8c-0.6-2.1-1.2-4.1-1.7-6.2c0-0.1-0.1-0.4,0-0.6c0.1-0.4,0.4-0.6,0.9-0.6
		c0.4,0,0.8,0.3,1,0.6c0.1,0.5,0.3,1,0.5,1.7C91.6,86,92.3,88.3,92.9,90.6z"/>
	<path d="M95.4,60.5c0.6-0.6,1.4-0.8,2.2-0.9c0.3,0,0.5,0,0.8,0s0.5,0.1,0.5,0.5c0,0.5,0,0.9,0,1.4c0,0.3-0.1,0.4-0.5,0.5
		c-0.8,0-1.6,0.1-2.3,0.5c-0.5,0.3-0.5,0.3-0.5,0.8c0,2.5,0,4.9,0,7.4c0,0.1,0,0.3,0,0.5c0,0.3-0.1,0.5-0.5,0.5c-0.6,0-1.2,0-1.8,0
		c-0.4,0-0.5-0.1-0.5-0.5c0-0.1,0-0.3,0-0.4c0-3.4,0-6.7,0-10.1c0-0.1,0-0.3,0-0.4c0-0.3,0.1-0.5,0.5-0.5c0.5,0,1.2,0,1.7,0
		c0.3,0,0.4,0.1,0.5,0.4C95.4,60.1,95.4,60.2,95.4,60.5z"/>
	<path d="M114.3,87.1c0,0.6,0,1.4,0.1,2.1c0.1,0.8,0.5,1.4,1.3,1.6c0.5,0.1,1,0.1,1.6,0.1c0.5,0,1-0.1,1.6-0.1c0.5,0,0.9,0.3,1,0.8
		c0.1,0.5-0.1,0.9-0.6,1c-0.4,0.1-0.8,0.1-1.2,0.1c-0.8,0-1.6,0.1-2.3,0c-1.6-0.3-2.5-1.2-3-2.6c-0.3-0.8-0.4-1.6-0.4-2.2
		c0-1,0-2.2,0.3-3.2c0.4-1.4,1-2.6,2.6-3.1c0.3-0.1,0.6-0.3,0.9-0.3c1,0,2.1,0,3.1,0.1c0.8,0.1,1,0.9,0.8,1.4
		c-0.3,0.4-0.5,0.4-0.9,0.4c-0.8,0-1.4-0.1-2.2-0.1c-0.8,0-1.6,0.3-1.9,0.9c-0.4,0.6-0.4,1.4-0.5,2.2
		C114.3,86.5,114.3,86.8,114.3,87.1z"/>
	<path d="M39.3,87c0-1.2,0.1-2.1,0.4-3.1c0.5-1.6,1.9-2.7,3.6-2.6c0.9,0,1.7,0.1,2.6,0.1c0.4,0,0.8,0.3,0.9,0.6
		c0.1,0.6-0.3,1.3-1,1.2s-1.6-0.1-2.3-0.1c-0.3,0-0.6,0-0.9,0.1c-0.5,0.1-0.8,0.5-1,0.9c-0.1,0.4-0.3,0.8-0.3,1
		c-0.1,0.6-0.1,1.4-0.1,2.1s0.1,1.3,0.3,1.9c0.1,0.8,0.5,1.3,1.3,1.6c0.5,0.1,1,0.1,1.6,0.1c0.5,0,1-0.1,1.6-0.1
		c0.6,0,0.9,0.3,1,0.8c0.1,0.5-0.1,0.9-0.6,1c-0.4,0.1-0.8,0.1-1.2,0.1c-0.8,0-1.7,0.1-2.5,0c-1.6-0.4-2.5-1.4-3-2.8
		C39.3,89,39.3,87.9,39.3,87z"/>
	<path d="M73,87c0-1.4,0-3,0-4.4c0-0.1,0-0.3,0-0.4c0-0.4,0.1-0.6,0.5-0.8c0.4-0.1,0.8-0.3,1,0.1c0.3,0.3,0.4,0.1,0.6,0.1
		c0.6-0.3,1.3-0.4,2.1-0.4c0.5,0,0.9,0.4,0.9,0.9s-0.3,0.9-0.8,1c-0.4,0-0.6,0.1-1,0.1c-0.1,0-0.1,0-0.3,0c-1,0.3-1,0.4-1,1.4
		c0,2.3,0,4.5,0,6.9c0,0.3,0,0.5-0.1,0.8c-0.3,0.4-0.8,0.5-1.2,0.4c-0.4-0.1-0.6-0.5-0.6-0.9C73,90.1,73,88.6,73,87z"/>
	<path d="M121.3,87c0-1.4,0-2.8,0-4.3c0-0.1,0-0.3,0-0.4c0-0.5,0.4-0.9,0.9-0.9c0.5,0,0.9,0.3,1,0.8c0,0.1,0,0.4,0,0.5
		c0,2.8,0,5.8,0,8.7c0,0.3,0,0.6-0.3,0.9c-0.1,0.4-0.6,0.5-1,0.4s-0.6-0.4-0.8-0.9c0-0.1,0-0.3,0-0.4C121.3,90,121.3,88.4,121.3,87z
		"/>
	<path d="M98.6,87c0-1.6,0-3.1,0-4.7c0-0.6,0.3-0.9,0.9-1c0.5,0,1,0.3,1,0.8c0,0.1,0,0.3,0,0.5c0,3,0,5.8,0,8.8c0,0.1,0,0.3,0,0.4
		c0,0.5-0.4,0.9-0.9,0.9c-0.6,0-1-0.4-1-0.9C98.6,90.1,98.6,88.6,98.6,87L98.6,87z"/>
	<path d="M121.3,79c0-0.3,0-0.5,0-0.6c0-0.5,0.4-0.9,0.9-0.9c0.5,0,0.9,0.3,1,0.8c0,0.6,0,1.2,0,1.8c0,0.4-0.4,0.6-0.9,0.8
		c-0.4,0-0.8-0.3-0.9-0.6C121.3,79.6,121.3,79.3,121.3,79L121.3,79z"/>
	<path d="M100.6,79c0,0.3,0,0.5,0,0.8c0,0.5-0.4,0.9-1,0.9c-0.5,0-1-0.4-0.9-0.9c0-0.5,0-1,0-1.4c0-0.5,0.5-0.9,0.9-0.9
		c0.5,0,0.9,0.4,1,0.9C100.6,78.5,100.6,78.7,100.6,79L100.6,79z"/>
	<path d="M177,72.9C177,72.9,177.1,73,177,72.9c-0.3,0.3-0.5,0.5-0.8,0.5C176.4,73.2,176.7,73,177,72.9z"/>
	<path d="M121.4,62.9c-0.4-1.6-1.2-2.6-2.7-3.1c-0.5-0.1-1-0.3-1.7-0.3c-1,0-2.2,0.1-3.2,0.3c-0.5,0.1-0.9,0.3-1.4,0.4
		c-0.4,0.1-0.4,0.3-0.4,0.5c0,0.1,0,0.3,0,0.4c0,4.1,0,8.3,0,12.3c0,0.5,0,1,0,1.6c0,0.4,0.1,0.5,0.6,0.5s1,0,1.4,0
		c0.5,0,0.6-0.1,0.6-0.6s0-1,0-1.4c0-0.5,0-1,0-1.6c0-0.3,0-0.4,0.4-0.3c1,0.1,1.9,0.1,3,0c1.6-0.3,2.7-1.2,3.2-2.7
		c0.3-0.6,0.4-1.4,0.4-2.1C121.7,65.3,121.7,64.1,121.4,62.9z M118.8,66.4c0,0.6,0,1.4-0.5,2.1c-0.4,0.4-0.8,0.6-1.3,0.8
		c-0.6,0-1.2,0-1.8,0c-0.5,0-0.6-0.1-0.6-0.6c0-1,0-2.1,0-3.1c0-1,0-2.1,0-3.1c0-0.4,0-0.5,0.4-0.5c0.8,0,1.4-0.1,2.2,0
		s1.4,0.9,1.6,1.8C118.8,64.5,118.9,65.5,118.8,66.4z"/>
	<path d="M18.5,86.9c-0.1-0.9-0.6-1.6-1.4-2.2c0.3-0.4,0.6-0.5,0.8-0.9c0.5-0.8,0.6-1.7,0.6-2.6c0-1.7-1-2.8-2.3-3.4
		c-0.9-0.4-1.8-0.5-2.8-0.5c-1.2,0-2.3,0-3.5,0.1c-0.6,0-0.9,0.4-0.9,1c0,0.5,0,0.9,0,1.4c0,3.9,0,7.9,0,11.8c0,0.6,0.3,1,0.9,1
		c1.2,0,2.2,0.1,3.4,0.1c0.6,0,1.3-0.1,1.9-0.3c1-0.3,2.1-0.8,2.7-1.7C18.7,89.6,18.7,88.2,18.5,86.9z M11.2,79.3
		c1.2,0,2.3-0.1,3.6,0.1c0.5,0.1,0.9,0.3,1.3,0.5c0.4,0.4,0.5,0.8,0.5,1.3c0,0.6,0,1.2-0.4,1.7s-0.9,0.6-1.4,0.8c-1.2,0-2.3,0-3.5,0
		c-0.3,0-0.3-0.1-0.3-0.3c0-0.6,0-1.3,0-1.9c0-0.6,0-1.3,0-1.9C10.9,79.4,10.9,79.3,11.2,79.3z M16.6,89c-0.1,0.8-0.5,1.4-1.3,1.7
		c-0.4,0.1-0.8,0.3-1.3,0.3C13.7,91,13.1,91,12.8,91c-0.4,0-0.8,0-1.2-0.1c-0.3,0-0.5,0-0.5-0.1c-0.1-0.1,0-0.4,0-0.6
		c0-0.6,0-1.3,0-1.9c0-0.8,0-1.4,0-2.2c0-0.3,0.1-0.4,0.3-0.4c1.2,0,2.3,0,3.5,0.1c1,0.1,1.9,0.8,1.9,2.1
		C16.6,88.2,16.6,88.6,16.6,89z"/>
	<path d="M132.5,62.3c-0.5-1.2-1.3-1.9-2.5-2.5c-1.2-0.4-2.3-0.5-3.5-0.3c-1,0.3-1.8,0.8-2.5,1.6c-0.6,0.9-1,1.9-1,3
		c0,0.8,0,1.6,0,2.3c0,0.6,0.1,1.3,0.4,1.9c0.5,1.4,1.6,2.5,3,2.8c0.9,0.3,1.8,0.3,2.7,0.1c1.7-0.3,2.8-1.3,3.5-3
		c0.4-0.9,0.4-1.9,0.4-3C133.1,64.4,132.9,63.3,132.5,62.3z M130.2,66.6c0,0.5-0.1,1-0.4,1.6c-0.4,0.6-0.9,1-1.7,1
		c-0.6,0-1.3,0-1.7-0.5c-0.3-0.3-0.4-0.8-0.5-1.2c-0.3-1.3-0.3-2.6,0-3.9l0,0c0.1-0.6,0.5-1.3,1.2-1.6c1-0.4,2.3-0.1,2.8,1
		c0.1,0.4,0.3,0.9,0.3,1.4C130.3,65.1,130.3,65.8,130.2,66.6z"/>
	<path d="M71.7,80.5c-0.4-1.4-1.3-2.2-2.6-2.7c-0.9-0.3-1.7-0.4-2.6-0.4c-1,0-1.9,0-3,0.1c-0.5,0-0.9,0.4-0.9,0.9c0,0.1,0,0.3,0,0.5
		c0,2.1,0,4.1,0,6.3c0,1,0,2.1,0,3.1c0,1.2,0,2.5,0,3.6c0,0.5,0.3,0.8,0.8,0.9c0.6,0.1,1-0.1,1.2-0.6c0-0.1,0-0.4,0-0.5
		c0-1.4,0-3,0-4.4c0-0.4,0-0.5,0.4-0.4c1.3,0.1,2.5,0,3.8-0.3c1-0.3,1.9-0.9,2.5-1.8c0.4-0.5,0.5-1.2,0.5-1.8
		C71.9,82,71.9,81.3,71.7,80.5z M69.7,83.3c-0.1,0.5-0.5,0.9-0.9,1.2c-0.5,0.3-1.2,0.4-1.7,0.4c-0.6,0-1.4,0-2.1,0
		c-0.3,0-0.3-0.1-0.3-0.4c0-0.8,0-1.7,0-2.5s0-1.7,0-2.5c0-0.3,0-0.3,0.3-0.3c1,0,2.1-0.1,3.1,0.1c0.3,0,0.5,0.1,0.9,0.3
		c0.5,0.3,0.9,0.6,0.9,1.3C70,81.7,70,82.5,69.7,83.3z"/>
	<path d="M27.8,88.3L27.8,88.3c0-1.3,0-2.6-0.1-4c-0.1-1.8-1.4-3-3.2-3c-0.8,0-1.4,0-2.2,0c-0.5,0-1,0.1-1.4,0.3
		c-0.5,0.1-0.6,0.5-0.5,1c0.1,0.4,0.5,0.8,0.9,0.6c0.4,0,0.8-0.1,1.3-0.1c0.8-0.1,1.6-0.1,2.5,0c0.4,0.1,0.6,0.3,0.8,0.6
		c0.1,0.4,0.1,0.8,0.1,1.2c0,0.3-0.1,0.4-0.3,0.4c-0.3,0-0.5,0-0.6,0c-0.9,0.1-1.7,0.1-2.6,0.3c-1.2,0.4-2.1,0.9-2.5,2.2
		c-0.3,0.9-0.3,1.8,0.1,2.7c0.4,1.2,1.2,1.8,2.3,2.1c1.2,0.3,2.2,0.1,3.2-0.4c0.3-0.1,0.5-0.1,0.8,0.1c0.4,0.4,0.9,0.3,1.3,0
		c0.3-0.3,0.4-0.5,0.4-0.9C27.8,90.5,27.8,89.4,27.8,88.3z M25.3,90.4c-0.6,0.3-1.3,0.5-1.9,0.5c-0.4,0-0.6,0-1-0.1
		c-0.5-0.1-0.6-0.5-0.8-1c0-0.4,0-0.8,0-1.3c0-0.4,0.3-0.6,0.5-0.8c0.4-0.1,0.9-0.3,1.3-0.4c0.8,0,1.4,0,2.2,0c0,0.9,0,1.7,0,2.5
		C25.8,90.1,25.7,90.3,25.3,90.4z"/>
	<path d="M132.9,91c0-1.9,0-3.8,0-5.7c0-0.5,0-1-0.1-1.6c-0.4-1.4-1.4-2.3-2.8-2.5c-1.2-0.1-2.3,0-3.5,0.1c-0.1,0-0.3,0.1-0.4,0.1
		c-0.4,0.3-0.5,0.5-0.5,1c0,0.4,0.3,0.6,0.6,0.6c0.5,0,0.9,0,1.4,0c0.6,0,1.4-0.1,2.1,0c0.8,0.1,1,0.1,1.3,1.2c0,0.3,0,0.5,0,0.9
		c0,0.3-0.1,0.3-0.3,0.3c-0.6,0-1.3,0-1.8,0.1c-0.8,0-1.4,0.1-2.2,0.5c-0.9,0.4-1.6,1-1.7,2.1c-0.1,0.6-0.1,1.3,0,2.1
		c0.3,1.6,1.4,2.7,3.2,2.7c1,0,1.9-0.3,3-0.6c0,0.1,0.1,0.1,0.1,0.1c0.3,0.4,0.6,0.5,1.2,0.4c0.4-0.1,0.6-0.4,0.6-0.9
		C132.9,91.6,132.9,91.3,132.9,91z M131,88.8c0,0.4,0,0.8,0,1.2c0,0.3-0.1,0.3-0.3,0.4c-0.6,0.4-1.4,0.5-2.2,0.6
		c-0.3,0-0.6,0-0.9-0.1s-0.5-0.4-0.6-0.6c-0.1-0.5-0.3-1-0.1-1.6c0.1-0.5,0.4-0.9,1-1c0.5-0.1,1-0.1,1.6-0.3c0.4,0,0.9,0,1.4,0
		c0.3,0,0.3,0.1,0.3,0.4C131,88.1,131,88.4,131,88.8z"/>
	<path d="M87.5,84.6c-0.3-0.9-0.6-1.7-1.3-2.3c-1.4-1.2-3-1.2-4.7-0.6c-1.4,0.4-2.2,1.4-2.6,2.8c-0.3,0.9-0.3,1.8-0.3,2.6
		c0,0.4,0,0.8,0,1c0,0.8,0.1,1.6,0.5,2.3c0.4,0.9,0.9,1.6,1.8,1.9c0.9,0.4,1.8,0.5,2.7,0.4c1.7-0.1,3-1,3.5-2.6
		c0.3-0.5,0.3-1.2,0.4-1.8C87.7,87.1,87.7,85.9,87.5,84.6z M85.5,89.2c-0.1,0.8-0.6,1.4-1.4,1.7c-0.5,0.1-1.2,0.1-1.7,0
		c-0.4-0.1-0.8-0.3-1-0.6c-0.3-0.4-0.5-0.8-0.5-1.3c-0.1-1.2-0.1-2.5,0-3.6c0-0.4,0.1-0.8,0.4-1c0.3-0.5,0.6-0.8,1.2-0.9
		s1-0.1,1.6,0c0.8,0.1,1.3,0.6,1.6,1.4c0.1,0.4,0.3,0.9,0.3,1.4c0,0.5,0,1,0,1.4c0,0.4,0,0.9-0.1,1.3C85.7,89,85.5,89.1,85.5,89.2z"
		/>
	<path d="M56.5,84.6c-0.3-1.3-1-2.5-2.5-3c-0.8-0.3-1.4-0.3-2.2-0.3c-1.8,0-3.2,1-3.8,2.8c-0.3,1-0.4,1.9-0.3,3c0,0.8,0,1.7,0.3,2.6
		c0.4,1.3,1,2.3,2.5,2.8c0.6,0.3,1.3,0.3,2.1,0.3c1.9,0,3.4-1.2,3.9-2.8c0.1-0.5,0.3-0.9,0.3-1.4C56.9,87.1,56.9,85.9,56.5,84.6z
		 M54.7,88.4c-0.1,0.4-0.1,0.9-0.3,1.3c-0.3,0.9-1,1.2-1.9,1.3c-0.5,0-1,0-1.6-0.3c-0.4-0.1-0.6-0.4-0.8-0.6
		c-0.4-0.6-0.5-1.4-0.5-2.1c0-0.3,0-0.6,0-0.9c0-0.6,0-1.4,0.3-2.2c0.1-0.6,0.5-1.2,1.2-1.4c0.8-0.3,1.6-0.3,2.3,0
		c0.4,0.1,0.8,0.4,0.9,0.8c0.1,0.4,0.4,0.8,0.4,1.2c0.1,0.8,0,1.6,0.1,2.2C54.8,87.8,54.8,88.2,54.7,88.4z"/>
</g>
</svg>
