<?xml version="1.0" encoding="utf-8"?>
<!-- Generator: Adobe Illustrator 23.0.3, SVG Export Plug-In . SVG Version: 6.00 Build 0)  -->
<svg version="1.1"
     id="Layer_1" xmlns:cc="http://creativecommons.org/ns#" xmlns:dc="http://purl.org/dc/elements/1.1/"
     xmlns:inkscape="http://www.inkscape.org/namespaces/inkscape"
     xmlns:rdf="http://www.w3.org/1999/02/22-rdf-syntax-ns#"
     xmlns:sodipodi="http://sodipodi.sourceforge.net/DTD/sodipodi-0.dtd" xmlns:svg="http://www.w3.org/2000/svg"
     xmlns="http://www.w3.org/2000/svg" xmlns:xlink="http://www.w3.org/1999/xlink" x="0px" y="0px" viewBox="0 0 192 142"
     style="enable-background:new 0 0 192 142;" xml:space="preserve">
<style type="text/css">
	.st0{clip-path:url(#SVGID_2_);}
	.st1{clip-path:url(#SVGID_4_);}
	.st2{clip-path:url(#SVGID_9_);}
	.st3{clip-path:url(#SVGID_14_);}
	.st4{clip-path:url(#SVGID_15_);}
	.st5{clip-path:url(#SVGID_21_);}
	.st6{clip-path:url(#SVGID_22_);}
	.st7{clip-path:url(#SVGID_23_);}
	.st8{clip-path:url(#SVGID_30_);}
	.st9{clip-path:url(#SVGID_31_);}
	.st10{clip-path:url(#SVGID_32_);}
	.st11{clip-path:url(#SVGID_33_);}
	.st12{clip-path:url(#SVGID_41_);}
	.st13{clip-path:url(#SVGID_42_);}
	.st14{clip-path:url(#SVGID_43_);}
	.st15{clip-path:url(#SVGID_44_);}
	.st16{clip-path:url(#SVGID_45_);}
	.st17{clip-path:url(#SVGID_54_);}
	.st18{clip-path:url(#SVGID_55_);}
	.st19{clip-path:url(#SVGID_56_);}
	.st20{clip-path:url(#SVGID_57_);}
	.st21{clip-path:url(#SVGID_58_);}
	.st22{clip-path:url(#SVGID_59_);}
	.st23{clip-path:url(#SVGID_69_);}
	.st24{clip-path:url(#SVGID_70_);}
	.st25{clip-path:url(#SVGID_71_);}
	.st26{clip-path:url(#SVGID_72_);}
	.st27{clip-path:url(#SVGID_73_);}
	.st28{clip-path:url(#SVGID_74_);}
	.st29{clip-path:url(#SVGID_75_);}
	.st30{opacity:0.3;fill:#AAAAAA;enable-background:new    ;}
</style>
    <title id="title4148">Despegar.com logo</title>
    <sodipodi:namedview bordercolor="#666666" borderopacity="1" gridtolerance="10" guidetolerance="10" id="namedview111"
                        inkscape:current-layer="Layer_1" inkscape:cx="61.112167" inkscape:cy="7.1392046"
                        inkscape:pageopacity="0" inkscape:pageshadow="2" inkscape:showpageshadow="false"
                        inkscape:window-height="705" inkscape:window-maximized="1" inkscape:window-width="1366"
                        inkscape:window-x="-8" inkscape:window-y="-8" inkscape:zoom="1" objecttolerance="10"
                        pagecolor="#ffffff" showgrid="false">
	</sodipodi:namedview>
    <g id="g3" transform="translate(-224.3553,-1.40688)">
	<g id="g5">
		<g>
			<defs>
				<rect id="SVGID_1_" x="-84.4" y="-119.5" width="800" height="500"/>
			</defs>
            <clipPath id="SVGID_2_">
				<use xlink:href="#SVGID_1_" style="overflow:visible;"/>
			</clipPath>
            <g id="g13" class="st0">
				<g id="g15">
					<g>
						<defs>
							<rect id="SVGID_3_" x="-84.4" y="-119.5" width="800" height="500"/>
						</defs>
                        <clipPath id="SVGID_4_">
							<use xlink:href="#SVGID_3_" style="overflow:visible;"/>
						</clipPath>
                        <g id="g23" class="st1">
							<g id="g37">
								<g>
									<defs>
										<rect id="SVGID_5_" x="-84.4" y="-119.5" width="800" height="500"/>
									</defs>
                                    <clipPath id="SVGID_6_">
										<use xlink:href="#SVGID_5_" style="overflow:visible;"/>
									</clipPath>
								</g>
                                <g>
									<defs>
										<rect id="SVGID_7_" x="-84.4" y="-119.5" width="800" height="500"/>
									</defs>
                                    <defs>
										<rect id="SVGID_8_" x="-84.4" y="-119.5" width="800" height="500"/>
									</defs>
                                    <clipPath id="SVGID_9_">
										<use xlink:href="#SVGID_7_" style="overflow:visible;"/>
									</clipPath>
                                    <clipPath id="SVGID_10_" class="st2">
										<use xlink:href="#SVGID_8_" style="overflow:visible;"/>
									</clipPath>
								</g>
                                <g>
									<defs>
										<rect id="SVGID_11_" x="-84.4" y="-119.5" width="800" height="500"/>
									</defs>
                                    <defs>
										<rect id="SVGID_12_" x="-84.4" y="-119.5" width="800" height="500"/>
									</defs>
                                    <defs>
										<rect id="SVGID_13_" x="-84.4" y="-119.5" width="800" height="500"/>
									</defs>
                                    <clipPath id="SVGID_14_">
										<use xlink:href="#SVGID_11_" style="overflow:visible;"/>
									</clipPath>
                                    <clipPath id="SVGID_15_" class="st3">
										<use xlink:href="#SVGID_12_" style="overflow:visible;"/>
									</clipPath>
                                    <clipPath id="SVGID_16_" class="st4">
										<use xlink:href="#SVGID_13_" style="overflow:visible;"/>
									</clipPath>
								</g>
                                <g>
									<defs>
										<rect id="SVGID_17_" x="-84.4" y="-119.5" width="800" height="500"/>
									</defs>
                                    <defs>
										<rect id="SVGID_18_" x="-84.4" y="-119.5" width="800" height="500"/>
									</defs>
                                    <defs>
										<rect id="SVGID_19_" x="-84.4" y="-119.5" width="800" height="500"/>
									</defs>
                                    <defs>
										<rect id="SVGID_20_" x="-84.4" y="-119.5" width="800" height="500"/>
									</defs>
                                    <clipPath id="SVGID_21_">
										<use xlink:href="#SVGID_17_" style="overflow:visible;"/>
									</clipPath>
                                    <clipPath id="SVGID_22_" class="st5">
										<use xlink:href="#SVGID_18_" style="overflow:visible;"/>
									</clipPath>
                                    <clipPath id="SVGID_23_" class="st6">
										<use xlink:href="#SVGID_19_" style="overflow:visible;"/>
									</clipPath>
                                    <clipPath id="SVGID_24_" class="st7">
										<use xlink:href="#SVGID_20_" style="overflow:visible;"/>
									</clipPath>
								</g>
                                <g>
									<defs>
										<rect id="SVGID_25_" x="-84.4" y="-119.5" width="800" height="500"/>
									</defs>
                                    <defs>
										<rect id="SVGID_26_" x="-84.4" y="-119.5" width="800" height="500"/>
									</defs>
                                    <defs>
										<rect id="SVGID_27_" x="-84.4" y="-119.5" width="800" height="500"/>
									</defs>
                                    <defs>
										<rect id="SVGID_28_" x="-84.4" y="-119.5" width="800" height="500"/>
									</defs>
                                    <defs>
										<rect id="SVGID_29_" x="-84.4" y="-119.5" width="800" height="500"/>
									</defs>
                                    <clipPath id="SVGID_30_">
										<use xlink:href="#SVGID_25_" style="overflow:visible;"/>
									</clipPath>
                                    <clipPath id="SVGID_31_" class="st8">
										<use xlink:href="#SVGID_26_" style="overflow:visible;"/>
									</clipPath>
                                    <clipPath id="SVGID_32_" class="st9">
										<use xlink:href="#SVGID_27_" style="overflow:visible;"/>
									</clipPath>
                                    <clipPath id="SVGID_33_" class="st10">
										<use xlink:href="#SVGID_28_" style="overflow:visible;"/>
									</clipPath>
                                    <clipPath id="SVGID_34_" class="st11">
										<use xlink:href="#SVGID_29_" style="overflow:visible;"/>
									</clipPath>
								</g>
                                <g>
									<defs>
										<rect id="SVGID_35_" x="-84.4" y="-119.5" width="800" height="500"/>
									</defs>
                                    <defs>
										<rect id="SVGID_36_" x="-84.4" y="-119.5" width="800" height="500"/>
									</defs>
                                    <defs>
										<rect id="SVGID_37_" x="-84.4" y="-119.5" width="800" height="500"/>
									</defs>
                                    <defs>
										<rect id="SVGID_38_" x="-84.4" y="-119.5" width="800" height="500"/>
									</defs>
                                    <defs>
										<rect id="SVGID_39_" x="-84.4" y="-119.5" width="800" height="500"/>
									</defs>
                                    <defs>
										<rect id="SVGID_40_" x="-84.4" y="-119.5" width="800" height="500"/>
									</defs>
                                    <clipPath id="SVGID_41_">
										<use xlink:href="#SVGID_35_" style="overflow:visible;"/>
									</clipPath>
                                    <clipPath id="SVGID_42_" class="st12">
										<use xlink:href="#SVGID_36_" style="overflow:visible;"/>
									</clipPath>
                                    <clipPath id="SVGID_43_" class="st13">
										<use xlink:href="#SVGID_37_" style="overflow:visible;"/>
									</clipPath>
                                    <clipPath id="SVGID_44_" class="st14">
										<use xlink:href="#SVGID_38_" style="overflow:visible;"/>
									</clipPath>
                                    <clipPath id="SVGID_45_" class="st15">
										<use xlink:href="#SVGID_39_" style="overflow:visible;"/>
									</clipPath>
                                    <clipPath id="SVGID_46_" class="st16">
										<use xlink:href="#SVGID_40_" style="overflow:visible;"/>
									</clipPath>
								</g>
                                <g>
									<defs>
										<rect id="SVGID_47_" x="-84.4" y="-119.5" width="800" height="500"/>
									</defs>
                                    <defs>
										<rect id="SVGID_48_" x="-84.4" y="-119.5" width="800" height="500"/>
									</defs>
                                    <defs>
										<rect id="SVGID_49_" x="-84.4" y="-119.5" width="800" height="500"/>
									</defs>
                                    <defs>
										<rect id="SVGID_50_" x="-84.4" y="-119.5" width="800" height="500"/>
									</defs>
                                    <defs>
										<rect id="SVGID_51_" x="-84.4" y="-119.5" width="800" height="500"/>
									</defs>
                                    <defs>
										<rect id="SVGID_52_" x="-84.4" y="-119.5" width="800" height="500"/>
									</defs>
                                    <defs>
										<rect id="SVGID_53_" x="-84.4" y="-119.5" width="800" height="500"/>
									</defs>
                                    <clipPath id="SVGID_54_">
										<use xlink:href="#SVGID_47_" style="overflow:visible;"/>
									</clipPath>
                                    <clipPath id="SVGID_55_" class="st17">
										<use xlink:href="#SVGID_48_" style="overflow:visible;"/>
									</clipPath>
                                    <clipPath id="SVGID_56_" class="st18">
										<use xlink:href="#SVGID_49_" style="overflow:visible;"/>
									</clipPath>
                                    <clipPath id="SVGID_57_" class="st19">
										<use xlink:href="#SVGID_50_" style="overflow:visible;"/>
									</clipPath>
                                    <clipPath id="SVGID_58_" class="st20">
										<use xlink:href="#SVGID_51_" style="overflow:visible;"/>
									</clipPath>
                                    <clipPath id="SVGID_59_" class="st21">
										<use xlink:href="#SVGID_52_" style="overflow:visible;"/>
									</clipPath>
                                    <clipPath id="SVGID_60_" class="st22">
										<use xlink:href="#SVGID_53_" style="overflow:visible;"/>
									</clipPath>
								</g>
                                <g>
									<defs>
										<rect id="SVGID_61_" x="-84.4" y="-119.5" width="800" height="500"/>
									</defs>
                                    <defs>
										<rect id="SVGID_62_" x="-84.4" y="-119.5" width="800" height="500"/>
									</defs>
                                    <defs>
										<rect id="SVGID_63_" x="-84.4" y="-119.5" width="800" height="500"/>
									</defs>
                                    <defs>
										<rect id="SVGID_64_" x="-84.4" y="-119.5" width="800" height="500"/>
									</defs>
                                    <defs>
										<rect id="SVGID_65_" x="-84.4" y="-119.5" width="800" height="500"/>
									</defs>
                                    <defs>
										<rect id="SVGID_66_" x="-84.4" y="-119.5" width="800" height="500"/>
									</defs>
                                    <defs>
										<rect id="SVGID_67_" x="-84.4" y="-119.5" width="800" height="500"/>
									</defs>
                                    <defs>
										<rect id="SVGID_68_" x="-84.4" y="-119.5" width="800" height="500"/>
									</defs>
                                    <clipPath id="SVGID_69_">
										<use xlink:href="#SVGID_61_" style="overflow:visible;"/>
									</clipPath>
                                    <clipPath id="SVGID_70_" class="st23">
										<use xlink:href="#SVGID_62_" style="overflow:visible;"/>
									</clipPath>
                                    <clipPath id="SVGID_71_" class="st24">
										<use xlink:href="#SVGID_63_" style="overflow:visible;"/>
									</clipPath>
                                    <clipPath id="SVGID_72_" class="st25">
										<use xlink:href="#SVGID_64_" style="overflow:visible;"/>
									</clipPath>
                                    <clipPath id="SVGID_73_" class="st26">
										<use xlink:href="#SVGID_65_" style="overflow:visible;"/>
									</clipPath>
                                    <clipPath id="SVGID_74_" class="st27">
										<use xlink:href="#SVGID_66_" style="overflow:visible;"/>
									</clipPath>
                                    <clipPath id="SVGID_75_" class="st28">
										<use xlink:href="#SVGID_67_" style="overflow:visible;"/>
									</clipPath>
                                    <clipPath id="SVGID_76_" class="st29">
										<use xlink:href="#SVGID_68_" style="overflow:visible;"/>
									</clipPath>
								</g>
							</g>
						</g>
					</g>
				</g>
			</g>
		</g>
	</g>
</g>
    <g>
	<path id="path35" inkscape:connector-curvature="0" class="st30" d="M26.6,89.9l18.3,0c10.4,0,18.9-8.5,18.9-18.9
		s-8.5-18.9-18.9-18.9l-18.3,0V89.9z"/>
        <path id="path93" inkscape:connector-curvature="0" d="M26.7,52.1C26.7,52.1,26.7,52.1,26.7,52.1l-0.1,37.8c0,0,0.1,0,0.1,0
		c10.4,0,18.9-8.5,18.9-18.9S37.2,52.1,26.7,52.1"/>
        <g>
		<path id="path95" inkscape:connector-curvature="0" d="M83.8,63.7h-2.2c-0.1,0-0.1,0-0.1,0.1v4.1c-0.7-0.9-1.9-1.4-3.2-1.4
			c-3.3,0-5.6,2.9-5.6,5.5c0,2.7,2,5.5,5.5,5.5c1.3,0,2.6-0.5,3.3-1.4v1c0,0.1,0,0.1,0.1,0.1h2.2c0.1,0,0.1,0,0.1-0.1V63.8
			C83.9,63.8,83.8,63.7,83.8,63.7 M78.4,75.3c-1.8,0-3.2-1.5-3.2-3.2c0-1.8,1.4-3.2,3.2-3.2c1.7,0,3.1,1.5,3.1,3.2
			S80.1,75.3,78.4,75.3"/>
            <path id="path97" inkscape:connector-curvature="0" d="M91.4,66.5c-3.8,0-5.8,2.9-5.8,5.5c0,2.7,2,5.5,5.8,5.5
			c1.9,0,3.6-0.9,4.9-2.6c0,0,0-0.1,0-0.1c0,0,0-0.1-0.1-0.1l-1.9-1c0,0-0.1,0-0.1,0c-0.8,1-1.8,1.6-2.9,1.6c-1.6,0-2.9-1.1-3-2.5
			h8.5c0.1,0,0.1,0,0.1-0.1v-0.4C96.9,68.4,93.7,66.5,91.4,66.5 M91.1,68.7c1.4,0,2.4,0.8,2.9,2.2h-5.7
			C88.7,69.5,89.8,68.7,91.1,68.7"/>
            <path id="path99" inkscape:connector-curvature="0" d="M104.3,71.2l-2.2-0.4c-0.9-0.2-1.3-0.5-1.3-1c0-0.8,0.9-1.2,1.8-1.2
			c0.9,0,1.8,0.4,2.7,1.1c0,0,0,0,0.1,0c0,0,0.1,0,0.1,0l1.3-1.6c0,0,0-0.1,0-0.1c0,0,0-0.1,0-0.1c-1.4-1-2.7-1.4-4.2-1.4
			c-2.7,0-4.2,1.7-4.2,3.5c0,1.7,1.1,2.5,3.8,3l1.3,0.2c0.8,0.2,1.3,0.5,1.3,1.1c0,0.5-0.7,1.2-1.9,1.2c-1.1,0-2.3-0.6-3.2-1.5
			c0,0,0,0-0.1,0c0,0-0.1,0-0.1,0l-1.5,1.5c0,0,0,0,0,0.1c0,0,0,0.1,0,0.1c1.5,1.2,3,1.8,4.7,1.8c1.4,0,2.6-0.4,3.4-1.2
			c0.7-0.6,1-1.5,1-2.4C107.1,72.5,106.2,71.5,104.3,71.2"/>
            <path id="path101" inkscape:connector-curvature="0" d="M114.5,66.5c-1.3,0-2.5,0.5-3.3,1.4v-1c0-0.1,0-0.1-0.1-0.1h-2.2
			c-0.1,0-0.1,0-0.1,0.1v13.9c0,0.1,0,0.1,0.1,0.1h2.2c0.1,0,0.1,0,0.1-0.1v-4.6c0.7,0.9,1.9,1.4,3.2,1.4c3.3,0,5.6-2.9,5.6-5.5
			C120,69.3,117.9,66.5,114.5,66.5 M114.2,68.8c1.8,0,3.2,1.5,3.2,3.2c0,1.8-1.4,3.2-3.2,3.2c-1.7,0-3.1-1.5-3.1-3.2
			C111.1,70.3,112.5,68.8,114.2,68.8"/>
            <path id="path103" inkscape:connector-curvature="0" d="M127,66.5c-3.8,0-5.8,2.9-5.8,5.5c0,2.7,2,5.5,5.8,5.5
			c1.9,0,3.6-0.9,4.9-2.6c0,0,0-0.1,0-0.1c0,0,0-0.1-0.1-0.1l-1.9-1c0,0-0.1,0-0.1,0c-0.8,1-1.8,1.6-2.9,1.6c-1.6,0-2.9-1.1-3-2.5
			h8.5c0.1,0,0.1,0,0.1-0.1v-0.4C132.5,68.4,129.3,66.5,127,66.5 M126.7,68.7c1.4,0,2.4,0.8,2.9,2.2h-5.7
			C124.3,69.5,125.3,68.7,126.7,68.7"/>
            <path id="path105" inkscape:connector-curvature="0" d="M144.6,66.8h-2.1c-0.1,0-0.1,0-0.1,0.1v1c-0.8-0.9-1.8-1.4-3.2-1.4
			c-2.7,0-5.4,1.9-5.4,5.4c0,3.5,2.6,5.4,5.1,5.4c1.4,0,2.4-0.4,3.4-1.4v0.4c0,2-1.7,2.9-3.3,2.9c-1,0-1.9-0.6-2.3-1.2
			c0,0,0,0-0.1,0c0,0-0.1,0-0.1,0l-1.8,1.3c0,0,0,0,0,0.1c0,0,0,0.1,0,0.1c1.1,1.3,2.7,2.1,4.4,2.1c1.5,0,2.8-0.5,3.8-1.4
			c1.1-1,1.7-2.4,1.7-4v-9.2C144.7,66.9,144.6,66.8,144.6,66.8 M139.4,75c-1.7,0-3-1.3-3-3.1c0-1.7,1.3-3.1,3-3.1c1.6,0,3,1.4,3,3.1
			C142.4,73.7,141.1,75,139.4,75"/>
            <path id="path107" inkscape:connector-curvature="0" d="M157.2,66.8H155c-0.1,0-0.1,0-0.1,0.1v1c-0.7-0.9-1.9-1.4-3.2-1.4
			c-3.3,0-5.6,2.9-5.6,5.5c0,2.7,2,5.5,5.5,5.5c1.3,0,2.6-0.5,3.3-1.4v1c0,0.1,0,0.1,0.1,0.1h2.2c0.1,0,0.1,0,0.1-0.1V66.9
			C157.3,66.9,157.3,66.8,157.2,66.8 M151.9,75.3c-1.8,0-3.2-1.5-3.2-3.2c0-1.8,1.4-3.2,3.2-3.2c1.7,0,3.1,1.5,3.1,3.2
			C155,73.8,153.6,75.3,151.9,75.3"/>
            <path id="path109" inkscape:connector-curvature="0" d="M165.3,66.9c-0.3-0.2-0.8-0.3-1.3-0.3c-0.8,0-1.5,0.4-2,1.2v-0.8
			c0-0.1,0-0.1-0.1-0.1h-2.1c-0.1,0-0.1,0-0.1,0.1v10.3c0,0.1,0,0.1,0.1,0.1h2.2c0.1,0,0.1,0,0.1-0.1v-6.8c0-0.9,0.7-1.5,1.4-1.5
			c0.2,0,0.6,0.1,0.8,0.3c0,0,0.1,0,0.1,0c0,0,0.1,0,0.1-0.1l0.8-2.2C165.4,66.9,165.4,66.9,165.3,66.9"/>
	</g>
</g>
</svg>
