<?xml version="1.0" encoding="utf-8"?>
<!-- Generator: Adobe Illustrator 23.0.3, SVG Export Plug-In . SVG Version: 6.00 Build 0)  -->
<svg version="1.1" id="Capa_1" xmlns="http://www.w3.org/2000/svg" xmlns:xlink="http://www.w3.org/1999/xlink" x="0px" y="0px"
	 viewBox="0 0 192 142" style="enable-background:new 0 0 192 142;" xml:space="preserve">
<g>
	<path d="M45.6,52.7c-14.9,0-27,7.9-27,17.6c0,0.3,0,0.9,0,1c0,10.3,10.6,18.7,27,18.7c16.5,0,27-8.3,27-18.7c0-0.4,0-0.6,0-1
		C72.5,60.6,60.5,52.7,45.6,52.7z M45.6,86.9c-14.3,0-25.9-7.4-25.9-16.6c0-9.2,11.6-16.6,25.9-16.6c14.3,0,25.9,7.4,25.9,16.6
		C71.5,79.5,59.9,86.9,45.6,86.9z"/>
	<path d="M60,72.1c-2.6-2.2-8.5-7.4-10.1-8.6c-0.9-0.7-1.5-1.1-2.1-1.2c-0.2-0.1-0.6-0.2-1-0.2c-0.4,0-0.8,0.1-1.3,0.2
		c-1,0.3-2.1,1.1-3.1,1.9l-0.1,0c-0.9,0.7-1.9,1.5-2.6,1.7c-0.3,0.1-0.6,0.1-1,0.1c-0.8,0-1.5-0.2-1.8-0.6c0-0.1,0-0.2,0.1-0.3l0,0
		l2.3-2.4c1.8-1.8,3.4-3.4,7.3-3.5c0.1,0,0.1,0,0.2,0c2.4,0,4.8,1.1,5,1.2c2.2,1.1,4.5,1.6,6.9,1.6c2.4,0,4.9-0.6,7.5-1.8
		c-0.3-0.2-0.6-0.5-0.9-0.7c-2.3,1-4.5,1.5-6.6,1.5c-2.2,0-4.3-0.5-6.4-1.5c-0.1-0.1-2.7-1.3-5.5-1.3c-0.1,0-0.1,0-0.2,0
		c-3.2,0.1-5,1.2-6.3,2.2c-1.2,0-2.2,0.3-3.1,0.6c-0.8,0.2-1.5,0.4-2.2,0.4c-0.3,0-0.8,0-0.8,0c-0.8,0-4.8-1-7.9-2.2
		c-0.3,0.2-0.6,0.5-0.9,0.7c3.3,1.4,7.3,2.4,8.6,2.5c0.4,0,0.7,0.1,1.1,0.1c0.8,0,1.7-0.2,2.5-0.5c0.5-0.1,1-0.3,1.6-0.4
		c-0.1,0.1-0.3,0.3-0.4,0.4l-2.3,2.5c-0.2,0.2-0.6,0.7-0.3,1.3c0.1,0.2,0.3,0.5,0.6,0.7c0.5,0.4,1.5,0.6,2.4,0.6c0.3,0,0.7,0,1-0.1
		c1-0.2,2-1,3-1.9c0.8-0.7,2.1-1.5,3-1.8c0.3-0.1,0.6-0.1,0.8-0.1c0.1,0,0.1,0,0.2,0c0.6,0.1,1.2,0.3,2.3,1.1
		c1.9,1.4,10.2,8.7,10.3,8.7c0,0,0.5,0.5,0.5,1.2c0,0.4-0.3,0.8-0.7,1.1c-0.4,0.2-0.7,0.3-1.1,0.3c-0.6,0-0.9-0.3-1-0.3
		c0,0-2.9-2.6-3.9-3.5c-0.2-0.1-0.3-0.3-0.5-0.3c-0.1,0-0.2,0-0.2,0.1c-0.2,0.2,0,0.5,0.2,0.7l3.3,3.3c0,0,0.4,0.4,0.5,0.9
		c0,0.6-0.2,1-0.8,1.4c-0.4,0.3-0.8,0.4-1.2,0.4c-0.5,0-0.9-0.2-0.9-0.3l-0.5-0.5c-0.9-0.9-1.8-1.7-2.4-2.3
		c-0.2-0.1-0.3-0.3-0.5-0.3c-0.1,0-0.2,0-0.2,0.1c-0.1,0.1-0.1,0.2,0.1,0.5c0.1,0.1,0.2,0.2,0.2,0.2l2.4,2.7c0,0,0.5,0.6,0.1,1.2
		l-0.1,0.1c-0.1,0.1-0.2,0.2-0.2,0.2c-0.4,0.3-1,0.4-1.2,0.4c-0.1,0-0.2,0-0.3,0c-0.2,0-0.4-0.1-0.5-0.2l0,0
		c-0.1-0.1-1.4-1.4-2.4-2.2c-0.1-0.1-0.3-0.3-0.5-0.3c-0.1,0-0.2,0-0.2,0.1c-0.2,0.2,0.1,0.5,0.2,0.7l2.1,2.3c0,0,0,0.1-0.1,0.1
		c-0.1,0.1-0.3,0.4-1.1,0.4c-0.1,0-0.2,0-0.3,0c-0.8,0-1.6-0.4-2-0.6c0.2-0.4,0.3-0.9,0.3-1.3c0-1.7-1.4-3.1-3.1-3.1
		c0,0-0.1,0-0.1,0c0.1-0.8-0.1-2.2-1.6-2.9c-0.4-0.2-0.9-0.3-1.3-0.3c-0.3,0-0.6,0.1-0.9,0.2c-0.3-0.6-0.8-1.1-1.5-1.3
		c-0.4-0.1-0.7-0.2-1.1-0.2c-0.6,0-1.2,0.2-1.7,0.6c-0.5-0.6-1.2-1-2-1c-0.7,0-1.4,0.3-1.8,0.8c-0.6-0.5-3.2-2.1-10-3.7
		c-0.3-0.1-1.1-0.3-1.6-0.4c-0.1,0.4-0.1,0.7-0.2,1.1c0,0,1.3,0.3,1.5,0.4c7,1.6,9.3,3.2,9.7,3.5c-0.1,0.3-0.2,0.7-0.2,1
		c0,1.4,1.2,2.6,2.6,2.6c0.2,0,0.3,0,0.5,0c0.2,1.1,0.9,1.9,2,2.3c0.3,0.1,0.6,0.2,0.9,0.2c0.2,0,0.4,0,0.6-0.1
		c0.2,0.5,0.6,1.1,1.6,1.5c0.3,0.1,0.7,0.2,1,0.2c0.3,0,0.5,0,0.8-0.1c0.5,1.2,1.6,1.9,2.9,1.9c0.8,0,1.6-0.3,2.2-0.9
		c0.5,0.3,1.6,0.8,2.6,0.8c0.1,0,0.3,0,0.4,0c1.1-0.1,1.5-0.5,1.8-0.9c0-0.1,0.1-0.1,0.1-0.2c0.2,0.1,0.5,0.1,0.8,0.1
		c0.6,0,1.1-0.2,1.7-0.6c0.5-0.4,0.9-1,1-1.4c0,0,0,0,0,0c0.2,0,0.4,0.1,0.6,0.1c0.6,0,1.2-0.2,1.7-0.6c1.1-0.7,1.3-1.6,1.2-2.2
		c0.2,0,0.4,0.1,0.6,0.1c0.6,0,1.1-0.2,1.6-0.5c0.7-0.4,1.1-1.1,1.1-1.8c0-0.5-0.1-1-0.4-1.5c1.8-0.8,5.9-2.3,10.8-3.4
		c0-0.4-0.1-0.7-0.2-1.1C65.5,69.7,61.1,71.6,60,72.1z M43.6,81.5c-1.1,0-2.1-0.9-2.1-2c0-0.1,0-0.4-0.2-0.4c-0.1,0-0.2,0.1-0.3,0.1
		c-0.3,0.2-0.6,0.5-1,0.5c-0.2,0-0.4,0-0.7-0.1c-1.2-0.5-1.2-1.3-1.2-1.6c0-0.1,0-0.2,0-0.3L38,77.7h-0.1c-0.1,0-0.1,0-0.2,0.1
		c-0.3,0.2-0.7,0.4-1,0.4c-0.2,0-0.4,0-0.6-0.1c-1.6-0.6-1.5-2.1-1.4-2.6c0-0.1,0-0.2-0.1-0.2l-0.1-0.1l-0.1,0.1
		c-0.3,0.3-0.7,0.5-1.1,0.5c-0.9,0-1.6-0.7-1.6-1.6c0-0.9,0.7-1.6,1.6-1.6c0.8,0,1.5,0.6,1.6,1.4l0.1,0.4l0.2-0.4c0,0,0.7-1,1.9-1
		c0.2,0,0.5,0,0.7,0.1c1,0.3,1.1,1.2,1.2,1.5c0,0.2,0.2,0.2,0.2,0.2c0.1,0,0.1-0.1,0.2-0.1c0.2-0.2,0.6-0.5,1.2-0.5
		c0.3,0,0.6,0.1,0.9,0.2c1.5,0.7,0.8,2.6,0.8,2.7c-0.1,0.3-0.1,0.5,0,0.6l0.1,0h0c0.1,0,0.2,0,0.3-0.1c0.2-0.1,0.5-0.2,0.8-0.2h0
		c1.2,0,2.1,1,2.1,2.1C45.7,80.6,44.8,81.5,43.6,81.5z"/>
	<path d="M83.4,60.6v7.9h-3.2v-7.3c0-3.5,1.8-5.3,5.3-5.3c1.6,0,2.8,0.4,3.7,1.1c0.9-0.7,2.1-1,3.7-1c3.5,0,5.3,1.8,5.3,5.3v7.3
		h-1.6c-1-0.1-1.5-0.6-1.5-1.5v-6.4c-0.1-1.3-0.8-1.9-2.2-1.9c-1.4,0-2.1,0.6-2.1,1.9v7.9h-3.1v-7.9c-0.1-1.3-0.8-1.9-2.2-1.9
		C84.1,58.7,83.4,59.3,83.4,60.6z"/>
	<path d="M113.6,62.2c0.1-4,2.1-6.2,6.2-6.2h0.9v3.2l-1.5,0c-1.7,0-2.6,1.1-2.6,2.9v6.5h-3.2V62.2z"/>
	<path d="M138.2,59.8l-2.9,0c0.1-2.4,1.3-4,4.9-4c3.4,0,5.2,1.1,5.2,3.4v4.2c0,3.4-2.1,5-5.4,5.2c-3,0.2-5-1.1-5-3.9
		c0.1-3,2.2-3.8,5.4-4.1c1.3-0.2,2-0.6,2-1.2c-0.1-0.7-0.7-1-2-1.1C138.8,58.4,138.4,59.2,138.2,59.8z M142.4,63.3v-1
		c-0.7,0.3-1.6,0.4-2.5,0.6c-1.2,0.2-1.9,0.8-1.9,1.7c0.1,1,0.6,1.5,1.6,1.5C141.3,66.1,142.4,65.1,142.4,63.3z"/>
	<path d="M158.8,52v11.2c0,3.7-1.9,5.6-5.8,5.6c-3.8-0.1-5.8-2.2-5.8-6.3c0-4.2,1.6-6.4,5-6.5c1.5,0,2.7,0.6,3.5,1.9v-4l0-0.3
		C156.7,52,158.8,52,158.8,52z M150.4,62.3c0,2.5,0.8,3.8,2.6,3.8c1.8,0,2.7-1.3,2.7-3.8c-0.1-2.4-0.9-3.6-2.6-3.6
		C151.4,58.7,150.5,59.9,150.4,62.3z"/>
	<path d="M103.2,70.5h0.8v16.4h-3.1V72.5C100.9,72,101.9,70.5,103.2,70.5z"/>
	<path d="M120.2,74.1c-1.5,0-2.7,0.6-3.5,1.9l0-5.6h-0.4l0,0c-1.6,0-2.4,0.8-2.8,1.5v-0.1v9.5c0,3.7,1.9,5.6,5.8,5.6
		c3.8-0.1,5.8-2.2,5.8-6.3C125.2,76.4,123.5,74.2,120.2,74.1z M119.3,84.3c-1.8,0-2.6-1.3-2.6-3.8c0.1-2.4,1-3.6,2.7-3.6
		s2.6,1.2,2.6,3.6C122,83,121.1,84.3,119.3,84.3z"/>
	<g>
		<path d="M103.8,65.4c0.5,0.5,1.2,0.7,2.2,0.7c0.7,0,1.2-0.2,1.7-0.5c0.5-0.3,0.8-0.7,0.9-1.1h2.9c-0.5,1.5-1.2,2.5-2.2,3.1
			c-1,0.6-2.1,0.9-3.5,0.9c-1,0-1.8-0.2-2.6-0.5c-0.8-0.3-1.4-0.7-1.9-1.3c-0.5-0.6-0.9-1.2-1.2-2c-0.3-0.8-0.4-1.6-0.4-2.6
			c0-0.9,0.1-1.7,0.4-2.5c0.3-0.8,0.7-1.5,1.3-2c0.5-0.6,1.2-1,2-1.3c0.8-0.3,1.6-0.5,2.5-0.5c1,0,1.9,0.2,2.7,0.6
			c0.8,0.4,1.4,0.9,1.9,1.6c0.5,0.7,0.8,1.4,1.1,2.3c0.2,0.9,0.3,1.8,0.2,2.7H103C103.1,64.2,103.3,64.9,103.8,65.4z M107.6,59.1
			c-0.4-0.4-1-0.7-1.8-0.7c-0.5,0-1,0.1-1.3,0.3c-0.4,0.2-0.6,0.4-0.8,0.7c-0.2,0.3-0.4,0.5-0.4,0.8c-0.1,0.3-0.1,0.6-0.2,0.8h5.4
			C108.3,60.1,108,59.5,107.6,59.1z"/>
	</g>
	<g>
		<path d="M127.8,58.4c-0.5,0-1,0.1-1.3,0.4c-0.4,0.2-0.7,0.6-0.9,0.9c-0.2,0.4-0.4,0.8-0.5,1.3c-0.1,0.5-0.1,0.9-0.1,1.4
			c0,0.4,0,0.9,0.1,1.3c0.1,0.5,0.2,0.9,0.5,1.2c0.2,0.4,0.5,0.7,0.9,0.9c0.4,0.2,0.8,0.4,1.3,0.4c0.8,0,1.4-0.2,1.9-0.7
			c0.4-0.4,0.7-1.1,0.8-1.8h3.2c-0.2,1.6-0.9,2.9-1.9,3.7c-1,0.9-2.4,1.3-4,1.3c-0.9,0-1.8-0.2-2.5-0.5c-0.8-0.3-1.4-0.7-1.9-1.3
			c-0.5-0.6-1-1.2-1.3-2c-0.3-0.8-0.4-1.6-0.4-2.5c0-0.9,0.1-1.8,0.4-2.6c0.3-0.8,0.7-1.5,1.2-2.1c0.5-0.6,1.2-1.1,2-1.4
			c0.8-0.3,1.7-0.5,2.6-0.5c0.7,0,1.4,0.1,2.1,0.3c0.7,0.2,1.3,0.5,1.8,0.9c0.5,0.4,1,0.9,1.3,1.4c0.3,0.6,0.5,1.3,0.6,2h-3.3
			C130,59.1,129.2,58.4,127.8,58.4z"/>
	</g>
	<g>
		<path d="M161.2,59.6c0.3-0.8,0.7-1.5,1.3-2c0.6-0.6,1.2-1,2-1.3c0.8-0.3,1.6-0.5,2.6-0.5c1,0,1.8,0.2,2.6,0.5
			c0.8,0.3,1.4,0.7,2,1.3c0.6,0.6,1,1.2,1.3,2c0.3,0.8,0.4,1.7,0.4,2.7c0,1-0.1,1.9-0.4,2.6c-0.3,0.8-0.7,1.5-1.3,2
			c-0.6,0.6-1.2,1-2,1.3c-0.8,0.3-1.7,0.4-2.6,0.4c-1,0-1.8-0.1-2.6-0.4c-0.8-0.3-1.4-0.7-2-1.3c-0.6-0.6-1-1.2-1.3-2
			c-0.3-0.8-0.4-1.7-0.4-2.6C160.7,61.3,160.9,60.4,161.2,59.6z M164.2,63.7c0.1,0.5,0.3,0.9,0.5,1.3c0.2,0.4,0.5,0.7,0.9,0.9
			c0.4,0.2,0.9,0.3,1.4,0.3c0.6,0,1-0.1,1.4-0.3c0.4-0.2,0.7-0.5,0.9-0.9c0.2-0.4,0.4-0.8,0.5-1.3c0.1-0.5,0.1-0.9,0.1-1.4
			c0-0.5,0-1-0.1-1.4c-0.1-0.5-0.3-0.9-0.5-1.3c-0.2-0.4-0.5-0.7-0.9-0.9c-0.4-0.2-0.9-0.3-1.4-0.3c-0.6,0-1,0.1-1.4,0.3
			c-0.4,0.2-0.7,0.5-0.9,0.9c-0.2,0.4-0.4,0.8-0.5,1.3c-0.1,0.5-0.1,1-0.1,1.4C164.1,62.8,164.1,63.3,164.2,63.7z"/>
	</g>
	<path d="M127,80.5c0.1-4,2.1-6.2,6.2-6.2h0.9v3.2l-1.5,0c-1.7,0-2.6,1.1-2.6,2.9v6.5H127V80.5z"/>
	<g>
		<path d="M139.1,83.7c0.5,0.5,1.2,0.7,2.2,0.7c0.7,0,1.2-0.2,1.7-0.5c0.5-0.3,0.8-0.7,0.9-1.1h2.9c-0.5,1.5-1.2,2.5-2.2,3.1
			c-1,0.6-2.1,0.9-3.5,0.9c-1,0-1.8-0.2-2.6-0.5c-0.8-0.3-1.4-0.7-1.9-1.3c-0.5-0.6-0.9-1.2-1.2-2c-0.3-0.8-0.4-1.6-0.4-2.6
			c0-0.9,0.1-1.7,0.4-2.5c0.3-0.8,0.7-1.5,1.3-2c0.5-0.6,1.2-1,2-1.3c0.8-0.3,1.6-0.5,2.5-0.5c1,0,1.9,0.2,2.7,0.6
			c0.8,0.4,1.4,0.9,1.9,1.6c0.5,0.7,0.8,1.4,1.1,2.3c0.2,0.9,0.3,1.8,0.2,2.7h-8.7C138.3,82.5,138.6,83.2,139.1,83.7z M142.9,77.4
			c-0.4-0.4-1-0.7-1.8-0.7c-0.5,0-1,0.1-1.3,0.3c-0.4,0.2-0.6,0.4-0.8,0.7c-0.2,0.3-0.4,0.5-0.4,0.8c-0.1,0.3-0.1,0.6-0.2,0.8h5.4
			C143.5,78.4,143.3,77.8,142.9,77.4z"/>
	</g>
	<rect x="107.4" y="70.5" width="3.1" height="2.8"/>
	<rect x="107.4" y="74.8" width="3.1" height="12.2"/>
</g>
</svg>
