<?xml version="1.0" encoding="utf-8"?>
<!-- Generator: Adobe Illustrator 23.0.3, SVG Export Plug-In . SVG Version: 6.00 Build 0)  -->
<svg version="1.1" id="Capa_1" xmlns="http://www.w3.org/2000/svg" xmlns:xlink="http://www.w3.org/1999/xlink" x="0px" y="0px"
	 viewBox="0 0 192 142" style="enable-background:new 0 0 192 142;" xml:space="preserve">
<style type="text/css">
	.st0{fill-rule:evenodd;clip-rule:evenodd;}
</style>
<g>
	<path class="st0" d="M85.1,85.9c-11.2-2.1-19.6-11.6-20-24.3c-0.5-14.6,10.9-25,24.5-25.2h22.6v10.8l-19.2,0c-7.3,0-14.2,6-14,13.3
		c0.2,7.4,6.8,13,12.2,13h4.2c0.6,0,1.1-0.5,1.1-1.1V58.5c0-0.8,0.6-1.4,1.4-1.4h15.9L85.1,85.9L85.1,85.9z"/>
	<path class="st0" d="M105.4,88V67.5c0-0.8,0.6-1.4,1.4-1.4h20.4L105.4,88L105.4,88z"/>
	<path class="st0" d="M62.7,105.7h4.3v-5.8h-2.6v3.6c0,0.1-0.1,0.2-0.2,0.2h-0.8c-1.6,0-3-1.3-3-2.9c0-1.6,1.3-2.9,3-2.9H67v-2h-4.2
		c-2.7,0-4.9,2.2-4.9,5C57.8,103.5,60,105.7,62.7,105.7L62.7,105.7z M71.6,105.7h-2.6v-9.9h2.6V105.7L71.6,105.7z M79.5,103.7h-0.8
		c-1.6,0-3-1.3-3-2.9c0-1.6,1.3-2.9,3-2.9h3.5v-2H78c-2.7,0-4.9,2.2-4.9,5c0,2.7,2.2,5,4.9,5h4.3v-5.8h-2.6v3.6
		C79.7,103.6,79.6,103.7,79.5,103.7L79.5,103.7z M90.2,95.8l3.8,9.9h-2.9l-0.7-2.1h-3.9l-0.7,2.1h-2.7l3.8-9.9H90.2L90.2,95.8z
		 M101.2,100.6c1-0.4,1.6-1.2,1.6-2.3c0-1.5-1.1-2.7-3.2-2.6H95v9.9l4.6,0c2.1-0.1,3.4-1.1,3.4-2.6C103.1,102,102.4,101,101.2,100.6
		L101.2,100.6z M113.1,95.8H110l-1.9,4l-2-4h-3.1l3.7,6.2v3.7h2.6V102L113.1,95.8L113.1,95.8z M121.4,95.8h-7.5v2h2.4v7.9h2.7v-7.9
		h2.4V95.8L121.4,95.8z M129.6,95.8h-7v9.9h7.2v-1.9h-4.5v-2.2h4.1v-1.9h-4.1v-2h4.3V95.8L129.6,95.8z M88.6,97.8l1.3,3.9h-2.6
		L88.6,97.8L88.6,97.8z M99,103.8c0.9,0,1.4-0.5,1.5-1.2c0-0.7-0.5-1.2-1.5-1.2h-1.3v2.4H99L99,103.8z M98.8,99.7
		c0.9,0,1.4-0.4,1.4-1c0-0.6-0.5-1-1.4-1h-1.2v2.1L98.8,99.7L98.8,99.7z"/>
	<path d="M133.4,100.6c0.4,0,0.8,0.1,1.2,0.3c0.4,0.2,0.7,0.5,0.9,0.9c0.2,0.4,0.3,0.8,0.3,1.3c0,0.4-0.1,0.9-0.3,1.3
		c-0.2,0.4-0.5,0.7-0.9,0.9c-0.4,0.2-0.8,0.3-1.3,0.3c-0.4,0-0.9-0.1-1.3-0.3c-0.4-0.2-0.7-0.5-0.9-0.9c-0.2-0.4-0.3-0.8-0.3-1.3
		c0-0.4,0.1-0.9,0.3-1.3c0.2-0.4,0.5-0.7,0.9-0.9C132.5,100.7,133,100.6,133.4,100.6L133.4,100.6z M133.4,101.1
		c-0.4,0-0.7,0.1-1,0.3c-0.3,0.2-0.6,0.4-0.8,0.8c-0.2,0.3-0.3,0.7-0.3,1.1c0,0.4,0.1,0.7,0.3,1c0.2,0.3,0.4,0.6,0.8,0.8
		c0.3,0.2,0.7,0.3,1,0.3c0.4,0,0.7-0.1,1-0.3c0.3-0.2,0.6-0.4,0.8-0.8c0.2-0.3,0.3-0.7,0.3-1c0-0.4-0.1-0.7-0.3-1.1
		c-0.2-0.3-0.5-0.6-0.8-0.8C134.1,101.1,133.7,101.1,133.4,101.1L133.4,101.1z M132.3,104.6v-2.7h0.9c0.3,0,0.6,0,0.7,0.1
		c0.1,0.1,0.3,0.1,0.3,0.3c0.1,0.1,0.1,0.3,0.1,0.4c0,0.2-0.1,0.4-0.2,0.5c-0.1,0.1-0.3,0.2-0.6,0.2c0.1,0,0.2,0.1,0.2,0.1
		c0.1,0.1,0.2,0.3,0.4,0.5l0.3,0.5H134l-0.2-0.4c-0.2-0.3-0.3-0.5-0.5-0.6c-0.1-0.1-0.2-0.1-0.4-0.1h-0.3v1.2H132.3L132.3,104.6z
		 M132.7,103h0.5c0.3,0,0.4,0,0.5-0.1c0.1-0.1,0.1-0.2,0.1-0.3c0-0.1,0-0.2-0.1-0.2c0-0.1-0.1-0.1-0.2-0.1c-0.1,0-0.2,0-0.4,0h-0.5
		V103L132.7,103z"/>
</g>
</svg>
