<?xml version="1.0" encoding="utf-8"?>
<!-- Generator: Adobe Illustrator 23.0.3, SVG Export Plug-In . SVG Version: 6.00 Build 0)  -->
<svg version="1.1"
	 id="Capa_1" text-rendering="geometricPrecision" image-rendering="optimizeQuality" shape-rendering="geometricPrecision"
	 xmlns="http://www.w3.org/2000/svg" xmlns:xlink="http://www.w3.org/1999/xlink" x="0px" y="0px" viewBox="0 0 192 142"
	 style="enable-background:new 0 0 192 142;" xml:space="preserve">
<style type="text/css">
	.st0{fill-rule:evenodd;clip-rule:evenodd;}
</style>
<g>
	<path class="st0" d="M36.6,65.4c-0.9,0-1.6-0.4-2.2-0.9v20.3h4.4V64.5C38.2,65,37.5,65.4,36.6,65.4L36.6,65.4z"/>
	<ellipse class="st0" cx="36.6" cy="60.6" rx="2.5" ry="2.5"/>
	<path class="st0" d="M42.5,64.3h4.2v3l0.1,0.1c0.7-1.1,1.5-2,2.6-2.7c1.1-0.7,2.3-1,3.6-1c2.2,0,4,0.6,5.2,1.8
		c1.3,1.1,1.9,2.9,1.9,5.2v14h-4.4V71.9c0-1.6-0.4-2.8-1-3.5c-0.6-0.7-1.6-1.1-2.9-1.1c-0.8,0-1.4,0.2-2,0.4
		c-0.6,0.3-1.1,0.7-1.5,1.1c-0.4,0.5-0.7,1.1-1,1.7c-0.3,0.7-0.4,1.3-0.4,2.1v12.1h-4.4L42.5,64.3L42.5,64.3z M61.6,64.3h3.3v-1.7
		c0-1.3,0.2-2.3,0.5-3.1s0.7-1.4,1.2-1.9c0.5-0.4,1.1-0.7,1.8-0.9c0.7-0.2,1.3-0.2,2.1-0.2c1.4,0,2.5,0.1,3.1,0.3v3.5
		c-0.3-0.1-0.6-0.2-0.9-0.2c-0.2,0-0.6,0-1,0c-0.6,0-1.1,0.2-1.5,0.4c-0.4,0.3-0.6,0.9-0.6,1.7v2.1h3.8v3.3h-3.8v17.1h-4.4V67.7
		h-3.3L61.6,64.3L61.6,64.3z M83.9,85.3c-1.6,0-3-0.3-4.3-0.8c-1.2-0.5-2.3-1.3-3.2-2.2c-0.9-0.9-1.5-2.1-2-3.4s-0.7-2.8-0.7-4.3
		c0-1.5,0.2-3,0.7-4.3s1.1-2.5,2-3.4s1.9-1.7,3.2-2.2c1.2-0.5,2.7-0.8,4.3-0.8s3,0.3,4.3,0.8c1.2,0.5,2.3,1.3,3.2,2.2
		c0.9,0.9,1.5,2.1,2,3.4s0.7,2.7,0.7,4.3c0,1.6-0.2,3-0.7,4.3c-0.5,1.3-1.1,2.5-2,3.4c-0.9,0.9-2,1.7-3.2,2.2
		C86.9,85,85.4,85.3,83.9,85.3z M83.9,81.7c1,0,1.9-0.2,2.6-0.6s1.3-1,1.8-1.6c0.5-0.7,0.8-1.5,1-2.3c0.2-0.9,0.3-1.8,0.3-2.6
		c0-0.9-0.1-1.8-0.3-2.6c-0.2-0.9-0.6-1.6-1-2.3c-0.5-0.7-1.1-1.2-1.8-1.6c-0.7-0.4-1.6-0.6-2.6-0.6c-1,0-1.9,0.2-2.6,0.6
		c-0.7,0.4-1.3,1-1.8,1.6c-0.5,0.7-0.8,1.4-1,2.3c-0.2,0.9-0.3,1.8-0.3,2.6c0,0.9,0.1,1.8,0.3,2.6c0.2,0.9,0.6,1.6,1,2.3
		c0.5,0.7,1.1,1.2,1.8,1.6C82,81.5,82.9,81.7,83.9,81.7z M96.6,56.5h4.4V67h0.1c0.3-0.5,0.7-0.9,1.1-1.3c0.5-0.4,0.9-0.7,1.4-1
		c0.5-0.3,1.1-0.5,1.6-0.6c0.6-0.2,1.2-0.2,1.8-0.2c1.6,0,2.9,0.3,4.1,0.8c1.2,0.6,2.2,1.3,2.9,2.3c0.8,1,1.3,2.2,1.8,3.5
		c0.4,1.3,0.6,2.7,0.6,4.2c0,1.4-0.2,2.7-0.5,4c-0.4,1.3-0.9,2.4-1.6,3.4c-0.7,1-1.6,1.8-2.7,2.4c-1.1,0.6-2.4,0.9-3.9,0.9
		c-0.7,0-1.3,0-2.1-0.2c-0.7-0.1-1.3-0.3-2-0.5c-0.6-0.3-1.2-0.6-1.7-1c-0.5-0.4-0.9-1-1.3-1.6h0v2.8h-4.2L96.6,56.5L96.6,56.5z
		 M112.1,74.6c0-0.9-0.1-1.8-0.4-2.7c-0.3-0.9-0.6-1.6-1-2.3c-0.5-0.7-1-1.2-1.8-1.6c-0.7-0.4-1.5-0.6-2.4-0.6c-1.9,0-3.3,0.7-4.2,2
		c-0.9,1.3-1.4,3.1-1.4,5.3c0,1,0.1,2,0.4,2.9c0.3,0.9,0.6,1.6,1.1,2.3c0.5,0.6,1.1,1.1,1.8,1.5c0.7,0.4,1.5,0.6,2.4,0.6
		c1,0,1.9-0.2,2.6-0.6c0.7-0.4,1.3-1,1.8-1.6c0.5-0.7,0.8-1.4,1-2.3C112,76.3,112.1,75.5,112.1,74.6L112.1,74.6z M135.9,80.2
		c0,0.6,0,0.9,0.2,1.2c0.2,0.3,0.4,0.4,0.8,0.4h0.5c0.2,0,0.4,0,0.6-0.1v3.1c-0.2,0-0.4,0.1-0.6,0.2c-0.3,0-0.5,0.1-0.8,0.2
		c-0.3,0-0.5,0.1-0.8,0.1c-0.3,0-0.5,0-0.7,0c-0.9,0-1.6-0.2-2.3-0.6c-0.6-0.4-1-1-1.2-2c-0.9,0.9-2,1.5-3.2,1.9
		c-1.3,0.4-2.5,0.6-3.7,0.6c-0.9,0-1.8-0.1-2.6-0.4c-0.8-0.3-1.5-0.6-2.2-1.1c-0.6-0.5-1.1-1.1-1.5-1.9c-0.4-0.8-0.6-1.6-0.6-2.6
		c0-1.3,0.2-2.3,0.7-3.1c0.5-0.8,1-1.4,1.8-1.9c0.7-0.5,1.5-0.8,2.5-1c0.9-0.2,1.9-0.4,2.8-0.5c0.8-0.2,1.5-0.3,2.3-0.4
		c0.7,0,1.4-0.2,1.9-0.4c0.6-0.2,1-0.4,1.3-0.7c0.3-0.3,0.5-0.8,0.5-1.5c0-0.6-0.2-1-0.4-1.4c-0.3-0.4-0.6-0.7-1-0.8
		c-0.4-0.2-0.8-0.3-1.3-0.4c-0.5,0-1-0.1-1.4-0.1c-1.2,0-2.3,0.3-3.1,0.8c-0.8,0.5-1.2,1.3-1.3,2.5h-4.4c0.1-1.3,0.4-2.4,0.9-3.3
		c0.6-0.9,1.2-1.5,2.1-2.1c0.8-0.5,1.8-0.9,2.9-1.1c1.1-0.2,2.2-0.3,3.2-0.3c1,0,2,0.1,2.9,0.3c1,0.2,1.8,0.6,2.6,1
		c0.8,0.5,1.4,1.1,1.9,1.9c0.5,0.8,0.7,1.6,0.7,2.7v10.7L135.9,80.2L135.9,80.2z M131.5,74.5c-0.7,0.5-1.5,0.7-2.5,0.8
		c-1,0.1-2,0.2-2.9,0.4c-0.5,0.1-0.9,0.2-1.3,0.4c-0.5,0.2-0.8,0.4-1.2,0.6c-0.4,0.3-0.6,0.6-0.8,1c-0.2,0.4-0.3,0.9-0.3,1.5
		c0,0.5,0.2,0.9,0.4,1.3c0.3,0.4,0.6,0.6,1,0.8c0.4,0.2,0.8,0.4,1.3,0.4c0.5,0.1,0.9,0.1,1.3,0.1c0.5,0,1,0,1.6-0.2
		c0.6-0.2,1.1-0.4,1.6-0.7c0.5-0.3,0.9-0.7,1.3-1.2c0.4-0.5,0.5-1.1,0.5-1.8L131.5,74.5L131.5,74.5L131.5,74.5z M143,75.7
		c0,0.8,0.1,1.5,0.3,2.3s0.6,1.4,1,2c0.5,0.6,1,1,1.6,1.3c0.7,0.3,1.5,0.5,2.4,0.5c1.3,0,2.3-0.3,3.1-0.8c0.8-0.6,1.4-1.4,1.8-2.5
		h4.2c-0.3,1.1-0.6,2.1-1.2,3s-1.2,1.6-2.1,2.2c-0.8,0.6-1.7,1-2.7,1.3c-1,0.3-2.1,0.5-3.1,0.5c-1.6,0-3-0.3-4.2-0.8
		c-1.2-0.5-2.3-1.3-3.1-2.2c-0.8-0.9-1.5-2.1-1.9-3.4c-0.4-1.3-0.6-2.8-0.6-4.3c0-1.4,0.2-2.8,0.7-4.1c0.5-1.3,1.1-2.5,2-3.5
		c0.8-1,1.9-1.8,3-2.4c1.2-0.6,2.5-0.9,4.1-0.9c1.6,0,3,0.4,4.3,1c1.2,0.7,2.3,1.5,3.1,2.7c0.8,1.1,1.4,2.4,1.8,3.8s0.5,2.9,0.3,4.4
		H143L143,75.7L143,75.7z M153.3,72.7c0-0.7-0.2-1.4-0.5-2.1c-0.3-0.7-0.6-1.2-1-1.7c-0.4-0.5-0.9-0.9-1.5-1.2
		c-0.6-0.3-1.3-0.5-2.1-0.5c-0.8,0-1.5,0.2-2.1,0.4c-0.6,0.3-1.2,0.7-1.6,1.1c-0.5,0.5-0.8,1.1-1.1,1.7c-0.3,0.7-0.4,1.4-0.5,2.1
		L153.3,72.7L153.3,72.7z"/>
</g>
</svg>
