<?xml version="1.0" encoding="utf-8"?>
<!-- Generator: Adobe Illustrator 23.0.3, SVG Export Plug-In . SVG Version: 6.00 Build 0)  -->
<svg version="1.1" id="Capa_1" xmlns="http://www.w3.org/2000/svg" xmlns:xlink="http://www.w3.org/1999/xlink" x="0px" y="0px"
	 viewBox="0 0 192 142" style="enable-background:new 0 0 192 142;" xml:space="preserve">
<g>
	<g>
		<polyline points="59.3,52.9 59.1,53.1 59.3,53.4 59.5,53.1 59.3,52.9 		"/>
		<path d="M72.3,56.8L72.3,56.8c-1.4,0-2.7-0.5-3.9-0.9c-0.5-0.2-1.1-0.5-1.6-0.5C65.9,55.2,65,55,64.1,55h-0.7
			c-0.7,0-1.4,0-1.8,0.5c-0.2-0.7-0.2-1.4-0.7-2.1c-0.2-0.7-0.7-1.4-1.4-1.6h-0.2c-0.7,0-1.1,0.7-1.4,0.9v0.2
			c-0.2,0.5-0.5,0.7-0.5,0.9c0,0.2,0.2,0.5,0.9,0.7l0.2,0.7l0,0c0,0.5,0,0.7,0,1.1c-0.7-1.1-2.1-1.4-3-1.6h-0.9
			c-1.1,0-2.5,0.5-3.2,0.9c-0.5,0.2-0.9,0.5-1.4,0.7c-0.9,0.5-1.8,0.9-2.7,1.1c-0.2,0-0.7,0.2-0.9,0.2l0,0l0,0l0,0L46,57.9l0.2,0.7
			c0.7,0.5,1.4,0.5,2.5,0.5h0.7h0.9c0.5,0,0.9-0.2,1.4-0.2h0.9c0.7,0.2,1.1,0.9,1.6,1.6l0.2,0.5l0,0l0.5,1.1L54,63l-0.2,0.2L53.4,63
			c-0.7,0.5-1.8,1.1-1.6,2.1c0,0.5,0.5,0.7,0.9,0.9h0.2l0.9-0.2l0.2-0.2c0.5-0.2,0.7-0.2,1.1-0.2c0.7,0,1.1,0.2,1.6,0.7l0.5,0.5
			l0.5,0.5l0.7,0.2l0.5-0.2c0-0.5,0-0.9,0-1.4v-1.1l0.5-0.7h0.2H60h0.5c0.7,0,1.4-0.7,1.8-1.8l0.7-0.5c0.5,0,0.7-0.5,0.9-0.7
			l0.2-0.2c0.5-0.7,1.1-0.9,1.8-0.9h0.5h0.5c0.5,0,0.9,0,1.4,0c0.5,0,0.9,0,1.4-0.2c0.9-0.2,1.8-0.9,2.7-1.6h0.2l0.2-0.5L72.3,56.8
			 M54.7,59.8L54,58.9c-0.7-0.7-1.4-1.1-2.5-1.1c-0.5,0-0.9,0-1.6,0c-0.5,0-0.9,0-1.4,0h-0.7c0.9-0.2,1.6-0.7,2.5-1.1
			c0.9-0.5,1.8-0.9,2.7-1.1c0.5-0.2,1.1-0.2,1.8-0.2c1.1,0,2.1,0.2,3,0.9c0.7,0.5,0.9,0.9,0.7,1.6c-0.2,0.7-0.7,1.4-1.4,2.1L57,60
			c-0.2,0.2-0.7,0.9-1.1,0.9l-0.2-0.2C55.2,60.7,55,60.2,54.7,59.8 M61.6,60.9c0,0.7-0.2,1.1-0.7,1.4c-0.2,0.2-0.7,0.5-1.1,0.5h-0.2
			h-0.2L58.6,63c-0.7,0.5-0.7,1.8-0.7,2.5v0.2l0,0c-0.7-0.7-1.4-1.4-2.3-1.4h-0.5H54l-0.7,0.5L53.1,65h-0.5l0,0l0,0l0.7-0.7l0,0
			c0.7-0.5,1.4-0.9,2.1-1.6c1.4-0.9,2.7-2.3,3.4-3.9c0.5-0.9,0.5-2.1,0.5-3.2l0,0c0-0.5,0-0.9-0.2-1.4l-0.7-0.7h-0.2
			c0.2-0.2,0.5-0.9,0.9-0.9l0.5,0.2c0.5,0.7,0.7,1.6,0.9,2.3l0.2,0.5C61.1,56.8,61.8,59.1,61.6,60.9 M70.3,58.2
			c-0.7,0.5-1.4,0.7-1.8,0.7l0,0c-0.5,0-0.7,0-1.1,0h-0.9c-0.9,0-1.4,0-2.1,0.5c-0.5,0.2-0.7,0.5-0.9,0.9l-0.5,0.7h-0.2l0,0v-0.2
			l0,0v-0.9v-0.2c0-0.5-0.2-1.1-0.2-1.6v-0.2c-0.2-0.5-0.2-1.1,0-1.4l0.9-0.2h0.7h0.2h1.1c0.7,0,1.4,0.2,2.1,0.5
			c0.5,0.2,0.9,0.2,1.4,0.5c0.9,0.5,2.1,0.7,3,0.9L70.3,58.2"/>
		<path d="M81.2,65.9c-0.2-1.8-0.7-3.7-1.4-5.5c-0.7-1.8-1.4-3.4-2.3-5c-0.7-1.1-1.6-2.3-2.5-3.4c-1.1-1.4-2.5-2.7-3.9-3.9
			c-1.4-1.1-3-2.1-4.6-2.7s-3.4-1.1-5-1.4c-1.8-0.2-3.7-0.2-5.3,0c-1.8,0.2-3.4,0.7-5,1.6c-1.6,0.7-3.2,1.6-4.6,2.7
			c-1.4,1.1-2.7,2.5-3.9,3.9c-1.1,1.4-2.1,3-3,4.6s-1.6,3.4-2.1,5c-0.5,1.8-0.9,3.7-1.1,5.7c-0.2,2.1-0.2,3.9,0,5.9
			c0.2,1.8,0.5,3.9,0.9,5.7c0.5,1.8,1.1,3.7,1.8,5.3c0.7,1.6,1.6,3.2,2.7,4.6c1.1,1.6,4.1,4.6,4.1,4.6c3.7,3,7.8,4.6,12.6,4.6l0,0
			c1.8,0,3.4-0.2,5.3-0.7c1.6-0.5,3.2-1.1,4.8-2.1c1.6-0.9,3-2.1,4.1-3.2c1.4-1.4,2.3-2.7,3.4-4.1c0.9-1.6,1.8-3.2,2.5-4.8
			c0.7-1.8,1.1-3.7,1.6-5.5c0.5-1.8,0.7-3.9,0.7-5.9C81.7,70.1,81.7,68,81.2,65.9 M41.7,79H41l0.5-2.1l0,0
			C41.7,77.6,41.7,78.3,41.7,79 M41.9,73.7l-1.1-0.5l0,0h2.5l0,0l-1.1,0.5H41.9 M40.6,72.6l1.4-0.9v0.9H40.6z M41,69.6h2.3l0,0
			l-0.9,0.5h-0.2L41,69.6L41,69.6 M40.6,69.1l1.1-0.7v0.7H40.6z M42.2,68.5l1.1,0.7h-1.1V68.5 M42.4,71.7l1.4,0.9h-1.4V71.7
			 M42.4,79c0-0.7,0-1.4,0-2.1l0,0l0.5,2.1H42.4z M59.3,96.3c-3.4,0-6.6-1.1-9.6-3c2.3,0,4.3,0.2,6.6,0.7c2.3,0.2,4.3,0.7,6.6,0.9
			c0.9,0,1.6,0.2,2.5,0.2C63.6,95.9,61.3,96.3,59.3,96.3 M69.3,93.1c-2.1,0.2-4.3,0.2-6.4,0c-2.1-0.2-4.3-0.7-6.4-0.9
			c-2.3-0.2-4.3-0.7-6.6-0.7c-0.7,0-1.6,0-2.3,0.2c-0.7-0.7-1.4-1.4-2.1-2.1c2.3-0.2,4.6-0.2,6.9-0.2c2.3,0.2,4.6,0.5,6.9,0.9
			c1.1,0.2,2.3,0.2,3.4,0.5c0.5,0,2.7,0.2,3.4,0.2c2.3,0,4.6-0.2,6.9-0.5C71.4,91.5,70.5,92.5,69.3,93.1 M74.4,88.1
			C72.3,88.6,70,89,67.7,89c-1.1,0-2.3,0-3.4,0c-1.1,0-2.3-0.2-3.4-0.5c-2.3-0.2-4.6-0.7-6.6-0.9c-2.3-0.2-4.6-0.5-6.9-0.2
			c-1.1,0-2.5,0.2-3.7,0.5c-0.5-0.7-0.9-1.1-1.1-1.8c2.1-0.5,4.1-0.7,5.9-0.7c2.1,0,4.1,0,6.2,0.2s3.9,0.7,5.9,0.9
			c1.8,0.2,3.7,0.5,5.5,0.5l0,0c1.8,0,3.9-0.2,5.7-0.5c1.4-0.2,2.7-0.5,4.1-0.9C75.5,86.5,75.1,87.4,74.4,88.1 M44.4,81.3
			c-0.9-0.7-1.1-1.6-0.9-1.8l3-6.9l0,0L44.4,81.3z M46.3,74.6c0,3,0,5.9,0,7.3c-0.5-0.2-1.1-0.2-1.6-0.7L46.3,74.6L46.3,74.6
			 M45.6,68.7h2.3l0,0L47,69.1h-0.5L45.6,68.7L45.6,68.7 M45.4,68.2l1.1-0.7v0.7H45.4z M47,67.5l1.1,0.7H47V67.5 M49.2,77.6
			c0,1.4,0,3,0,4.1l0,0l-0.9-4.3l0.5-1.1L49.2,77.6z M48.8,75.8l0.5-0.9l0,0c0,0.7,0,1.1,0,1.8L48.8,75.8z M47.9,78.1l0.9,3.9
			c-0.2,0.2-0.7,0.2-1.1,0.2h-0.5H47c0-0.5,0-1.4,0-2.3L47.9,78.1z M47,79c0-1.4,0-2.7,0-4.3l0,0l0.7,2.7L47,79z M48.1,76.9
			l-0.9-4.3l0,0l1.4,3.2L48.1,76.9z M49.9,78.1v-0.7c0-1.1,0-1.6,0-2.7l0,0l1.8,4.3c-0.2,0.5-0.2,0.7-0.7,1.1L49.9,78.1z M50.6,80.6
			L49.9,81c0-0.7,0-1.4,0-2.1L50.6,80.6z M52.4,79l2.1-4.3c0,1.1,0,3,0,4.3H52.4 M66.6,73.5h3l0,0l-1.4,0.7H68L66.6,73.5L66.6,73.5
			 M66.4,73l1.6-1.1V73H66.4z M66.8,68.7L66.8,68.7h2.5l0,0l0,0l0,0l0,0l-1.1,0.5H68L66.8,68.7L66.8,68.7 M66.6,68.2l1.4-0.9v0.9
			H66.6z M68.4,67.3l1.4,0.9h-1.4V67.3 M68.4,71.9L70,73h-1.4C68.4,72.6,68.4,72.1,68.4,71.9 M72.8,70.7h2.5l0,0l-1.1,0.5h-0.2
			L72.8,70.7L72.8,70.7 M72.5,70.3l1.4-0.9v0.9H72.5z M74.1,69.4l1.4,0.9h-1.4V69.4 M73.7,74.6c0,3,0,6.2-0.2,8.5
			c-0.7,0.2-1.4,0.2-1.8,0.2l1.1-5.5L73.7,74.6L73.7,74.6 M73.5,73.3l-2.1,9.6l-0.9-2.5l0,0L73.5,73.3L73.5,73.3 M71.2,83.3
			c-0.7-0.2-1.1-0.5-1.6-0.9l0.7-1.6L71.2,83.3z M69.3,82.2c-0.5-0.5-0.7-0.9-0.7-1.1c0-1.4,0-3.7,0-5.9l1.6,5L69.3,82.2z M65.7,81
			h-3.4l5.3-5.9L65.7,81z M67.7,75.1c0,1.4,0,5.7,0,5.7h-1.6L67.7,75.1z M74.4,74.6L74.4,74.6L76,81c-0.2,0.7-0.9,1.4-1.4,1.6
			C74.4,81.5,74.4,74.6,74.4,74.6 M76.2,80.8l-1.8-7.5c0-0.5,0-0.2,0.2-0.2l3.2,7.8H76.2z M79.2,77.1c-0.2,1.1-0.5,2.3-0.9,3.7
			l-3.9-9.4l1.8-0.7v-0.5l-2.1-1.4v-3l0.7-0.2h0.7h0.7l0.5-0.2c-0.5,0-0.9-0.2-1.1-0.5l-0.7-0.2h-0.7v-0.5l0,0
			c-0.2,0.7-0.2,1.6-0.2,2.5c0,0.5,0,1.1,0,1.6v0.2l-1.8,1.4v0.5l1.6,0.7l-3.4,8.2l-1.8-5.3l1.8-0.9v-0.5l-2.1-1.4
			c0-0.7,0-1.4,0-2.1l1.8-0.9l0,0V68l-1.8-1.4c0-1.4,0-2.5,0-3.9h0.2h0.2h0.7H70l0.5-0.2c-0.5,0-0.9-0.2-1.1-0.5l-0.5,0h-0.7v-0.5
			l0,0l0,0C68,62.3,68,63,68,63.9c0,0.7,0,1.4,0,2.1c0,0.5,0,0.9,0,1.4l-1.8,1.4v0.5l1.8,0.9l0,0c0,0.7,0,1.4,0,2.1l-2.1,1.4l0,0
			l1.8,0.9L61.8,81l-0.9,0.2v0.5l0.5,0.5l0.2,0.2l0,0c0,0,0.5,1.8,2.7,2.5l0,0l0,0l0,0l0,0C62,84.7,60,84.5,57.9,84
			c-0.9-0.2-1.6-0.2-2.5-0.5c-0.5,0-1.1-0.2-1.6-0.2l0,0l0,0l0,0l0,0l0,0l0,0l0,0c3-0.9,3.7-3.2,3.7-3.2h0.2l0.2-0.2l0.5-0.5V79
			l-0.9-0.2l0,0h-0.2c0-0.5,0-1.6,0-2.5h0.2h0.2h0.7h0.7l0.5-0.2c-0.5,0-0.9-0.2-1.1-0.5l-0.7-0.2H57v-0.5l0,0
			c-0.2,0.7-0.2,3-0.2,3.9h-1.6c0-1.6-0.2-3.9-0.2-5.3l1.4-2.7L57,71l0.5,0.2l0.5,0.2h0.7c-0.5-0.2-0.5-0.7-0.9-0.9l-0.5-0.5
			l-0.7-0.2l0.2-0.5l0,0l0,0h-0.2l-0.2,0.5l-1.4,3c0-0.5,0-0.9,0-1.4c0-0.7,0-1.1-0.2-1.8l0,0c-0.2,0.7-0.2,1.4-0.2,2.3
			c0,0.7,0,1.4,0,2.1L52,79l-2.3-5.3c0-0.7,0-1.4,0-2.1c0-0.7,0-1.6-0.2-2.3l0,0c-0.2,0.7-0.2,1.4-0.2,2.3c0,0.7,0,1.4,0,2.1
			l-0.7,1.6L47,71.2c0-0.7,0-1.4,0-1.8l1.6-0.7v-0.5L47,67.1c0-1.4,0-2.7,0-4.1h0.2h0.2h0.7h0.7l0.5-0.2c-0.5,0-0.9-0.2-1.1-0.5
			l-0.7-0.2h-0.7v-0.5l0,0c-0.2,0.7-0.2,1.6-0.2,2.5c0,0.9,0,1.6,0,2.5v0.5l-1.6,1.1v0.5l1.6,0.7c0,0.7,0,1.8,0,1.8l-3.2,7.3
			l-0.5-1.6h0.5l0,0h0.2h0.2l0.2-0.2l-0.2-0.2h-0.2h-0.7l-0.2-1.1c0-0.5,0-0.9,0-1.4l1.8-0.9v-0.5l-1.8-1.4v-1.1l1.6-0.7v-0.5
			l-1.6-1.1c0-1.1,0-1.8,0-2.1l0.5-0.2h0.7h0.5l0.5-0.2c-0.5,0-0.7-0.2-1.1-0.5l-0.5-0.2h-0.7v-0.5l0,0c-0.5,1.1-0.5,1.8-0.5,2.5
			c0,0.5,0,0.9,0,1.4l-1.6,1.1v0.5l1.6,0.7v1.1l-1.8,1.1V73l1.8,0.9c0,0.5,0,0.9,0,1.4l-0.2,1.1H41h-0.2l-0.2,0.2l0.2,0.2H41h0.2
			l0,0h0.5L41.2,79h-0.9c-0.5-2.1-0.9-4.1-0.9-6.2c-0.2-2.1,0-4.1,0.2-6.2c0.2-1.8,0.7-3.7,1.4-5.5c0.7-1.6,1.4-3.4,2.3-5
			c0.5-0.9,0.9-1.6,1.6-2.3c2.3,0.7,5.5,0,5.5,0c2.7-0.5,4.6-0.5,5.5-0.2h0.5l0.2-0.9c-3-0.9-6.2-0.5-6.2-0.5
			c-2.1,0.2-3.2-0.2-3.7-0.5c0,0,1.1-1.4,2.3-2.1c0.9,0.7,2.1,0.9,3,1.1c0.7,0.2,1.4,0.2,2.1,0.2c0.7,0.2,1.4,0.5,2.1,0.7l0.7,0.2
			l0.5-0.7l-0.5-0.2c-0.9-0.5-1.8-0.7-2.7-1.1c-0.7-0.2-1.1-0.5-1.8-0.7c-0.9-0.5-1.4-0.9-1.4-0.9s1.4-0.9,2.7-1.4
			c0.7,0.9,1.6,1.4,2.5,2.1c1.1,0.9,1.6,1.8,1.6,1.8l0.9-0.5c-0.5-0.9-1.1-2.1-1.8-2.7c-0.2-0.2-0.9-0.9-0.9-1.4c0,0,1.6-0.5,3-0.5
			l0.5,4.3h0.5h0.5l0-4.1c0,0,1.1,0,2.1,0.2c0.5,0,0.9,0.2,0.9,0.2c-0.2,0.5-0.7,1.1-0.9,1.4c-0.7,0.7-1.4,1.8-1.8,2.7l0.7,0.5
			c0.5-0.7,1.1-1.4,1.6-1.8c0.7-0.7,1.8-1.1,2.5-2.1c0.2,0,0.9,0.2,1.8,0.9l0.7,0.5c0,0-0.9,0.7-1.4,0.9c-0.5,0.2-1.1,0.5-1.8,0.7
			c-0.9,0.2-1.8,0.5-2.7,1.1l-0.5,0.2l0.5,0.7l0.7-0.2c0.7-0.2,1.4-0.5,2.1-0.7c0.7-0.2,1.4-0.2,2.1-0.2c1.1-0.2,2.1-0.5,3-1.1
			c1.1,0.9,2.3,2.1,2.3,2.1c-0.7,0.2-1.8,0.7-3.7,0.5c0,0-3.2-0.5-6.2,0.5c0,0.2,0.2,0.5,0.2,0.9h0.5c0.9-0.2,2.7-0.2,5.5,0.2
			c0,0,3,0.7,5.5,0l0.7,0.9c0.9,1.4,1.8,3,2.5,4.6c0.7,1.8,1.4,3.4,1.6,5.3c0.5,1.8,0.7,3.9,0.7,5.9C79.9,73,79.6,75.1,79.2,77.1"/>
	</g>
	<g>
		<g>
			<path d="M91.3,45.8H97c1.5,0,2.7,0.3,3.3,1.2c0.5,0.5,0.8,1.3,0.8,2.2l0,0c0,1.5-0.8,2.3-1.8,2.8c1.5,0.5,2.5,1.3,2.5,3.2l0,0
				c0,2.3-1.8,3.5-4.8,3.5h-6 M96.5,51.3c1.5,0,2.5-0.5,2.5-1.7l0,0c0-1-0.8-1.7-2.3-1.7h-3.3v3.5h3.2V51.3z M97.1,56.8
				c1.5,0,2.5-0.7,2.5-1.8l0,0c0-1-0.8-1.7-2.7-1.7h-3.5v3.5H97.1z"/>
			<path d="M103.8,55.1V49h2.2v5.5c0,1.5,0.8,2.3,2,2.3c1.3,0,2.2-0.8,2.2-2.3V49h2.2v9.8h-2v-1.5c-0.7,1-1.5,1.7-3,1.7
				C105,59,103.8,57.5,103.8,55.1"/>
			<path d="M114.3,54L114.3,54c0-2.8,2-5.2,4.7-5.2c3,0,4.7,2.5,4.7,5.2v0.7h-7.2c0.2,1.5,1.3,2.5,2.8,2.5c1,0,1.8-0.3,2.7-1.2
				l1.3,1.2c-1,1.2-2.2,1.8-4,1.8C116.5,59,114.3,57,114.3,54 M121.7,53.1c-0.2-1.5-1-2.5-2.5-2.5c-1.3,0-2.3,1-2.5,2.5H121.7z"/>
			<path d="M125.7,49h2.2v1.5c0.7-1,1.5-1.7,3-1.7c2.2,0,3.5,1.5,3.5,3.7v6.3h-2.2v-5.5c0-1.5-0.8-2.3-2-2.3c-1.3,0-2.2,0.8-2.2,2.3
				v5.5h-2.2"/>
			<path d="M136.2,54L136.2,54c0-2.8,2.2-5.2,5.2-5.2c3,0,5.2,2.3,5.2,5l0,0c0,2.8-2.2,5-5.2,5C138.3,59,136.2,56.6,136.2,54
				 M144.3,54L144.3,54c0-1.7-1.2-3.2-3-3.2c-1.8,0-3,1.3-3,3.2l0,0c0,1.7,1.2,3.2,3,3.2C143.2,57,144.3,55.6,144.3,54"/>
			<path d="M147.7,57.5l1-1.5c1,0.8,2.2,1.2,3.2,1.2c1,0,1.5-0.3,1.5-1l0,0c0-0.8-1-1-2.2-1.3c-1.5-0.3-3-1-3-2.8l0,0
				c0-1.8,1.5-3,3.5-3c1.2,0,2.5,0.5,3.5,1.2l-0.8,1.5c-1-0.5-2-1-2.7-1c-0.8,0-1.3,0.3-1.3,1l0,0c0,0.7,1,1,2.2,1.3
				c1.3,0.5,3,1,3,2.8l0,0c0,2-1.5,3-3.7,3C150.3,59,148.8,58.5,147.7,57.5"/>
		</g>
		<g>
			<path d="M96.6,64.3h2.2l5.7,13h-2.3l-1.3-3.2h-6l-1.5,3.2H91 M99.8,72.1L97.6,67l-2.2,5.2H99.8z"/>
			<path d="M106,63.9h2.3v2.2H106V63.9z M106.1,67.5h2.2v9.8h-2.2V67.5z"/>
			<path d="M110.8,67.5h2.2v2.2c0.7-1.5,1.7-2.5,3.5-2.3v2.3l0,0c-2,0-3.3,1.3-3.3,3.8v3.8H111"/>
			<path d="M117.3,72.5L117.3,72.5c0-2.8,2-5.2,4.7-5.2c3.2,0,4.7,2.5,4.7,5.2v0.7h-7.2c0.2,1.5,1.3,2.5,2.8,2.5
				c1,0,1.8-0.3,2.7-1.2l1.3,1.2c-0.8,1.2-2.2,1.8-4,1.8C119.5,77.5,117.3,75.5,117.3,72.5 M124.5,71.6c-0.2-1.5-1-2.5-2.5-2.5
				c-1.3,0-2.3,1-2.5,2.5H124.5z"/>
			<path d="M127.7,76l1-1.5c1,0.8,2.2,1.2,3.2,1.2s1.5-0.3,1.5-1l0,0c0-0.8-1-1-2.2-1.3c-1.5-0.3-3-1-3-2.8l0,0c0-1.8,1.5-3,3.5-3
				c1.2,0,2.5,0.5,3.5,1.2l-0.8,1.5c-1-0.5-2-1-2.7-1c-0.8,0-1.3,0.3-1.3,1l0,0c0,0.7,1,1,2.2,1.3c1.3,0.5,3,1,3,2.8l0,0
				c0,2-1.5,3-3.7,3C130.5,77.5,129,77,127.7,76"/>
		</g>
		<g>
			<path d="M91,89.5L91,89.5c0-3.7,2.7-6.7,6.7-6.7c2.3,0,3.8,0.8,5,2l-1.5,1.7c-1-1-2.2-1.7-3.7-1.7c-2.5,0-4.2,2-4.2,4.5l0,0
				c0,2.5,1.8,4.5,4.2,4.5c1.5,0,2.7-0.7,3.7-1.7l1.5,1.5c-1.3,1.3-2.8,2.3-5.2,2.3C93.8,96.2,91,93.2,91,89.5"/>
			<path d="M104.5,82.7h2.3v2.2h-2.3V82.7z M104.6,86.2h2.2V96h-2.2V86.2z"/>
			<path d="M109.3,92.4v-6.2h2.2v5.5c0,1.5,0.8,2.3,2,2.3c1.3,0,2.2-0.8,2.2-2.3v-5.5h2.2V96h-2.2v-1.5c-0.7,1-1.5,1.7-3,1.7
				C110.5,96.2,109.3,94.7,109.3,92.4"/>
			<path d="M120,91.2L120,91.2c0-3.2,2.2-5,4.5-5c1.7,0,2.7,0.8,3.3,1.7v-5.2h2.2V96h-2.2v-1.7c-0.7,1-1.7,1.8-3.3,1.8
				C122.2,96.2,120,94.4,120,91.2 M127.8,91.2L127.8,91.2c0-1.8-1.3-3.2-2.8-3.2s-2.8,1.2-2.8,3.2l0,0c0,1.8,1.3,3.2,2.8,3.2
				C126.5,94.2,127.8,93,127.8,91.2"/>
			<path d="M138.3,96v-1.2c-0.7,0.8-1.7,1.3-3.2,1.3c-1.8,0-3.5-1-3.5-3l0,0c0-2.2,1.7-3.2,4-3.2c1.2,0,2,0.2,2.7,0.3v-0.2
				c0-1.3-0.8-2-2.3-2c-1,0-1.8,0.2-2.8,0.7l-0.7-1.8c1-0.5,2.2-0.8,3.7-0.8c2.8,0,4.3,1.5,4.3,4.2V96 M138.3,91.9
				c-0.5-0.2-1.3-0.3-2.2-0.3c-1.3,0-2.2,0.5-2.2,1.5l0,0c0,0.8,0.8,1.5,1.8,1.5c1.5,0,2.5-0.8,2.5-2V91.9z"/>
			<path d="M142.3,91.2L142.3,91.2c0-3.2,2.2-5,4.5-5c1.7,0,2.7,0.8,3.3,1.7v-5.2h2.2V96h-2.2v-1.7c-0.7,1-1.7,1.8-3.3,1.8
				C144.5,96.2,142.3,94.4,142.3,91.2 M150.2,91.2L150.2,91.2c0-1.8-1.3-3.2-2.8-3.2c-1.5,0-2.8,1.2-2.8,3.2l0,0
				c0,1.8,1.3,3.2,2.8,3.2C148.8,94.2,150.2,93,150.2,91.2"/>
		</g>
	</g>
</g>
</svg>
