<?xml version="1.0" encoding="utf-8"?>
<!-- Generator: Adobe Illustrator 23.0.3, SVG Export Plug-In . SVG Version: 6.00 Build 0)  -->
<svg version="1.1" id="Capa_1" xmlns="http://www.w3.org/2000/svg" xmlns:xlink="http://www.w3.org/1999/xlink" x="0px" y="0px"
	 viewBox="0 0 192 142" style="enable-background:new 0 0 192 142;" xml:space="preserve">
<style type="text/css">
	.st0{fill-rule:evenodd;clip-rule:evenodd;}
</style>
<g>
	<path class="st0" d="M64.9,68.1C79.2,53.7,97,42.8,116.8,36.5l0,0l0.1-0.1v-0.1l0,0c-5.8-3.6-13-5.8-20.8-5.8
		c-18.7,0-33.8,12.1-33.8,27C62.2,61.3,63.1,64.8,64.9,68.1L64.9,68.1L64.9,68.1C64.8,68.2,64.8,68.2,64.9,68.1L64.9,68.1L64.9,68.1
		z"/>
	<path class="st0" d="M88.9,50.9c0.1-0.1,0-0.2-0.1-0.2l0,0C79,57.6,71,64.9,63.8,74.9l0,0c0,0,0,0,0,0.1l0.1,0.1h0.1l0,0
		C71.2,68,79,61.8,86.3,57l0,0v-0.1v-0.1C86.6,54.4,87.5,52.6,88.9,50.9L88.9,50.9L88.9,50.9z"/>
	<path class="st0" d="M66.6,78.1L66.6,78.1C66.6,78.1,66.6,78.2,66.6,78.1c0,0.1,0,0.2,0.1,0.2h0.1l0,0c5.3-4.8,13.7-11.2,20.7-15.9
		l0,0c0,0,0,0,0-0.1l0,0l0,0v-0.1c-0.6-1-0.9-2.1-1.1-3.3l0,0c0,0,0-0.1-0.1-0.1h-0.1l0,0C79.4,64.1,71.7,71.5,66.6,78.1L66.6,78.1
		C66.6,78.1,66.6,78.2,66.6,78.1c0,0.1,0,0.2,0.1,0.2h0.1l0,0L66.6,78.1L66.6,78.1z"/>
	<path class="st0" d="M91,66c-1-0.6-1.9-1.4-2.6-2.3l0,0c0,0,0,0-0.1,0c0,0,0,0-0.1,0l0,0C82.8,67.6,74.6,75,70,81l0,0
		c0,0,0,0,0,0.1s0,0.1,0.1,0.1h0.1l0,0C76.3,75.9,83.7,71,91,66.2l0,0c0,0,0,0,0-0.1C91,66,91,66,91,66L91,66L91,66z"/>
	<path class="st0" d="M98.9,66.9c-1,0.3-1.9,0.5-3,0.5s-2.2-0.2-3.2-0.6l0,0l0,0h-0.1c-7.3,5-14.5,11.3-19.1,16.6l0,0c0,0,0,0,0,0.1
		s0.1,0.1,0.1,0.1h0.1l0,0C81,78,91,72.1,99.1,67.1l0,0C99.2,66.9,99.1,66.9,98.9,66.9L98.9,66.9L98.9,66.9z"/>
	<path class="st0" d="M88.2,55.7L88.2,55.7c-0.1,0-0.2,0-0.2-0.1l0,0l0,0c3.1-7.2,8.5-9.2,12.5-10.7c7.4-2.8,16.8-5.3,25.3-7l0,0
		l0,0c0.1,0,0.1,0.1,0.1,0.1c0,0.1,0,0.1-0.1,0.1l0,0C113.4,42.5,101.4,46.9,88.2,55.7L88.2,55.7L88.2,55.7z"/>
	<path class="st0" d="M100.2,66.2C100.2,66.3,100.2,66.3,100.2,66.2c-0.1,0-0.2,0-0.2-0.1l0,0l0,0c2.7-7.1,8.6-9.1,11.4-10.2
		c5.8-2.3,13.3-5.1,21.3-7.4l0,0l0,0c0.1,0,0.1,0,0.1,0.1c0,0,0,0.1-0.1,0.1l0,0C121.5,54,109.7,60.2,100.2,66.2L100.2,66.2
		L100.2,66.2z"/>
	<path class="st0" d="M92.9,64.9L92.9,64.9c-0.1,0-0.2,0-0.2-0.1l0,0l0,0c2.6-7.4,11.6-11.2,15.8-12.7c6-2.3,14.8-5.4,22.4-7.1l0,0
		l0,0c0.1,0,0.1,0,0.1,0.1c0,0,0,0.1-0.1,0.1l0,0C120.1,49.6,107.8,55,92.9,64.9L92.9,64.9L92.9,64.9z"/>
	<path class="st0" d="M89.3,60.8C89.3,60.8,89.3,60.9,89.3,60.8c0,0.1,0,0.2,0.1,0.2c0,0,0,0,0.1,0l0,0c13.5-9,25.3-14.2,39.4-19.5
		l0,0l0.1-0.1c0-0.1-0.1-0.1-0.1-0.1l0,0l0,0c-8.2,1.6-21.4,6-23.6,6.8C101.7,49.4,92.3,53.1,89.3,60.8L89.3,60.8z"/>
	<path class="st0" d="M129.4,54.2c0.2,1.1,0.2,2.4,0.2,3.5c0,14.9-15.2,27-33.8,27c-5.2,0-10.1-1-14.5-2.6L81.3,82v-0.1l0,0
		C95,69.5,111.6,60.1,129.2,54l0,0l0,0C129.4,54.1,129.4,54.1,129.4,54.2L129.4,54.2L129.4,54.2z"/>
	<path class="st0" d="M57.4,98.3c0.2-1.2,0.3-2.3-1.1-2.3c-1.7,0-2.2,2.3-2.8,4.8c-0.9,4.1-0.6,4.8,0.9,4.8c0.5,0,1-0.1,1.4-0.2
		l0.6-2.9h-1.5l0.4-2h4.2l-1.4,6.7c-0.8,0.2-2.7,0.4-3.8,0.4c-4.6,0-4.7-1.9-3.7-6.9c0.7-3.3,1.5-6.7,6-6.7c2.7,0,4.1,1.5,3.2,4.2
		h-2.6V98.3z"/>
	<path class="st0" d="M64.8,98.3l-0.2,1.2l0,0c0.7-1.1,1.6-1.4,2.7-1.4l-0.5,2.3c-2.2-0.2-2.5,1.1-2.8,2l-1.1,4.9h-2.6l1.9-9.2
		L64.8,98.3L64.8,98.3z"/>
	<path class="st0" d="M71.7,106.4L71.7,106.4c-0.7,0.8-1.5,1.1-2.4,1.1c-1.2,0-2.1-0.7-1.9-1.9l1.5-7.3h2.5l-1.4,6.3
		c-0.2,0.8-0.2,1.5,0.6,1.5c0.8,0,1.1-0.6,1.2-1.5l1.4-6.3h2.5l-1.5,7.3c-0.2,0.6-0.2,1.2-0.3,1.8h-2.7L71.7,106.4L71.7,106.4z"/>
	<path class="st0" d="M80.2,106c-0.9,0-0.8-1-0.3-3.2c0.4-1.8,0.6-3.1,1.7-3.1c1.1,0,0.8,1.3,0.4,3.1C81.5,105.1,81.1,106,80.2,106
		L80.2,106z M78.2,98.3l-2.8,13.1H78l1.1-4.8l0,0c0.3,0.8,1,1.1,1.9,1.1c2.6,0,3.1-2.8,3.5-4.7c0.4-1.9,1.1-4.8-1.5-4.8
		c-1,0-1.8,0.3-2.4,1.2l0,0l0.2-1L78.2,98.3L78.2,98.3z"/>
	<path class="st0" d="M89.1,106c-1,0-1.1-0.6-0.5-3.4c0.4-1.9,0.7-2.8,1.8-2.8c1.1,0,1,1,0.6,2.8C90.4,105.4,90.1,106,89.1,106
		L89.1,106z M88.8,107.6c3.3,0,4.1-2,4.8-4.9c0.6-2.5,0.6-4.6-2.8-4.6c-3.3,0-4.2,2.1-4.7,4.6C85.4,105.6,85.4,107.6,88.8,107.6
		L88.8,107.6z"/>
	<path class="st0" d="M98.8,100.8c0.7-3.5,1.5-6.7,5.9-6.7c2.8,0,3.6,1.5,2.9,4.4H105c0.4-1.7,0.2-2.4-0.6-2.4c-1.5,0-2,1.5-2.8,4.8
		c-0.7,3.3-0.8,4.8,0.7,4.8c1.3,0,1.5-1.6,1.8-2.7h2.7c-0.7,3.5-2.4,4.6-4.9,4.6C97.4,107.6,98.1,104.3,98.8,100.8L98.8,100.8z"/>
	<polygon class="st0" points="113.2,94.4 110.4,107.4 107.9,107.4 110.7,94.4 	"/>
	<path class="st0" d="M118.1,103c-0.2,1-0.4,3-1.9,3c-0.8,0-0.7-0.8-0.6-1.5C115.9,103,116.8,103,118.1,103L118.1,103z M121,101.1
		c0.3-1.6,0.2-3.1-3-3.1c-1,0-1.9,0.2-2.5,0.6c-0.7,0.4-1.2,1.1-1.4,2.2h2.5c0.2-0.7,0.4-1.4,1.2-1.4c0.9,0,0.9,0.6,0.7,1.4
		l-0.2,0.7c-2.4,0-4.7,0.1-5.4,3.1c-0.3,1.6,0,2.9,1.8,2.9c1.1,0,1.9-0.5,2.7-1.4l0,0l-0.2,1.2h2.4c0.1-0.6,0.1-1.1,0.2-1.7
		L121,101.1L121,101.1z"/>
	<path class="st0" d="M126.2,98.3l-0.2,1.2l0,0c0.7-1.1,1.6-1.4,2.7-1.4l-0.5,2.3c-2.2-0.2-2.5,1.1-2.8,2l-1.1,4.9h-2.5l1.9-9.2
		L126.2,98.3L126.2,98.3z"/>
	<path class="st0" d="M134.9,94.4l-3.4,2.6h-1.1l2.2-2.6H134.9L134.9,94.4z M130.9,107.4h-2.5l1.9-9.2h2.5L130.9,107.4L130.9,107.4z
		"/>
	<path class="st0" d="M137.5,99.1L137.5,99.1c0.7-0.8,1.5-1.1,2.4-1.1c1.2,0,2.1,0.7,1.9,2l-1.5,7.3h-2.5l1.3-6.3
		c0.2-0.8,0.2-1.5-0.6-1.5s-1.1,0.6-1.3,1.5l-1.4,6.3h-2.5l1.9-9.2h2.5L137.5,99.1L137.5,99.1z"/>
</g>
</svg>
