<?xml version="1.0" encoding="utf-8"?>
<!-- Generator: Adobe Illustrator 23.0.3, SVG Export Plug-In . SVG Version: 6.00 Build 0)  -->
<svg version="1.1" id="Layer_1" xmlns="http://www.w3.org/2000/svg" xmlns:xlink="http://www.w3.org/1999/xlink" x="0px" y="0px"
	 viewBox="0 0 192 142" style="enable-background:new 0 0 192 142;" xml:space="preserve">
<g>
	<path d="M78.6,91.6c-1.1,0.4-6.3,0.7-7.6,0.6c-0.6,0-1.4-0.4-1.5-0.7c-0.1-0.2,0.1-0.7,1-1.4c2.8-2.3,4.3-2.7,5.3-2.8
		c0.2,0,0.3,0,0.4,0c0.1,0.4,0.6,0.7,1.1,0.6c0.5-0.1,0.8-0.6,0.7-1.1c-0.1-0.5-0.7-1.5-2.3-1.4c-1.3,0.1-3.1,0.6-6.3,3.2
		c-1.4,1.2-1.9,2.3-1.6,3.4c0.5,1.3,2.2,1.9,3.4,1.9c1.8,0,6.7-0.2,8.1-0.7c0.5-0.2,0.7-0.7,0.6-1.2C79.6,91.8,79.1,91.5,78.6,91.6z
		"/>
	<path d="M97.1,90c0.1-0.2,0.1-0.4,0.1-0.7c-0.1-0.4-0.5-0.7-0.8-0.7c-2.1-3.8-2.6-3.8-3.1-3.8c-0.6,0-1.2,0-2.6,5.7
		c-0.5,0.2-0.7,0.3-0.8,0.3c-0.5,0.2-0.7,0.7-0.5,1.2c0.1,0.4,0.5,0.6,0.8,0.6c-0.1,0.4-0.2,0.9-0.3,1.3C89.7,94.4,90,95,90.6,95
		c0.5,0.1,0.9-0.3,1-0.7c0.2-0.8,0.4-1.7,0.6-2.5c1-0.4,2.2-0.8,3.2-1.1c0.6,1.1,1.2,2.3,1.8,3.4c0.2,0.5,0.8,0.6,1.2,0.4
		s0.6-0.8,0.4-1.2C98.2,92,97.6,90.9,97.1,90z M92.8,89.7c0.2-0.9,0.5-1.8,0.7-2.4c0.3,0.5,0.6,1.1,1,1.8
		C94,89.3,93.4,89.5,92.8,89.7z"/>
	<path d="M91,76.1c-0.2-10.3-1-12.2-2.4-12.2c-1.9,0-2,7.8-2,10.6c-0.1,6.5,0.8,7.2,2.5,7.2C90.6,81.7,91.1,81.5,91,76.1z"/>
	<path d="M87.8,88.1c0,0-0.1,0-0.1,0l-0.1-2.5c0-0.5-0.5-0.9-1-0.9c-0.5,0-0.9,0.5-0.9,1l0.1,2.9c-0.8,0.2-1.7,0.5-2.6,0.7v-2.8
		c0-0.5-0.4-0.9-0.9-0.9c-0.5,0-0.9,0.4-0.9,0.9v3.4c-0.4,0.1-0.6,0.2-0.8,0.2c-0.5,0.1-0.8,0.7-0.6,1.1c0.1,0.4,0.5,0.6,0.9,0.6
		c0.1,0,0.2,0,0.2,0s0.2,0,0.2-0.1v1.7c0,0.5,0.4,0.9,0.9,0.9s0.9-0.4,0.9-0.9v-2.3c0.9-0.3,1.9-0.6,2.6-0.8L86,94
		c0,0.5,0.4,0.9,0.9,0.9h0c0.5,0,0.9-0.5,0.9-1L87.7,90c0.8-0.1,1.1-0.5,1.1-1.1C88.8,88.3,88.2,88,87.8,88.1z"/>
	<path d="M113.9,81.7c2.7,0,1.3-9.9,2.4-9.9c0.8,0,5.2,9.1,7.6,9.1c2.6,0,4.2-3.9,4.2-6.4c0-5.8-3.8-12.8-6.1-12.8
		c-0.6,0-0.7,0.6-0.7,1.2c0,1.9,2.6,8.5,2.6,11c0,0.5,0,1.4-0.5,1.6c-0.6,0.2-6.1-9.8-8.4-9.9c-2.3-0.2-3.6,9.8-3.6,12.2
		C111.7,80,112.1,81.7,113.9,81.7z"/>
	<path d="M101.2,72.9c3,0.3,6.6,1.3,6.6,2.3c0,2.2-7.9,3.1-9.5,3.1c-3.3,0-3.4-1-3.4-1.4c0-0.5,0.6-1.3,1.8-1.3
		c1.3,0,3.8,1.6,5.6,1.6s3.3-0.8,3.3-1.6c0-1.4-5.9-2.2-7.8-2.2c-1.9,0-4.7,0.8-4.7,3.7c0,1.5,2.5,5,9.3,5c6.8,0,8.5-3.9,8.5-5.9
		c0-4.8-4.6-5.4-8.6-5.7c-3-0.2-6.2-0.4-6.2-1.1c0-2.2,14.8-0.6,14.8-3.6c0-1.8-4.6-1.8-7.2-1.8c-1.9,0-11.8,0.2-11.8,5.7
		C92,73.4,97.6,72.5,101.2,72.9z"/>
	<path d="M88.6,61c2.8,0,6.9-2.7,8.2-5.4c0.4,0.2,0.8,0.4,1.3,0.4c1.1,0.2,2.2-0.1,3-0.8c0.8-0.7,1.2-1.8,1.1-2.8
		c-0.1-0.9-0.4-1.8-1-2.4c-1.1-1.1-2.4-1.5-3.5-1.4c-1.1,0.1-2.1,0.8-2.6,1.7c-0.2,0.4-0.4,1-0.4,1.4h0c-0.7-0.7-1.7-1.4-3.2-1.5
		c0.6-0.6,0.9-1.4,0.9-2.3c0-1.1-0.7-2-1.6-2.5c-1.6-1.1-4-0.8-5.3,0.8c-0.7,0.8-0.8,2-0.5,3c0.4,0.9,1.1,1.6,2,2
		c-2.7,1.3-4.4,3.8-4.4,5.4C82.7,58.2,83.9,60.9,88.6,61z M93.7,53.5c1.1,0,1.3,0.9,1.3,1.2c0,2.1-4.2,3.8-6.1,3.8
		c-0.8,0-1.4-0.1-1.9-0.2C88.5,56.6,92,53.5,93.7,53.5z M89.2,53c-1.6,0.9-3.2,2.2-4.3,3.5C84.5,55.1,86.3,53.4,89.2,53z"/>
	<path d="M84.8,70.5c0-11.2-22.6-27.3-42.2-26.7c-4.3,0.1-7.9,0.6-9.6,1.3c-1.4,0.6-2.7,2.2-2.7,3.4c0,1.2,1.4,1.3,2.2,1.3
		c0.8,0,1.6-0.1,1.6-0.6c0-0.7-1.1-0.6-1.1-1.2c0-0.8,4.3-1,6.5-1c18.6,0,39.9,12.8,40,23.7c0,8.5-11,10.4-17.1,10.4
		c-2.2,0-4.3-0.2-6.2-0.6c-0.1-2.7-0.2-8.4-0.3-12c0.7,0,1.3,0,1.9,0c4.5,0,10.4,1.6,10.4,2.6c0,0.9-1.6,1.5-1.6,2.4
		c0,0.6,1.4,0.5,2.7,0.6c0.2,0,2.7-1.4,2.7-3.6c0-3-3.7-6.5-16.3-6.5c-0.1-3.3-0.6-8.6-2.5-8.6c-1.6,0-2,5.8-2.2,9
		c-6.8,1-12.8,3.8-12.8,6.5c0,2.2,4.9,7.8,12.7,11.2c0.1,2.5,0.6,4.2,2.9,4.2c1.6,0,2.2-1.2,2.3-2.4c2.5,0.6,5.3,1,8.2,1
		C75.7,85,84.8,78.9,84.8,70.5z M50.8,79.1c-6.7-2.4-11.3-6.2-11.3-7.4c0-1.9,5.9-2.7,11.4-3C50.8,71.7,50.8,76.1,50.8,79.1z"/>
	<path d="M142.2,78.8c0.1-0.9-1.2-1.9-2.2-1.9s-6.2,1.2-6.6,0.8c-0.4-0.3,0.3-3.3,1-3.6c0.7-0.2,4.8-0.1,5.5-0.2
		c1.9-0.1,1.6-2.7,0.4-2.8c-0.6-0.1-4.3-0.1-4.5-0.4c-0.2-0.4,0.1-2.1,0.5-2.3c0.8-0.4,6.5-0.5,6.9-0.6c0.7-0.2,1.2-0.6,1.4-1.2
		c0.2-0.6-2-3.1-4.6-2.8c-4.5,0.5-10.4,0.5-10.4,1.9c0,1.4,2.7,1.9,2.8,2.3c0.1,0.4-0.4,1.8-0.5,2.3c-0.2,0.5-2.1,0.6-2.3,2
		c0,0.3,0.5,0.8,0.4,1.2c-0.3,1.2-1.2,3.5-1.2,4.5c0,1.5,1.1,4.9,4.2,4.8C137.8,82.8,142.1,79.4,142.2,78.8z"/>
	<path d="M106.9,84.5c-0.5-0.1-1,0.3-1,0.8c0,0.4-0.3,4.9-0.3,6.5c-0.6-0.7-1.2-1.6-1.8-2.4c-0.6-0.8-1.1-1.6-1.6-2.1
		c-0.7-0.9-1.1-1.4-1.9-1.2c-0.7,0.3-0.7,0.5-0.7,4.6c0,3.7,0.1,3.9,0.1,4c0.1,0.4,0.5,0.7,1,0.6s0.8-0.6,0.8-1c0-0.5-0.1-3.1-0.1-5
		c0.3,0.4,0.6,0.8,0.9,1.2c2.2,3,2.7,3.6,3.2,3.8c0.4,0.2,0.8,0.2,1.2,0c0.7-0.5,0.7-1.8,0.8-3.3c0-1.6,0.2-5.1,0.3-5.5
		C107.8,85,107.4,84.5,106.9,84.5z"/>
	<path d="M161.7,71.3c0-5.1-3-6.3-4-6.3c-2.6,0.2-7.8,5.8-10.8,9.6c-0.2-0.4-0.3-0.8-0.3-1.1c0-1.6,3-6.4,3.6-7.6
		c0.6-1.3-0.1-2.9-0.8-2.3c-1.4,1.2-6,6.5-6,11.4c0,1.1,0.3,2.5,1,3.8c-1,3.3-3.5,10.7-3.4,15.1c0,2.3,2.4,4.6,3.8,4.3
		c0.5-0.1,0.6-3.1,1.3-5.2c1-3,2.6-8.3,3.1-10.6C155.4,82.8,161.7,76.5,161.7,71.3z M158,68.7c0.8,0,1.2,0.8,1.2,2.1
		c0,3.8-4.6,6.9-7.9,6.9C153.6,73.8,156.8,68.7,158,68.7z"/>
	<path d="M136.8,92.5c-2.7-0.3-5.5,0.1-6.6,0.3c0,0-0.1,0-0.1,0c0-0.9-0.1-6.4-0.1-6.6c0-0.5-0.4-0.9-0.9-0.9s-0.9,0.4-0.9,0.9
		c0,2.2,0.1,6.4,0.1,6.7c0,1.4,1.1,1.9,2.2,1.7c1-0.2,3.6-0.6,6.1-0.3c0.5,0.1,1-0.3,1-0.8C137.7,93,137.3,92.5,136.8,92.5z"/>
	<path d="M125.5,91.9c-2.2,0.4-3.7,0.6-4.5,0.5c0-0.2-0.1-1.1-0.2-1.4c1.3,0,2.9-0.1,4.1-0.4c0.5-0.1,0.8-0.5,0.8-0.9
		c0-0.5-0.5-0.9-0.9-0.8c-0.8,0.1-2.7,0.3-4.2,0.3c-0.1-0.7-0.1-1-0.1-1.4c0.2,0,0.5,0,0.7,0c0.7,0,4.2-0.1,4.5-0.2
		c0.5-0.2,0.7-0.7,0.6-1.2c-0.1-0.4-0.6-0.7-1-0.6c-0.3,0-3,0.2-4.1,0.2c-1.1,0-1.8,0-2.2,0.4c-0.2,0.1-0.4,0.4-0.4,0.9
		c0,0,0.1,1.7,0.3,3.4v0c0,0.1,0,0.2,0,0.2c0.2,1.3,0.4,2.5,0.6,2.9c0.3,0.4,1,0.5,2,0.4c2-0.2,3.9,0,4.9-0.6
		c0.4-0.3,0.5-0.9,0.3-1.3C126.4,91.7,126,91.8,125.5,91.9z"/>
	<path d="M115.8,85.1c-0.5,0.1-0.9,0.5-0.8,1c0.2,1.5,0.4,4.1,0.6,5.6c-0.3-0.2-0.6-0.5-0.8-0.7l-0.1-0.1c-0.4-0.4-1-1-1.6-1.7
		c-2.3-2.5-2.6-2.7-3.3-2.5c-0.8,0.2-0.8,0.8-0.6,4.1c0.1,1.6,0.2,3.1,0.2,3.1c0,0.5,0.4,0.8,0.9,0.8c0,0,0,0,0.1,0
		c0.5,0,0.9-0.5,0.8-1c-0.1-1.4-0.2-3-0.3-4.2c0.3,0.3,0.5,0.6,0.8,0.8c0.6,0.7,1.3,1.3,1.7,1.7l0.1,0.1c1.5,1.4,2.4,2.3,3.3,1.9
		c0.2-0.1,0.7-0.4,0.7-1.2c0-1.1-0.7-6.8-0.7-7.1C116.7,85.4,116.3,85,115.8,85.1z"/>
</g>
</svg>
