<?xml version="1.0" encoding="utf-8"?>
<!-- Generator: Adobe Illustrator 23.0.3, SVG Export Plug-In . SVG Version: 6.00 Build 0)  -->
<svg version="1.1" id="Layer_1" xmlns="http://www.w3.org/2000/svg" xmlns:xlink="http://www.w3.org/1999/xlink" x="0px" y="0px"
	 viewBox="0 0 192 142" style="enable-background:new 0 0 192 142;" xml:space="preserve">
<g>
	<g>
		<path d="M96,36c-19.3,0-35,15.7-35,35s15.7,35,35,35s35-15.7,35-35C131,51.7,115.3,36,96,36z M96,101.5
			c-16.8,0-30.5-13.7-30.5-30.5S79.2,40.5,96,40.5s30.5,13.7,30.5,30.5C126.5,87.8,112.8,101.5,96,101.5z M107.9,60.8h0.3v-1.3h0.5
			v-0.2h-1.3v0.2h0.5V60.8L107.9,60.8z M109.1,59.6L109.1,59.6l0.4,1.2h0.2l0.4-1.2h0v1.2h0.3v-1.6h-0.4l-0.4,1.2h0l-0.4-1.2h-0.4
			v1.6h0.3L109.1,59.6L109.1,59.6z M101.2,59.2H83.9l-2.6,4.2h17.2L101.2,59.2z M104.7,59.3L94.1,76H82.5l2.7-4.2h7l2.7-4.2H78.7
			L76,71.8h3.8l-5.3,8.4h22.2l8.2-12.9l3,4.5h-2.7l-2.5,4.2h8l2.8,4.2h5.1L104.7,59.3z"/>
	</g>
</g>
</svg>
