<?xml version="1.0" encoding="utf-8"?>
<!-- Generator: Adobe Illustrator 23.0.3, SVG Export Plug-In . SVG Version: 6.00 Build 0)  -->
<svg version="1.1" id="Capa_1" xmlns="http://www.w3.org/2000/svg" xmlns:xlink="http://www.w3.org/1999/xlink" x="0px" y="0px"
	 viewBox="0 0 192 142" style="enable-background:new 0 0 192 142;" xml:space="preserve">
<style type="text/css">
	.st0{fill:#706C6C;}
	.st1{fill:#6F6B6B;}
</style>
<g>
	<path d="M19.3,75.9c0.1-0.2,0.1-0.4,0.2-0.7c0.4-1.6,1.5-2.6,3-3.3c1.4-0.6,2.8-0.7,4.3-0.6c1.1,0.1,2.2,0.4,3.2,0.8
		c0.2,0.1,0.3,0.2,0.3,0.4c0,0.7,0,1.4,0,2.2c-0.5-0.2-1-0.4-1.5-0.6c-1.2-0.4-2.5-0.6-3.8-0.5c-0.8,0.1-1.5,0.3-2,0.9
		c-0.9,1-0.7,2.5,0.5,3.1c0.9,0.5,1.9,0.7,2.8,0.9c1.3,0.3,2.6,0.6,3.8,1.2c1,0.5,1.9,1.2,2.2,2.3c0.5,2-0.2,4.1-2.4,5.2
		c-0.8,0.4-1.7,0.6-2.5,0.7c-1.8,0.2-3.5,0.1-5.2-0.4c-0.8-0.2-1.6-0.6-2.3-1.1c-0.1-0.1-0.2-0.1-0.2-0.2c0-0.9,0-1.8,0-2.7
		c0.6,0.4,1.2,0.8,1.8,1.1c1.2,0.6,2.4,0.9,3.7,1c0.9,0,1.9,0,2.8-0.3c0.8-0.3,1.4-0.8,1.5-1.6c0.1-0.8-0.2-1.4-0.9-1.8
		c-0.8-0.4-1.6-0.5-2.4-0.7c-1.4-0.3-2.8-0.6-4.1-1.2c-1-0.4-1.8-1.1-2.3-2.1c-0.2-0.4-0.2-0.7-0.3-1.1c0-0.1,0-0.1-0.1-0.2
		c0-0.1,0-0.1,0-0.2c0-0.2,0-0.4,0-0.5C19.3,76,19.3,75.9,19.3,75.9z"/>
	<path d="M19.3,96.3c0.1-0.1,0.1-0.3,0.1-0.5c0.3-1,1.2-1.7,2.3-1.8c0.7,0,1.4,0.1,2.1,0.5c0.1,0.1,0.2,0.2,0.1,0.4
		c-0.1,0.2-0.1,0.5-0.3,0.6c-0.2,0.1-0.4-0.2-0.6-0.2c-0.5-0.2-1-0.2-1.4-0.1c-0.5,0.1-0.8,0.4-1,0.9c-0.2,0.5-0.2,1.1,0,1.6
		c0.2,0.7,0.8,1.1,1.6,1.1c0.9,0,0.9,0,0.9-0.9c0-0.4,0-0.4-0.4-0.4c-0.7,0-0.7,0-0.6-0.7c0-0.1,0-0.2,0.2-0.2c0.6,0,1.2,0,1.8,0
		c0.1,0,0.2,0.1,0.2,0.2c0,0.8,0,1.6,0,2.4c0,0.1-0.1,0.2-0.2,0.2c-0.4,0.2-0.9,0.3-1.3,0.3c-0.1,0-0.2-0.1-0.2,0.1c0,0-0.1,0-0.1,0
		c-0.2-0.1-0.3-0.1-0.5,0c-0.1,0-0.1,0-0.2,0c-0.5-0.1-0.9-0.2-1.3-0.4c-0.6-0.4-0.9-1-1-1.7c0-0.1,0-0.1,0-0.2c0,0,0-0.1,0-0.1
		C19.4,96.9,19.4,96.6,19.3,96.3C19.3,96.3,19.3,96.3,19.3,96.3z"/>
	<path d="M132.8,99.6c-0.1-0.1-0.3-0.1-0.4-0.1c-0.9-0.2-1.5-0.9-1.5-1.8c0-1.1,0-2.3,0-3.4c0-0.2,0.1-0.2,0.2-0.2
		c0.3,0,0.5,0,0.8,0c0.2,0,0.2,0.1,0.2,0.2c0,1,0,2.1,0,3.1c0,0.9,0.6,1.4,1.5,1.2c0.5-0.1,0.8-0.5,0.8-1.2c0-1,0-2.1,0-3.1
		c0-0.2,0-0.3,0.3-0.3c0.2,0,0.5,0,0.7,0c0.2,0,0.3,0.1,0.3,0.3c0,1,0,2,0,3.1c0,1.3-0.8,2.1-2,2.2c0,0-0.1,0-0.1,0.1
		c0,0-0.1,0-0.1,0c-0.1,0-0.3,0-0.4,0C132.9,99.6,132.9,99.6,132.8,99.6z"/>
	<path d="M19.3,96.4c0.1,0.3,0.1,0.6,0,0.8C19.3,96.9,19.3,96.6,19.3,96.4z"/>
	<path d="M19.3,76c0.1,0.2,0.1,0.4,0,0.5C19.3,76.4,19.3,76.2,19.3,76z"/>
	<path d="M32.1,74.8c0.9,0,1.7,0,2.6,0c0.2,0,0.2,0.1,0.2,0.2c0.7,2.1,1.4,4.2,2.1,6.3c0.3,1,0.7,2,1,3c0.4-1.1,0.8-2.1,1.1-3.1
		c0.7-2,1.5-4.1,2.2-6.1c0.1-0.2,0.1-0.2,0.3-0.2c0.5,0,0.9,0,1.4,0c0.2,0,0.3,0.1,0.4,0.3c1,3.1,2.1,6.2,3.2,9.3
		c0.2-0.6,0.4-1.1,0.6-1.6c0.9-2.6,1.8-5.1,2.6-7.7c0.1-0.2,0.2-0.3,0.4-0.3c0.7,0,1.3,0,2,0c0.2,0,0.3,0,0.2,0.3
		c-0.9,2.5-1.8,4.9-2.6,7.4c-0.7,1.8-1.3,3.7-2,5.5c-0.1,0.2-0.1,0.2-0.3,0.2c-0.6,0-1.1,0-1.7,0c-0.2,0-0.3,0-0.3-0.2
		c-1-2.9-2-5.8-3.1-8.7c0-0.1,0-0.1-0.1-0.2c-0.9,2.5-1.8,5.1-2.7,7.6c-0.2,0.4-0.3,0.9-0.5,1.3c-0.1,0.2-0.1,0.2-0.3,0.2
		c-0.6,0-1.1,0-1.7,0c-0.2,0-0.3-0.1-0.3-0.2c-1-2.8-2-5.5-2.9-8.3c-0.5-1.5-1.1-3-1.6-4.5C32.1,75,32.1,74.9,32.1,74.8z"/>
	<path d="M96.1,83.2c0.4-0.7,0.8-1.4,1.1-2.2c1.1-2,2.1-4,3.2-6c0.1-0.2,0.2-0.3,0.4-0.3c0.5,0,1.1,0,1.6,0c0.2,0,0.2,0.1,0.2,0.2
		c0,4.3,0,8.6,0,13c0,0.2,0,0.2-0.2,0.2c-0.6,0-1.3,0-1.9,0c-0.2,0-0.2-0.1-0.2-0.3c0-2.3,0-4.6,0-6.9c0-0.3,0-0.7,0-1.1
		c-0.1,0.1-0.2,0.2-0.2,0.3c-1,1.8-2,3.7-3,5.6C97,86,96.9,86,96.7,86c-0.4,0-0.8,0-1.2,0c-0.2,0-0.3-0.1-0.4-0.3
		c-1-1.8-2-3.7-3-5.5c0-0.1-0.1-0.1-0.2-0.3c0,0.2,0,0.3,0,0.4c0,2.1,0,4.1,0,6.2c0,0.5,0,1,0,1.5c0,0.1,0,0.2-0.2,0.2
		c-0.7,0-1.3,0-2,0c-0.1,0-0.2,0-0.2-0.2c0,0,0-0.1,0-0.2c0-4.3,0-8.5,0-12.8c0-0.2,0-0.3,0.3-0.3c0.5,0,1,0,1.5,0
		c0.2,0,0.3,0.1,0.4,0.2C93.2,77.7,94.6,80.4,96.1,83.2z"/>
	<path d="M104,51.2c-1.4,0-2.8,0-4.1,0c-0.2,0-0.3-0.1-0.3-0.3c0-2.8,0-5.5,0-8.3c0-0.2,0.1-0.3,0.3-0.3c2.8,0,5.5,0,8.3,0
		c0.2,0,0.3,0,0.3,0.3c0,2.7,0,5.5,0,8.2c0,0.2-0.1,0.3-0.3,0.3C106.7,51.2,105.3,51.2,104,51.2z"/>
	<path d="M103.9,67c-1.3,0-2.7,0-4,0c-0.3,0-0.3,0-0.3-0.3c0-2.7,0-5.5,0-8.2c0-0.2,0-0.3,0.3-0.3c2.8,0,5.5,0,8.3,0
		c0.2,0,0.3,0.1,0.3,0.3c0,2.7,0,5.5,0,8.2c0,0.2-0.1,0.3-0.3,0.3C106.7,67,105.3,67,103.9,67z"/>
	<path d="M88.2,42.4c1.4,0,2.7,0,4.1,0c0.2,0,0.3,0,0.3,0.3c0,2.8,0,5.5,0,8.3c0,0.2,0,0.3-0.3,0.3c-2.8,0-5.5,0-8.3,0
		c-0.2,0-0.3,0-0.3-0.3c0-2.8,0-5.5,0-8.3c0-0.2,0.1-0.3,0.3-0.3C85.4,42.4,86.8,42.4,88.2,42.4z"/>
	<path d="M83.7,62.6c0-1.4,0-2.8,0-4.1c0-0.2,0.1-0.3,0.3-0.3c2.7,0,5.5,0,8.2,0c0.2,0,0.3,0,0.3,0.3c0,2.7,0,5.5,0,8.2
		c0,0.2-0.1,0.3-0.3,0.3c-2.7,0-5.5,0-8.2,0c-0.2,0-0.3-0.1-0.3-0.3C83.7,65.4,83.7,64,83.7,62.6z"/>
	<path d="M105.2,81.4c0-2.1,0-4.3,0-6.4c0-0.3,0.1-0.3,0.3-0.3c2.8,0,5.7,0,8.5,0c0.3,0,0.3,0.1,0.3,0.3c0,0.5,0,1,0,1.6
		c0,0.2-0.1,0.3-0.3,0.3c-2,0-3.9,0-5.9,0c-0.3,0-0.3,0.1-0.3,0.3c0,0.9,0,1.9,0,2.8c0,0.2,0.1,0.2,0.2,0.2c1.9,0,3.7,0,5.6,0
		c0.2,0,0.3,0,0.3,0.3c0,0.5,0,1,0,1.6c0,0.2,0,0.3-0.3,0.3c-1.9,0-3.7,0-5.6,0c-0.2,0-0.3,0-0.3,0.3c0,1,0,2.1,0,3.1
		c0,0.2,0.1,0.3,0.3,0.3c2,0,3.9,0,5.9,0c0.3,0,0.3,0.1,0.3,0.3c0,0.5,0,1.1,0,1.6c0,0.2,0,0.2-0.2,0.2c-2.9,0-5.8,0-8.7,0
		c-0.2,0-0.2-0.1-0.2-0.3C105.2,85.7,105.2,83.6,105.2,81.4z"/>
	<path d="M80.8,77.7c-0.7-0.4-1.5-0.6-2.2-0.8c-0.9-0.2-1.9-0.3-2.8,0c-0.9,0.3-1.4,1-1.2,1.9c0.1,0.4,0.3,0.6,0.6,0.8
		c0.8,0.4,1.6,0.6,2.5,0.8c1,0.2,2,0.5,2.9,1c0.9,0.5,1.5,1.1,1.7,2.1c0.3,1.9-0.6,3.4-2.3,4.2c-1.2,0.5-2.4,0.6-3.7,0.5
		c-1.3-0.1-2.5-0.4-3.6-0.9c-0.3-0.1-0.4-0.3-0.4-0.6c0-0.7,0-1.3,0-2c0.1-0.1,0.1,0,0.2,0.1c1,0.6,2.1,1.1,3.3,1.3
		c1,0.1,1.9,0.2,2.8-0.2c0.7-0.3,1.1-0.8,1.1-1.5c0-0.5-0.2-0.8-0.7-1c-0.7-0.4-1.5-0.5-2.3-0.7c-1-0.2-2-0.5-2.9-0.9
		c-2.5-1.2-2.3-4.2-0.9-5.6c0.8-0.9,1.9-1.3,3.1-1.5c1.6-0.2,3.2,0,4.7,0.6c0.2,0.1,0.2,0.2,0.2,0.4C80.8,76.3,80.8,77,80.8,77.7z"
		/>
	<path d="M68.4,77.7c-0.7-0.4-1.5-0.6-2.2-0.8c-0.9-0.2-1.9-0.3-2.8,0c-0.6,0.2-1.1,0.6-1.2,1.3c-0.1,0.7,0.1,1.2,0.7,1.5
		c0.7,0.3,1.4,0.5,2.1,0.7c1,0.2,1.9,0.5,2.9,0.9c0.9,0.4,1.7,1.1,1.9,2.1c0.4,1.8-0.5,3.6-2.3,4.3c-1.2,0.5-2.4,0.6-3.7,0.5
		c-1.3-0.1-2.5-0.4-3.7-1c-0.2-0.1-0.3-0.2-0.3-0.5c0-0.7,0-1.4,0-2.1c0.5,0.3,0.9,0.5,1.4,0.7c1.4,0.7,3,0.9,4.5,0.6
		c0.7-0.1,1.3-0.4,1.5-1.2c0.2-0.6,0-1.1-0.6-1.4c-0.7-0.4-1.5-0.6-2.3-0.7c-0.9-0.2-1.8-0.5-2.6-0.8c-3-1.2-2.6-4.8-0.7-6.2
		c0.9-0.7,2-1,3.1-1.1c1.4-0.1,2.8,0.1,4.1,0.7c0.2,0.1,0.3,0.2,0.3,0.5C68.4,76.4,68.4,77,68.4,77.7z"/>
	<path d="M141.8,74.6c1.3,0,2.4,0.2,3.5,0.7c0.1,0.1,0.2,0.1,0.2,0.3c0,0.6,0,1.3,0,1.9c0,0.2,0,0.2-0.2,0.2
		c-0.9-0.4-1.8-0.7-2.7-0.8c-1.4-0.2-2.7,0-3.7,1.1c-0.5,0.6-0.8,1.4-0.9,2.2c-0.2,1.2-0.2,2.5,0.3,3.7c0.5,1.5,1.6,2.2,3.1,2.3
		c1.4,0.1,2.6-0.3,3.8-0.8c0.3-0.1,0.3-0.1,0.3,0.2c0,0.6,0,1.1,0,1.7c0,0.3-0.1,0.4-0.3,0.5c-1.2,0.5-2.5,0.7-3.8,0.7
		c-1.6-0.1-3.1-0.5-4.3-1.7c-1-1-1.6-2.2-1.8-3.5c-0.3-1.6-0.2-3.1,0.3-4.6c0.9-2.3,2.6-3.6,5-3.9c0.2,0,0.4,0,0.6-0.1
		C141.5,74.6,141.7,74.6,141.8,74.6z"/>
	<path d="M163,80c0-2.6,0-5.2,0-7.8c0-0.3,0.1-0.3,0.3-0.3c0.7,0,1.3,0,2,0c0.2,0,0.3,0.1,0.3,0.3c0,4.5,0,8.9,0,13.4
		c0,0.3,0,0.4,0.3,0.4c2.1,0,4.3,0,6.4,0c0.3,0,0.3,0.1,0.3,0.3c0,0.6,0,1.1,0,1.7c0,0.2,0,0.2-0.2,0.2c-3.1,0-6.1,0-9.2,0
		c-0.2,0-0.2-0.1-0.2-0.3C163,85.2,163,82.6,163,80z"/>
	<path d="M54.3,81.4c0-2.1,0-4.3,0-6.4c0-0.2,0.1-0.3,0.3-0.3c0.7,0,1.4,0,2.1,0c0.2,0,0.2,0.1,0.2,0.2c0,4.3,0,8.6,0,12.9
		c0,0.2,0,0.3-0.2,0.2c-0.7,0-1.4,0-2.1,0c-0.2,0-0.3-0.1-0.3-0.3C54.3,85.7,54.3,83.6,54.3,81.4z"/>
	<path d="M133.2,81.5c0,2.1,0,4.3,0,6.4c0,0.2,0,0.3-0.3,0.3c-0.7,0-1.4,0-2.1,0c-0.2,0-0.2-0.1-0.2-0.3c0-4.3,0-8.6,0-12.9
		c0-0.2,0-0.3,0.3-0.3c0.7,0,1.4,0,2.1,0c0.2,0,0.3,0.1,0.3,0.3C133.2,77.2,133.2,79.3,133.2,81.5z"/>
	<path d="M98.7,96.2c-0.1-1-0.7-1.8-1.7-2.1c-1.1-0.3-2.1-0.2-2.9,0.6c-0.6,0.6-0.8,1.4-0.7,2.3c0.1,1.4,0.9,2.3,2.2,2.5
		c0,0,0.1,0,0.1,0.1c0.1,0,0.1,0,0.2,0c0.1,0,0.2,0,0.4,0c0,0,0.1,0,0.1,0c0-0.1,0.1-0.1,0.1-0.1c0.6-0.1,1.2-0.3,1.6-0.8
		C98.7,98,98.8,97.2,98.7,96.2z M97.3,97.7c-0.2,0.6-0.7,0.9-1.3,0.9c-0.6,0-1.1-0.3-1.3-0.9c-0.2-0.7-0.2-1.3,0-2
		c0.2-0.6,0.7-0.8,1.3-0.8c0.6,0,1.1,0.3,1.3,0.9c0.1,0.3,0.2,0.6,0.1,1C97.5,97.1,97.5,97.4,97.3,97.7z"/>
	<path d="M128.3,79.9c-0.2-1.2-0.6-2.2-1.4-3.1c-1.2-1.4-2.8-1.9-4.6-2c-1.8-0.1-3.7,0-5.5,0c-0.2,0-0.3,0.1-0.3,0.3
		c0,2.1,0,4.3,0,6.4c0,2.1,0,4.3,0,6.4c0,0.2,0,0.3,0.3,0.3c1.6,0,3.2,0,4.8,0c0.7,0,1.3,0,1.9-0.2c2.2-0.5,3.8-1.7,4.5-3.8
		C128.5,82.8,128.5,81.3,128.3,79.9z M125.6,83.1c-0.4,1.6-1.4,2.5-3,2.8c-1.1,0.2-2.2,0.1-3.3,0.1c-0.2,0-0.2-0.1-0.2-0.2
		c0-1.4,0-2.8,0-4.3c0-1.4,0-2.8,0-4.2c0-0.2,0.1-0.3,0.3-0.3c0.9,0,1.9,0,2.8,0.1c1.9,0.2,3.3,1.4,3.5,3.4
		C125.8,81.3,125.8,82.2,125.6,83.1z"/>
	<path d="M161.2,88c-2-4.3-4-8.7-5.9-13c-0.1-0.2-0.2-0.2-0.3-0.2c-0.5,0-1,0-1.6,0c-0.3,0-0.4,0.1-0.5,0.3
		c-1.2,2.6-2.4,5.3-3.6,7.9c-0.8,1.7-1.5,3.4-2.3,5.1c0.9,0,1.7,0,2.5,0c0.2,0,0.2-0.1,0.2-0.2c0.4-0.9,0.8-1.7,1.1-2.6
		c0.1-0.2,0.2-0.3,0.4-0.3c1.9,0,3.9,0,5.8,0c0.2,0,0.3,0.1,0.3,0.2c0.4,0.9,0.8,1.8,1.1,2.6c0,0.1,0.1,0.2,0.2,0.2
		c0.8,0,1.7,0,2.5,0C161.3,88.1,161.2,88,161.2,88z M151.9,82.9c0.7-1.7,1.5-3.4,2.2-5.1c0.7,1.7,1.5,3.4,2.2,5.1
		C154.9,82.9,153.4,82.9,151.9,82.9z"/>
	<path d="M60.4,97.3c0.9-0.3,1.3-0.9,1.2-1.8c-0.1-0.8-0.5-1.3-1.4-1.4c-1-0.1-1.9,0-2.9-0.1c-0.2,0-0.1,0.1-0.1,0.2
		c0,1.7,0,3.4,0,5c0,0.1,0,0.2,0.2,0.2c0.3,0,0.5,0,0.8,0c0.2,0,0.2-0.1,0.2-0.2c0-0.6,0-1.1,0-1.7c0-0.1,0-0.2,0.1-0.2
		c0.4-0.2,1,0.1,1.2,0.4c0.3,0.5,0.5,1,0.8,1.5c0,0.1,0.1,0.2,0.2,0.2c0.4,0,0.8,0,1.3,0C61.3,98.7,61.1,97.8,60.4,97.3z M59.9,96.4
		c-0.5,0.1-1,0-1.4,0.1c-0.1,0-0.1-0.1-0.1-0.2c0-0.4,0-0.8,0-1.1c0-0.1,0.1-0.2,0.2-0.2c0.2,0,0.4,0,0.6,0c0.2,0,0.5,0,0.8,0
		c0.4,0.1,0.5,0.3,0.5,0.7C60.4,96.1,60.2,96.3,59.9,96.4z"/>
	<path d="M170.9,94.1c-0.8,0-1.6,0-2.4,0c-0.2,0-0.2,0.1-0.2,0.2c0,0.8,0,1.7,0,2.5c0,0.8,0,1.6,0,2.4c0,0.2,0,0.3,0.3,0.3
		c0.2,0,0.4,0,0.7,0c0.2,0,0.3,0,0.3-0.3c0-0.5,0-1,0-1.5c0-0.2,0.1-0.2,0.2-0.2c0.4,0,0.8,0,1.1,0c0.8,0,1.5-0.4,1.7-1
		C173,95.2,172.2,94.1,170.9,94.1z M171.1,96.5c-0.5,0.2-1,0.1-1.5,0.1c-0.1,0-0.1-0.1-0.1-0.2c0-0.2,0-0.4,0-0.6
		c0-0.2-0.1-0.5,0.1-0.7c0.1-0.1,0.5,0,0.7,0c0.3,0,0.6,0,0.8,0.1c0.3,0.1,0.4,0.3,0.4,0.7C171.5,96.1,171.3,96.4,171.1,96.5z"/>
</g>
</svg>
