<?xml version="1.0" encoding="utf-8"?>
<!-- Generator: Adobe Illustrator 23.0.3, SVG Export Plug-In . SVG Version: 6.00 Build 0)  -->
<svg version="1.1" id="Layer_1" xmlns="http://www.w3.org/2000/svg" xmlns:xlink="http://www.w3.org/1999/xlink" x="0px" y="0px"
	 viewBox="0 0 192 142" style="enable-background:new 0 0 192 142;" xml:space="preserve">
<g>
	<g>
		<path d="M41.7,90.5h3.3c2,0,3.2,1.1,3.2,2.7v0c0,1.8-1.5,2.8-3.4,2.8h-1.7v2.6h-1.5C41.7,98.6,41.7,90.5,41.7,90.5z M45,94.7
			c1.1,0,1.8-0.6,1.8-1.4v0c0-0.9-0.7-1.4-1.8-1.4h-1.7v2.9L45,94.7L45,94.7z"/>
		<path d="M53,90.5h1.5v6.8h4.4v1.3H53V90.5z"/>
		<path d="M66.4,90.4h1.4l3.7,8.1h-1.6l-0.9-2h-4l-0.9,2h-1.5L66.4,90.4z M68.5,95.3l-1.5-3.2l-1.4,3.2H68.5z"/>
		<path d="M75.9,90.5h1.4l4.5,5.6v-5.6h1.5v8.1H82l-4.6-5.7v5.7h-1.5L75.9,90.5L75.9,90.5z"/>
		<path d="M88.4,90.5h6.2v1.3h-4.8v2.1h4.2v1.3h-4.2v2.2h4.8v1.3h-6.3L88.4,90.5L88.4,90.5z"/>
		<path d="M101.6,91.8h-2.7v-1.3h6.8v1.3h-2.7v6.8h-1.5L101.6,91.8L101.6,91.8z"/>
		<path d="M113.6,90.4h1.4l3.7,8.1h-1.6l-0.9-2h-4l-0.9,2h-1.5L113.6,90.4z M115.7,95.3l-1.5-3.2l-1.4,3.2H115.7z"/>
		<path d="M123.3,90.5h3.8c1.1,0,1.9,0.3,2.4,0.8c0.4,0.4,0.7,1,0.7,1.7v0c0,1.3-0.8,2.1-2,2.4l2.3,3.1h-1.7l-2.1-2.8h-1.9v2.8h-1.5
			V90.5z M126.9,94.5c1.1,0,1.7-0.5,1.7-1.4v0c0-0.9-0.7-1.3-1.7-1.3h-2.2v2.7L126.9,94.5L126.9,94.5z"/>
		<path d="M135.3,90.5h1.5v8.1h-1.5V90.5z"/>
		<path d="M141.5,94.5L141.5,94.5c0-2.3,1.8-4.2,4.4-4.2s4.4,1.9,4.4,4.2v0c0,2.3-1.8,4.2-4.4,4.2C143.4,98.7,141.5,96.8,141.5,94.5
			z M148.8,94.5L148.8,94.5c0-1.6-1.2-2.9-2.9-2.9c-1.7,0-2.8,1.3-2.8,2.9v0c0,1.6,1.2,2.9,2.9,2.9
			C147.6,97.4,148.8,96.1,148.8,94.5z"/>
	</g>
	<g>
		<path d="M41.4,106.5L41.4,106.5c0-1.2,0.9-2.1,2.2-2.1c0.8,0,1.2,0.2,1.7,0.6l-0.6,0.7c-0.3-0.3-0.6-0.4-1.1-0.4
			c-0.7,0-1.2,0.6-1.2,1.3v0c0,0.7,0.5,1.3,1.3,1.3c0.3,0,0.6-0.1,0.9-0.2V107h-0.9v-0.8h1.8v1.8c-0.4,0.4-1,0.6-1.8,0.6
			C42.4,108.6,41.4,107.8,41.4,106.5z"/>
		<path d="M46.9,107.7L46.9,107.7c0-0.7,0.5-1,1.3-1c0.3,0,0.6,0.1,0.8,0.1v-0.1c0-0.4-0.2-0.6-0.7-0.6c-0.4,0-0.6,0.1-0.9,0.2
			l-0.2-0.7c0.4-0.2,0.7-0.2,1.3-0.2c0.5,0,0.9,0.1,1.1,0.3c0.2,0.2,0.4,0.6,0.4,1v1.8H49v-0.3c-0.2,0.2-0.5,0.4-1,0.4
			C47.4,108.6,46.9,108.3,46.9,107.7z M49,107.5v-0.2c-0.2-0.1-0.4-0.1-0.6-0.1c-0.4,0-0.6,0.2-0.6,0.4v0c0,0.2,0.2,0.4,0.5,0.4
			C48.7,108,49,107.8,49,107.5z"/>
		<path d="M51.5,104.3h0.9v4.3h-0.9V104.3z"/>
		<path d="M54.1,104.3h1v0.8h-1C54.1,105.1,54.1,104.3,54.1,104.3z M54.1,105.5H55v3.1h-0.9V105.5z"/>
		<path d="M56.7,104.3h0.9v4.3h-0.9V104.3z"/>
		<path d="M59.1,107L59.1,107c0-0.9,0.7-1.6,1.6-1.6c1.1,0,1.6,0.8,1.6,1.7c0,0.1,0,0.2,0,0.2H60c0.1,0.4,0.4,0.6,0.8,0.6
			c0.3,0,0.5-0.1,0.8-0.3l0.5,0.4c-0.3,0.4-0.7,0.6-1.3,0.6C59.8,108.6,59.1,108,59.1,107z M61.4,106.8c-0.1-0.4-0.3-0.7-0.7-0.7
			c-0.4,0-0.6,0.3-0.7,0.7H61.4z"/>
		<path d="M63.5,107L63.5,107c0-0.9,0.8-1.6,1.8-1.6c1,0,1.8,0.7,1.8,1.6v0c0,0.9-0.8,1.6-1.8,1.6C64.3,108.6,63.5,107.9,63.5,107z
			 M66.1,107L66.1,107c0-0.5-0.3-0.9-0.9-0.9c-0.5,0-0.8,0.4-0.8,0.8v0c0,0.5,0.3,0.9,0.9,0.9C65.8,107.9,66.1,107.5,66.1,107z"/>
		<path d="M71,106.5L71,106.5c0-1.2,0.9-2.1,2.2-2.1c0.8,0,1.2,0.2,1.7,0.6l-0.6,0.7c-0.3-0.3-0.6-0.4-1.1-0.4
			c-0.7,0-1.2,0.6-1.2,1.3v0c0,0.7,0.5,1.3,1.3,1.3c0.3,0,0.6-0.1,0.9-0.2V107h-0.9v-0.8h1.8v1.8c-0.4,0.4-1,0.6-1.8,0.6
			C71.9,108.6,71,107.8,71,106.5z"/>
		<path d="M76.5,107.7L76.5,107.7c0-0.7,0.5-1,1.3-1c0.3,0,0.6,0.1,0.8,0.1v-0.1c0-0.4-0.2-0.6-0.7-0.6c-0.4,0-0.6,0.1-0.9,0.2
			l-0.2-0.7c0.4-0.2,0.7-0.2,1.3-0.2c0.5,0,0.9,0.1,1.1,0.3c0.2,0.2,0.4,0.6,0.4,1v1.8h-0.9v-0.3c-0.2,0.2-0.5,0.4-1,0.4
			C77,108.6,76.5,108.3,76.5,107.7z M78.6,107.5v-0.2c-0.2-0.1-0.4-0.1-0.6-0.1c-0.4,0-0.6,0.2-0.6,0.4v0c0,0.2,0.2,0.4,0.5,0.4
			C78.3,108,78.6,107.8,78.6,107.5z"/>
		<path d="M81.1,104.3H82v4.3h-0.9V104.3z"/>
		<path d="M83.6,104.3h1v0.8h-1V104.3z M83.7,105.5h0.9v3.1h-0.9V105.5z"/>
		<path d="M86.2,104.3h0.9v4.3h-0.9V104.3z"/>
		<path d="M88.6,107L88.6,107c0-0.9,0.7-1.6,1.6-1.6c1.1,0,1.6,0.8,1.6,1.7c0,0.1,0,0.2,0,0.2h-2.3c0.1,0.4,0.4,0.6,0.8,0.6
			c0.3,0,0.5-0.1,0.8-0.3l0.5,0.4c-0.3,0.4-0.7,0.6-1.3,0.6C89.4,108.6,88.6,108,88.6,107z M90.9,106.8c-0.1-0.4-0.3-0.7-0.7-0.7
			c-0.4,0-0.6,0.3-0.7,0.7H90.9z"/>
		<path d="M93.3,104.3h1v0.8h-1V104.3z M93.3,105.5h0.9v3.1h-0.9V105.5z"/>
		<path d="M97.3,106.3h1.9v0.8h-1.9V106.3z"/>
		<path d="M101.7,104.5h2c0.5,0,0.9,0.1,1.1,0.4c0.2,0.2,0.3,0.4,0.3,0.7v0c0,0.5-0.3,0.7-0.6,0.9c0.5,0.2,0.8,0.5,0.8,1v0
			c0,0.7-0.6,1.1-1.6,1.1h-2L101.7,104.5L101.7,104.5z M103.5,106.1c0.4,0,0.7-0.1,0.7-0.4v0c0-0.3-0.2-0.4-0.6-0.4h-0.9v0.9H103.5z
			 M103.7,107.8c0.4,0,0.7-0.1,0.7-0.4v0c0-0.3-0.2-0.4-0.7-0.4h-1.1v0.9L103.7,107.8L103.7,107.8z"/>
		<path d="M106.7,107.5v-2h0.9v1.7c0,0.4,0.2,0.6,0.6,0.6c0.4,0,0.6-0.2,0.6-0.6v-1.7h0.9v3.1h-0.9v-0.4c-0.2,0.3-0.5,0.5-1,0.5
			C107.1,108.6,106.7,108.2,106.7,107.5z"/>
		<path d="M111.1,107L111.1,107c0-0.9,0.7-1.6,1.6-1.6c1.1,0,1.6,0.8,1.6,1.7c0,0.1,0,0.2,0,0.2H112c0.1,0.4,0.4,0.6,0.8,0.6
			c0.3,0,0.5-0.1,0.8-0.3l0.5,0.4c-0.3,0.4-0.7,0.6-1.3,0.6C111.8,108.6,111.1,108,111.1,107z M113.4,106.8
			c-0.1-0.4-0.3-0.7-0.7-0.7c-0.4,0-0.6,0.3-0.7,0.7H113.4z"/>
		<path d="M115.6,105.5h0.9v0.4c0.2-0.3,0.5-0.5,1-0.5c0.7,0,1.1,0.4,1.1,1.2v2h-0.9v-1.7c0-0.4-0.2-0.6-0.6-0.6
			c-0.4,0-0.6,0.2-0.6,0.6v1.7h-0.9L115.6,105.5L115.6,105.5z"/>
		<path d="M119.9,107L119.9,107c0-0.9,0.8-1.6,1.8-1.6c1,0,1.8,0.7,1.8,1.6v0c0,0.9-0.8,1.6-1.8,1.6
			C120.7,108.6,119.9,107.9,119.9,107z M122.5,107L122.5,107c0-0.5-0.3-0.9-0.9-0.9c-0.5,0-0.8,0.4-0.8,0.8v0c0,0.5,0.3,0.9,0.9,0.9
			C122.2,107.9,122.5,107.5,122.5,107z"/>
		<path d="M124.5,108.2l0.4-0.6c0.4,0.2,0.7,0.4,1,0.4c0.3,0,0.4-0.1,0.4-0.2v0c0-0.2-0.3-0.3-0.7-0.4c-0.5-0.1-1-0.3-1-0.9v0
			c0-0.6,0.5-1,1.2-1c0.4,0,0.9,0.1,1.2,0.4l-0.4,0.6c-0.3-0.2-0.6-0.3-0.9-0.3c-0.2,0-0.3,0.1-0.3,0.2v0c0,0.2,0.3,0.3,0.7,0.4
			c0.5,0.1,1,0.4,1,0.9v0c0,0.7-0.5,1-1.2,1C125.4,108.6,124.9,108.5,124.5,108.2z"/>
		<path d="M132.9,104.5h0.9l1.8,4.1h-1l-0.4-0.9h-1.8l-0.4,0.9h-1L132.9,104.5z M133.9,106.9l-0.6-1.3l-0.6,1.3H133.9z"/>
		<path d="M136.8,104.3h1v0.8h-1V104.3z M136.9,105.5h0.9v3.1h-0.9V105.5z"/>
		<path d="M139.5,105.5h0.9v0.6c0.2-0.4,0.5-0.7,1-0.7v0.9h0c-0.6,0-1,0.4-1,1.1v1.2h-0.9L139.5,105.5L139.5,105.5z"/>
		<path d="M142.6,107L142.6,107c0-0.9,0.7-1.6,1.6-1.6c1.1,0,1.6,0.8,1.6,1.7c0,0.1,0,0.2,0,0.2h-2.3c0.1,0.4,0.4,0.6,0.8,0.6
			c0.3,0,0.5-0.1,0.8-0.3l0.5,0.4c-0.3,0.4-0.7,0.6-1.3,0.6C143.3,108.6,142.6,108,142.6,107z M144.9,106.8
			c-0.1-0.4-0.3-0.7-0.7-0.7c-0.4,0-0.6,0.3-0.7,0.7H144.9z"/>
		<path d="M147,108.2l0.4-0.6c0.4,0.2,0.7,0.4,1,0.4c0.3,0,0.4-0.1,0.4-0.2v0c0-0.2-0.3-0.3-0.7-0.4c-0.5-0.1-1-0.3-1-0.9v0
			c0-0.6,0.5-1,1.2-1c0.4,0,0.9,0.1,1.2,0.4l-0.4,0.6c-0.3-0.2-0.6-0.3-0.9-0.3c-0.2,0-0.3,0.1-0.3,0.2v0c0,0.2,0.3,0.3,0.7,0.4
			c0.5,0.1,1,0.4,1,0.9v0c0,0.7-0.5,1-1.2,1C147.9,108.6,147.4,108.5,147,108.2z"/>
	</g>
	<path d="M160.5,85.5c-0.9-0.1-1.9-0.2-2.8-0.2c-2.9-0.3-5.9-0.6-8.8-0.8c-1.9-0.2-3.8-0.2-5.7-0.3c-2.2-0.1-4.3-0.3-6.5-0.4
		c-1.6-0.1-3.2-0.1-4.8-0.2c-2-0.1-4.1-0.2-6.1-0.2s-4.1-0.1-6.1-0.2c-4.1-0.1-8.1-0.2-12.2-0.2c-1.7,0-3.4-0.1-5.1-0.1
		c-3.9,0-7.8,0-11.6,0c-2,0-3.9,0-5.9,0c-2.7,0-5.4,0.1-8.1,0.1c-3,0.1-6,0.2-8.9,0.3c-2.3,0.1-4.7,0.1-7,0.2
		c-2.7,0.1-5.5,0.3-8.2,0.5c-1.8,0.1-3.6,0.2-5.3,0.3c-2.6,0.2-5.2,0.4-7.8,0.6c-1.8,0.1-3.6,0.3-5.4,0.5c-0.9,0.1-1.8,0.2-2.7,0.2
		c0,0,0-0.1,0-0.1c0.5-0.1,1.1-0.1,1.6-0.2c2.3-0.3,4.5-0.6,6.8-0.9c3.1-0.4,6.2-0.7,9.2-1c2.1-0.2,4.1-0.3,6.2-0.5
		c2-0.1,3.9-0.3,5.9-0.4c2.2-0.1,4.5-0.3,6.7-0.4c3.2-0.1,6.3-0.3,9.5-0.4c1.9-0.1,3.8-0.1,5.7-0.1c2,0,3.9-0.1,5.9-0.1
		c2.3,0,4.7-0.2,7-0.2c3.8,0,7.5,0.1,11.2,0.2c3.6,0.1,7.2,0.1,10.8,0.3c2.9,0.1,5.7,0.2,8.6,0.4c3.6,0.2,7.2,0.5,10.9,0.8
		c3.4,0.3,6.9,0.5,10.3,0.9c2.4,0.2,4.8,0.6,7.1,0.9c1.7,0.2,3.5,0.4,5.2,0.7c0.1,0,0.2,0,0.3,0.1C160.5,85.4,160.5,85.4,160.5,85.5
		z"/>
	<path d="M91.8,57.7c1.2,0.6,2.2,1,3.3,1.6c0.5,0.3,1,0.3,1.5,0c1-0.5,2.1-1,3.2-1.5c0,0.1,0,0.2-0.1,0.2c-0.6,0.9-1.3,1.8-1.9,2.7
		c-0.2,0.3-0.1,0.5,0.1,0.7c0.7,1.1,1.5,2.1,2.2,3.2c0,0,0,0.1,0,0.2c-0.8-0.4-1.6-0.8-2.4-1.3c-0.5-0.3-1-0.6-1.6-0.8
		c-0.1-0.1-0.4,0-0.5,0.1c-1.2,0.6-2.5,1.3-3.7,2c-0.1,0-0.1,0-0.3,0.1c0.5-0.8,1-1.4,1.4-2.1c0.3-0.5,0.9-1,0.9-1.5
		c0-0.5-0.5-1-0.9-1.5C92.7,59.1,92.2,58.5,91.8,57.7z"/>
	<path d="M91.8,67.5c0.6,0.3,1.1,0.5,1.6,0.8c0.7,0.3,1.4,0.6,2,1c0.3,0.1,0.5,0.2,0.8,0c1.1-0.5,2.2-1.1,3.3-1.6c0.1,0,0.1,0,0.3,0
		c-0.3,0.5-0.6,0.9-0.9,1.3c-0.4,0.5-0.7,1-1.1,1.5c-0.3,0.3-0.2,0.5,0,0.9c0.7,1,1.5,2.1,2.2,3.2c0,0,0,0.1,0,0.1
		c-0.8-0.4-1.5-0.8-2.3-1.2c-0.5-0.3-1-0.6-1.6-0.8c-0.2-0.1-0.4,0-0.6,0.1c-1.2,0.6-2.5,1.3-3.7,1.9c0,0-0.1,0-0.1,0
		c0.4-0.6,0.7-1.1,1.1-1.6c0.4-0.6,0.7-1.1,1.1-1.6c0.2-0.2,0.2-0.4,0-0.6C93.2,69.6,92.5,68.6,91.8,67.5z"/>
	<path d="M85.8,75.1c-1.1-0.6-2.3-1.2-3.4-1.8c-0.2-0.1-0.4-0.1-0.6,0c-1.1,0.7-2.3,1.4-3.4,2.1c-0.1,0-0.1,0.1-0.3,0.1
		c0.6-0.9,1.1-1.6,1.6-2.4c0.2-0.4,0.5-0.7,0.8-1.1c0.2-0.2,0.2-0.4,0-0.6c-0.5-0.9-1-1.7-1.5-2.7c1,0.4,2,0.8,2.9,1.3
		c0.3,0.2,0.6,0.1,0.9-0.1c1.1-0.6,2.3-1.2,3.5-1.8c-0.7,1-1.4,2-2.2,3c-0.2,0.3-0.2,0.5,0,0.8c0.6,1,1.2,2,1.9,3
		C85.9,75,85.8,75,85.8,75.1z"/>
	<path d="M112.9,68.8c-0.5,1-1,1.8-1.5,2.7c-0.1,0.2-0.1,0.4,0,0.6c0.7,1,1.4,2,2.1,3.1c0.1,0.1,0.1,0.2,0.1,0.4
		c-1.2-0.7-2.3-1.4-3.5-2.1c-0.3-0.2-0.6-0.2-1,0c-1,0.5-2,1-2.9,1.5c-0.1,0.1-0.2,0.1-0.4,0.1c0.7-1.1,1.3-2.1,1.9-3.1
		c0.2-0.3,0.2-0.5,0-0.8c-0.7-0.9-1.4-1.9-2.1-3c0.5,0.3,1,0.5,1.5,0.8c0.7,0.4,1.4,0.7,2,1.1c0.3,0.2,0.6,0.2,0.9,0
		C110.9,69.7,111.8,69.3,112.9,68.8z"/>
	<path d="M79.4,59.1c0.9,0.4,1.9,0.8,2.8,1.2c0.4,0.2,0.7,0.2,1.1-0.1c1.1-0.6,2.2-1.2,3.3-1.8c-0.7,1-1.3,1.9-2,2.9
		c-0.3,0.4-0.3,0.6,0,1c0.6,0.9,1.2,1.9,1.9,3c-0.9-0.4-1.6-0.8-2.4-1.2c-0.5-0.2-1-0.7-1.5-0.6c-0.5,0-0.9,0.5-1.4,0.8
		c-0.8,0.5-1.7,1-2.6,1.5c0-0.1,0-0.2,0.1-0.2c0.7-1.1,1.5-2.2,2.2-3.3c0.1-0.1,0.1-0.4,0-0.5c-0.4-0.8-0.9-1.7-1.4-2.5
		C79.4,59.3,79.5,59.2,79.4,59.1z"/>
	<path d="M105.1,58.4c1.2,0.7,2.3,1.3,3.4,1.9c0.4,0.2,0.6,0.2,1,0c0.9-0.4,1.8-0.8,2.8-1.3c-0.2,0.4-0.4,0.8-0.6,1.1
		c-0.3,0.5-0.6,1.1-0.9,1.6c-0.1,0.2-0.1,0.4,0,0.6c0.7,1.1,1.5,2.1,2.2,3.2c0,0,0,0.1,0.1,0.2c-0.6-0.4-1.1-0.7-1.7-1
		c-0.7-0.4-1.3-0.8-2-1.2c-0.2-0.1-0.4-0.1-0.6,0c-1.1,0.5-2.2,1.1-3.3,1.6c-0.1,0-0.1,0-0.3,0.1c0.3-0.6,0.6-1.1,0.9-1.6
		c0.3-0.5,0.6-1,1-1.5c0.2-0.3,0.2-0.5,0-0.7c-0.7-0.9-1.3-1.9-2-2.8C105.2,58.6,105.2,58.5,105.1,58.4z"/>
	<path d="M120.4,75.8c0.4-0.8,0.8-1.6,1.2-2.4c0.1-0.3,0.2-0.5,0-0.8c-0.7-1.2-1.3-2.3-1.9-3.6c0.5,0.4,1,0.7,1.5,1.1
		c0.6,0.4,1.1,0.8,1.7,1.2c0.1,0.1,0.4,0.1,0.5,0c0.7-0.4,1.4-0.9,2.1-1.4c0.1,0,0.1-0.1,0.3-0.1c-0.4,0.9-0.7,1.8-1,2.6
		c-0.1,0.2-0.1,0.6,0,0.8c0.4,1.1,0.9,2.1,1.3,3.1c0,0,0,0.1,0,0.2c-0.9-0.9-1.8-1.7-2.7-2.5C122.4,74.6,121.5,75.3,120.4,75.8
		C120.5,75.9,120.5,75.8,120.4,75.8z"/>
	<path d="M66,69.7c0.9,0.6,1.6,1.1,2.4,1.6c0.3,0.2,0.4,0.2,0.7,0c0.5-0.4,1-0.7,1.5-1.1c0.5-0.4,1-0.7,1.6-1
		c-0.1,0.2-0.2,0.3-0.3,0.5c-0.6,1-1.1,2-1.7,3.1c-0.1,0.2-0.1,0.4,0,0.6c0.3,0.8,0.7,1.6,1.1,2.4c0,0.1,0.1,0.1,0.1,0.3
		c-0.9-0.6-1.8-1.2-2.6-1.7c-0.3-0.2-0.5-0.2-0.7,0.1c-0.7,0.7-1.4,1.3-2.1,1.9c-0.1,0.1-0.2,0.2-0.4,0.3c0.5-1.2,0.9-2.2,1.4-3.3
		c0.2-0.4,0.2-0.7,0-1.1C66.6,71.4,66.3,70.6,66,69.7z"/>
	<path d="M68.2,61.2c0.5,0.3,1.1,0.5,1.6,0.8c0.4,0.2,0.8,0.2,1.2-0.1c0.9-0.7,1.9-1.3,2.9-1.9c-0.3,0.5-0.7,1-1,1.5
		c-0.4,0.5-0.8,1.1-1.1,1.6c-0.1,0.2-0.1,0.4,0,0.6c0.4,0.9,0.8,1.8,1.3,2.8c-0.9-0.5-1.7-0.9-2.5-1.3c-0.4-0.2-0.6-0.2-0.9,0.1
		c-0.9,0.7-1.8,1.4-2.7,2.1c0-0.2,0-0.2,0.1-0.3c0.6-1,1.3-2,1.9-3.1c0.1-0.2,0.1-0.4,0-0.6C68.7,62.7,68.4,62,68.2,61.2
		C68.2,61.2,68.2,61.2,68.2,61.2z"/>
	<path d="M123.7,61.1c-0.3,0.9-0.6,1.6-0.8,2.3c-0.1,0.2-0.1,0.6,0.1,0.8c0.6,1.1,1.3,2.1,1.8,3.2c-0.4-0.3-0.8-0.6-1.2-0.9
		c-0.6-0.4-1.1-0.9-1.7-1.3c-0.1-0.1-0.4-0.1-0.5,0c-0.8,0.4-1.7,0.9-2.6,1.4c0.2-0.5,0.4-0.9,0.6-1.3c0.2-0.5,0.5-1,0.7-1.5
		c0.1-0.2,0.1-0.5-0.1-0.6c-0.7-1.1-1.4-2.1-2.1-3.2c0.7,0.5,1.5,1,2.2,1.5c1.3,0.9,1.3,0.9,2.7,0.2C123,61.4,123.3,61.3,123.7,61.1
		z"/>
	<path d="M99.3,50.3c-0.6,0.7-1.1,1.3-1.6,1.9c-0.2,0.2-0.2,0.4,0,0.6c0.7,0.7,1.3,1.5,1.9,2.3c-0.4-0.2-0.8-0.3-1.2-0.5
		c-0.7-0.3-1.4-0.6-2.1-0.9c-0.2-0.1-0.5-0.1-0.8,0c-1.1,0.5-2.2,1-3.4,1.5c0.3-0.3,0.5-0.7,0.8-1c0.4-0.5,0.8-0.9,1.2-1.4
		c0.2-0.2,0.2-0.3,0-0.5c-0.5-0.6-1.1-1.3-1.5-2c0.4,0.1,0.8,0.3,1.2,0.4c0.6,0.2,1.2,0.4,1.8,0.6c0.2,0.1,0.4,0,0.6,0
		C97.1,51.1,98.1,50.7,99.3,50.3z"/>
	<path d="M79.8,55.7c0.7-0.8,1.4-1.6,2.1-2.4c0.3-0.3,0.3-0.5,0-0.7c-0.4-0.5-0.7-1-1.1-1.6c1,0.2,1.8,0.5,2.7,0.7
		c0.2,0,0.4,0,0.6-0.1c1.1-0.5,2.2-1,3.3-1.4c-0.4,0.4-0.8,0.9-1.2,1.3c-0.3,0.3-0.8,0.7-0.9,1.1c0,0.4,0.5,0.8,0.7,1.1
		c0.3,0.4,0.6,0.8,0.9,1.3c-1.1-0.4-2.1-0.7-3.1-1.1c-0.2-0.1-0.4,0-0.6,0c-1,0.5-2,1.1-3,1.7C80,55.6,79.9,55.7,79.8,55.7
		C79.8,55.7,79.8,55.7,79.8,55.7z"/>
	<path d="M111,51c-0.3,0.5-0.7,1-1,1.4c-0.2,0.3-0.2,0.4,0,0.7c0.7,0.8,1.4,1.6,2,2.4c0,0,0,0.1,0.1,0.2c-1-0.6-2-1-3-1.6
		c-0.6-0.4-1.1-0.3-1.6-0.1c-0.8,0.3-1.6,0.6-2.5,0.9c0.4-0.5,0.7-0.9,0.9-1.3c0.3-0.4,0.7-0.8,0.7-1.2c0-0.4-0.6-0.7-0.9-1
		c-0.4-0.4-0.9-0.8-1.3-1.2c0,0,0.1-0.1,0.1-0.1c0.5,0.2,1.1,0.5,1.6,0.7c0.6,0.3,1.2,0.6,1.8,0.8c0.3,0.1,0.8,0,1.2-0.1
		C109.7,51.3,110.3,51.1,111,51C110.9,51,110.9,51,111,51z"/>
	<path d="M60,77.4c-0.6-0.4-1.1-0.6-1.5-0.9c-0.2-0.2-0.4-0.1-0.6,0c-0.5,0.5-1,1-1.7,1.5c0.1-0.2,0.1-0.3,0.1-0.4
		c0.3-0.8,0.6-1.6,0.9-2.4c0.1-0.2,0-0.4,0-0.6c-0.2-0.9-0.4-1.7-0.6-2.7c0.6,0.5,1.1,1,1.7,1.5c0.8-0.8,1.6-1.5,2.4-2.3
		c0,0,0,0,0.1,0c-0.2,0.4-0.4,0.8-0.6,1.2c-0.2,0.4-0.3,0.9-0.6,1.3c-0.5,0.8-0.5,1.5-0.1,2.3C59.7,76.4,59.8,76.9,60,77.4z"/>
	<path d="M131.8,77.5c0.3-0.9,0.5-1.6,0.8-2.3c0.1-0.2,0-0.5,0-0.7c-0.5-1-1-2-1.4-3c0-0.1,0-0.1,0-0.3c0.9,0.8,1.7,1.5,2.5,2.3
		c0.5-0.5,1-0.9,1.5-1.4c0,0,0.1,0,0.1,0.1c-0.1,0.6-0.2,1.2-0.4,1.8c-0.4,0.9-0.1,1.7,0.2,2.5c0.2,0.5,0.4,1.1,0.6,1.7
		c-0.6-0.5-1.1-0.9-1.6-1.4c-0.2-0.2-0.5-0.3-0.8,0C132.8,76.9,132.3,77.1,131.8,77.5z"/>
	<path d="M70.6,53.1c0.7,0.1,1.2,0.2,1.8,0.3c0.2,0,0.5,0,0.7-0.1c0.9-0.5,1.8-1.1,2.7-1.6c0,0,0.1,0,0.2,0
		c-0.6,0.7-1.3,1.4-1.9,2.1c-0.3,0.3-0.3,0.5-0.1,0.8c0.3,0.6,0.6,1.1,0.9,1.8c-0.8-0.3-1.5-0.5-2.1-0.7c-0.3-0.1-0.5-0.1-0.7,0.1
		c-0.9,0.7-1.8,1.3-2.7,1.9c0.3-0.3,0.5-0.7,0.8-1c0.4-0.5,0.8-1,1.2-1.6c0.1-0.1,0.1-0.4,0.1-0.6C71,54,70.8,53.6,70.6,53.1z"/>
	<path d="M121.2,53.1c-0.2,0.4-0.3,0.8-0.5,1.2c-0.1,0.3-0.1,0.5,0.1,0.7c0.6,0.8,1.3,1.6,1.8,2.5c-0.1-0.1-0.2-0.1-0.3-0.2
		c-0.8-0.6-1.6-1.1-2.3-1.7c-0.2-0.2-0.5-0.2-0.8-0.1c-0.7,0.3-1.4,0.5-2.2,0.8c0.3-0.6,0.6-1.2,0.9-1.8c0.2-0.3,0.2-0.6-0.1-0.8
		c-0.7-0.7-1.3-1.4-1.9-2.2c0.8,0.4,1.6,0.8,2.2,1.4c0.7,0.5,1.4,0.6,2.2,0.4C120.6,53.2,120.9,53.2,121.2,53.1z"/>
	<path d="M128.3,61.3c0.3,0.4,0.7,0.7,1,1.1c0.4,0.4,0.8,0.7,1.2,1.1c0.2,0.2,0.4,0.2,0.6,0c0.3-0.2,0.6-0.4,1.1-0.7
		c-0.1,0.7-0.2,1.3-0.2,1.9c0,0.3,0,0.6,0.1,0.8c0.5,1,1,1.9,1.4,3c-0.2-0.2-0.4-0.4-0.6-0.6c-0.5-0.5-0.9-1-1.4-1.5
		c-0.2-0.2-0.3-0.2-0.5,0c-0.5,0.4-1,0.7-1.6,0.9c0.2-0.8,0.4-1.5,0.6-2.3c0-0.2,0-0.5-0.1-0.7c-0.6-0.9-1.2-1.9-1.8-2.8
		c0,0,0-0.1-0.1-0.2C128.2,61.3,128.3,61.3,128.3,61.3z"/>
	<path d="M62.2,67.3c-0.5-0.3-0.9-0.6-1.4-0.9c-0.3-0.2-0.5-0.2-0.7,0c-0.5,0.5-1,1-1.4,1.6c-0.1,0.1-0.2,0.3-0.3,0.5
		c-0.1-0.1-0.1-0.1-0.2-0.2c0.5-0.9,0.9-1.9,1.4-2.8c0.2-0.3,0.2-0.6,0.1-1c-0.1-0.5-0.2-1.1-0.3-1.8c0.4,0.3,0.8,0.4,1.1,0.7
		c0.2,0.2,0.4,0.2,0.7,0c0.7-0.6,1.4-1.3,2-1.9c0.1-0.1,0.2-0.1,0.3-0.1c-0.2,0.2-0.3,0.4-0.5,0.6c-0.5,0.8-1,1.6-1.4,2.4
		c-0.1,0.2,0,0.5,0,0.7C61.9,65.9,62.1,66.6,62.2,67.3C62.3,67.3,62.2,67.3,62.2,67.3z"/>
	<path d="M98.9,39.3c-0.6,0.4-1.1,0.8-1.7,1.2c0.7,0.6,1.3,1.1,1.9,1.6c0,0,0,0,0,0.1c-0.8-0.2-1.6-0.2-2.4-0.5
		c-0.8-0.3-1.5,0-2.2,0.2c-0.6,0.2-1.2,0.3-1.9,0.4c0.6-0.5,1.2-1.1,1.9-1.6c-0.5-0.4-1-0.7-1.5-1c0,0,0-0.1,0-0.1
		c0.6,0.1,1.2,0.2,1.9,0.3c0.7,0.2,1.3,0.1,2-0.1C97.4,39.6,98.1,39.5,98.9,39.3z"/>
	<path d="M98.8,44.5c-0.5,0.4-1,0.7-1.6,1.1c0.7,0.6,1.2,1.1,1.8,1.6c0,0,0,0.1,0,0.1c-0.6-0.2-1.2-0.3-1.9-0.5
		c-0.4-0.1-0.7-0.3-1.1-0.3c-0.4,0-0.9,0.1-1.3,0.3c-0.7,0.2-1.5,0.5-2.2,0.6c0.6-0.5,1.2-1,1.9-1.6c-0.6-0.4-1-0.7-1.5-1.1
		c0-0.1,0-0.1,0-0.2c1.9,0.7,3.9,0.6,5.8-0.1C98.8,44.4,98.8,44.4,98.8,44.5z"/>
	<path d="M104.6,47.1c0.5-0.4,0.9-0.9,1.4-1.3c-0.6-0.5-1.2-0.9-1.8-1.3c0,0,0-0.1,0-0.1c1.7,0.8,3.4,1.4,5.3,0.8c0,0.1,0,0.1,0,0.2
		c-0.2,0.2-0.5,0.4-0.7,0.6c-0.2,0.2-0.3,0.3,0,0.6c0.6,0.5,1.2,1,1.8,1.6c-0.5-0.2-1-0.5-1.6-0.7c-0.5-0.2-1-0.4-1.5-0.6
		c-0.2-0.1-0.4-0.1-0.6,0C106.3,46.8,105.5,47,104.6,47.1C104.7,47.1,104.6,47.1,104.6,47.1z"/>
	<path d="M81.3,42.6c0.7-0.6,1.4-1.2,2.2-1.8c-0.4-0.3-0.7-0.6-1-0.9c0-0.1,0-0.1,0-0.2c1.9,0.5,3.6-0.1,5.3-0.9c0,0,0,0.1,0,0.1
		c-0.6,0.4-1.2,0.9-1.8,1.3c0.5,0.4,0.9,0.9,1.4,1.3c0,0,0,0.1,0,0.1c-0.5-0.1-1-0.1-1.5-0.3c-1-0.3-1.8-0.1-2.7,0.4
		C82.7,42.1,82,42.4,81.3,42.6C81.4,42.7,81.4,42.7,81.3,42.6z"/>
	<path d="M103.9,39c0.9,0.3,1.7,0.6,2.6,0.9c0.3,0.1,0.6,0.1,0.9,0.1c0.6,0,1.2-0.1,1.9,0c-0.3,0.3-0.6,0.5-1,0.9
		c0.8,0.6,1.5,1.2,2.2,1.8c0,0,0,0,0,0.1c-0.6-0.3-1.3-0.5-1.9-0.9c-1.1-0.7-2.1-0.5-3.3-0.2c-0.3,0.1-0.6,0.1-1,0.1
		c0.5-0.4,0.9-0.9,1.4-1.3C105,39.9,104.4,39.5,103.9,39C103.8,39,103.9,39,103.9,39z"/>
	<path d="M87.5,44.4c-0.6,0.4-1.1,0.8-1.8,1.3c0.5,0.5,1,0.9,1.6,1.5c-0.9-0.2-1.6-0.3-2.3-0.5c-0.4-0.1-0.7-0.1-1.1,0.1
		c-0.9,0.4-1.8,0.8-2.7,1.2c-0.1,0-0.1,0-0.3,0c0.7-0.5,1.2-1,1.8-1.5c0.4-0.4,0.5-0.4,0-0.7c-0.2-0.2-0.4-0.3-0.7-0.6
		c1,0,1.9,0.1,2.8,0C85.7,45.1,86.6,44.7,87.5,44.4C87.5,44.4,87.5,44.4,87.5,44.4z"/>
	<path d="M50.1,73.5c0.2,0.4,0.5,0.8,0.8,1.2c0.5-0.8,1-1.4,1.5-2.1c0,0,0,0,0.1,0c-0.2,0.6-0.4,1.1-0.6,1.7
		c-0.2,0.5-0.4,0.9-0.5,1.4c-0.1,0.2,0,0.5,0,0.7c0.2,0.8,0.3,1.6,0.5,2.4c0,0.1,0,0.2,0,0.3c-0.5-0.6-0.9-1.1-1.3-1.7
		c-0.4,0.6-0.7,1.2-1,1.8c0,0-0.1,0-0.1,0c0.6-1.9,0.9-3.7,0.4-5.7C50,73.5,50,73.5,50.1,73.5z"/>
	<path d="M142.1,79.1c-0.3-0.5-0.6-1.1-1-1.7c-0.5,0.6-0.8,1.1-1.2,1.6c0,0-0.1,0-0.1,0c0.1-0.5,0.2-0.9,0.3-1.4
		c0.4-1.2,0.2-2.3-0.2-3.5c-0.2-0.5-0.4-1.1-0.5-1.6c0.5,0.7,1,1.3,1.5,2.1c0.3-0.4,0.5-0.8,0.8-1.2c0.1,0,0.1,0,0.2,0
		c-0.5,1.9-0.2,3.8,0.4,5.6C142.2,79.1,142.2,79.1,142.1,79.1z"/>
	<path d="M62.9,53.3c0.5-0.7,0.9-1.3,1.4-2c0.2-0.3,0.4-0.6,0.3-1.1c-0.1-0.3,0-0.6,0-0.8c0.1,0,0.1-0.1,0.2-0.1
		c0.8,0.3,1.3,0,1.9-0.5c0.5-0.5,1.1-0.9,1.7-1.3c-0.2,0.2-0.3,0.4-0.5,0.6c-0.4,0.5-0.7,0.9-1.1,1.4c-0.4,0.4-0.4,0.8-0.3,1.2
		c0.1,0.4,0.2,0.7,0.3,1.2c-0.4-0.2-0.8-0.3-1.2-0.4c-0.2,0-0.4,0-0.6,0.1c-0.5,0.5-1,1-1.6,1.5C63.2,53.2,63.1,53.3,62.9,53.3
		C62.9,53.4,62.9,53.4,62.9,53.3z"/>
	<path d="M63.8,59.2c-0.5-0.2-0.9-0.3-1.2-0.4c-0.3-0.1-0.4-0.1-0.6,0.1c-0.6,0.6-1.3,1.2-2,1.8c0.4-0.6,0.7-1.2,1.2-1.7
		c0.5-0.6,0.7-1.2,0.5-1.9c0-0.1,0-0.3,0-0.5c0.3,0.1,0.6,0.1,0.8,0.1c0.3,0.1,0.5,0,0.7-0.2c0.7-0.6,1.5-1.2,2.2-1.7
		c-0.5,0.6-0.9,1.3-1.5,1.8c-0.6,0.5-0.5,1.1-0.3,1.8C63.6,58.6,63.7,58.8,63.8,59.2z"/>
	<path d="M131.9,60.7c-0.7-0.6-1.3-1.2-2-1.9c-0.2-0.2-0.3-0.3-0.6-0.1c-0.4,0.2-0.8,0.3-1.2,0.5c0.1-0.5,0.2-1,0.3-1.5
		c0-0.2,0-0.6-0.2-0.7c-0.5-0.7-1.1-1.4-1.7-2.2c0.6,0.5,1.3,1,1.9,1.5c0.4,0.4,0.8,0.5,1.4,0.3c0.1,0,0.2,0,0.4-0.1
		c0,0.4,0,0.8,0,1.2c0,0.3,0.1,0.5,0.2,0.8C130.9,59.2,131.4,60,131.9,60.7C131.9,60.7,131.9,60.7,131.9,60.7z"/>
	<path d="M123.6,47.6c0.6,0.5,1.3,1,1.9,1.5c0.4,0.4,0.8,0.5,1.3,0.3c0.1,0,0.3,0,0.5-0.1c0,0.4-0.1,0.8,0,1.1
		c0,0.3,0.1,0.5,0.2,0.8c0.5,0.7,1,1.5,1.4,2.3c-0.3-0.3-0.6-0.6-0.9-0.9c-0.4-0.3-0.7-0.7-1.1-1c-0.1-0.1-0.4-0.1-0.5-0.1
		c-0.4,0.1-0.8,0.3-1.2,0.4c0.1-0.5,0.1-1,0.3-1.5c0.1-0.3,0-0.5-0.2-0.7C124.7,49.1,124.1,48.4,123.6,47.6
		C123.5,47.6,123.6,47.6,123.6,47.6z"/>
	<path d="M54.3,68.7c-0.3-0.3-0.5-0.4-0.7-0.6c-0.5-0.4-0.5-0.4-0.8,0.1c-0.3,0.5-0.6,1-1,1.4c0.6-1.6,1.4-3.2,1.2-5
		c0,0,0.1,0,0.1,0c0.1,0.2,0.3,0.4,0.5,0.7c0.7-0.9,1.3-1.6,2-2.4c0,0,0.1,0,0.1,0c-0.1,0.2-0.2,0.5-0.4,0.7
		c-0.4,0.8-0.8,1.6-1.2,2.3c0,0.1-0.1,0.2-0.1,0.3C54.1,67,54.2,67.8,54.3,68.7z"/>
	<path d="M136.2,62.8c0.5,0.6,1,1.2,1.5,1.8c0.4,0.5,0.4,0.5,0.8,0.1c0.1-0.1,0.1-0.1,0.3-0.2c-0.2,1.9,0.5,3.6,1.2,5.2
		c-0.4-0.7-0.9-1.3-1.3-2c-0.4,0.3-0.7,0.6-1.2,1c0.1-0.7,0.1-1.3,0.2-1.9c0.1-0.5,0-0.9-0.2-1.3c-0.4-0.8-0.8-1.6-1.3-2.4
		C136.2,63,136.2,62.9,136.2,62.8C136.1,62.8,136.2,62.8,136.2,62.8z"/>
	<path d="M99.1,34.5c-0.5,0.2-1,0.3-1.4,0.5c0,0,0,0.1,0,0.1c0.6,0.3,1.1,0.5,1.7,0.8c0,0,0,0.1,0,0.1c-0.4-0.1-0.8-0.1-1.1-0.2
		c-0.8-0.1-1.5-0.3-2.3-0.3c-0.5,0-1.1,0.1-1.6,0.2c-0.7,0.1-1.3,0.3-2,0.3c0.6-0.3,1.2-0.6,1.8-0.9c0,0,0-0.1,0-0.1
		c-0.4-0.1-0.8-0.2-1.1-0.4c0-0.1,0-0.1,0-0.2c2.1,0.3,4.1,0.3,6.2-0.2C99.1,34.4,99.1,34.5,99.1,34.5z"/>
	<path d="M122.9,43c0.8,0.6,1.6,1.1,2.4,1.7c0.5,0.4,1,0.7,1.7,0.7c0.3,0,0.5,0.2,0.5,0.6c0,0.3,0.2,0.6,0.4,0.8
		c0.7,0.8,1.5,1.6,2.2,2.5c-0.5-0.5-1.1-0.9-1.6-1.4c-0.9-0.9-1.9-1.4-3.3-1c0.1-0.4,0.2-0.8,0.2-1.1c0-0.2-0.1-0.4-0.2-0.5
		C124.4,44.5,123.6,43.8,122.9,43C122.8,43,122.8,43,122.9,43z"/>
	<path d="M121.2,50.4c-0.8-0.5-1.6-1-2.4-1.4c-0.2-0.1-0.6-0.2-0.9-0.2c-0.5,0-1.1,0.1-1.7,0.2c0.2-0.3,0.4-0.5,0.5-0.8
		c0.3-0.3,0.3-0.5-0.1-0.8c-0.6-0.4-1.1-0.8-1.6-1.3c1.5,0.7,2.8,1.7,4.5,1.4c0,0.1,0,0.2,0,0.2c-0.3,0.7-0.3,0.7,0.2,1.3
		C120.3,49.4,120.8,49.9,121.2,50.4C121.2,50.4,121.2,50.4,121.2,50.4z"/>
	<path d="M120.6,45.3c-0.8-0.5-1.6-1-2.4-1.4c-0.3-0.2-0.6-0.3-1-0.2c-0.5,0.1-1.1,0.1-1.7,0.2c0.2-0.3,0.3-0.5,0.5-0.8
		c0.2-0.3,0.2-0.5-0.1-0.7c-0.5-0.4-1-0.8-1.5-1.3c1.4,0.6,2.7,1.7,4.5,1.4c-0.1,0.2-0.1,0.4-0.2,0.4c-0.4,0.4-0.1,0.6,0.2,0.9
		C119.5,44.3,120.1,44.8,120.6,45.3C120.6,45.3,120.6,45.3,120.6,45.3z"/>
	<path d="M69,43.1c-0.8,0.7-1.5,1.4-2.3,2.1c-0.3,0.3-0.4,0.5-0.2,0.8c0.1,0.3,0.1,0.5,0.2,0.8c-0.1,0-0.1,0.1-0.1,0.1
		c-1.3-0.3-2.3,0.3-3.2,1.1c-0.4,0.4-0.9,0.8-1.4,1.1c0.1-0.1,0.2-0.2,0.3-0.3c0.5-0.6,1-1.2,1.6-1.7c0.3-0.3,0.5-0.7,0.6-1.1
		c0-0.1,0.2-0.4,0.3-0.4c1.4-0.1,2.2-1.1,3.3-1.8C68.2,43.5,68.5,43.3,69,43.1C68.9,43,68.9,43.1,69,43.1z"/>
	<path d="M77.4,41c-0.6,0.5-1.1,0.9-1.7,1.3c-0.2,0.2-0.3,0.3-0.1,0.6c0.2,0.2,0.4,0.5,0.6,0.9c-0.6-0.1-1.2-0.1-1.7-0.2
		c-0.4-0.1-0.7,0-1,0.2c-0.7,0.4-1.4,0.9-2.1,1.3c-0.1,0-0.2,0.1-0.3,0.1c0.5-0.5,1.1-1,1.6-1.5c0.4-0.3,0.5-0.6,0.1-1
		c0-0.1-0.1-0.1-0.1-0.3C74.6,42.7,75.9,41.7,77.4,41z"/>
	<path d="M57.4,55.1c0.4,0.2,0.6,0,0.9-0.3c0.6-0.7,1.3-1.4,2-2.1c-0.1,0.1-0.2,0.3-0.3,0.4c-0.5,0.7-1.1,1.4-1.6,2.2
		c-0.2,0.3-0.3,0.7-0.3,1C58,56.9,58,57.5,58,58.1c-0.3-0.1-0.5-0.2-0.7-0.4c-0.3-0.2-0.4-0.1-0.6,0.1c-0.5,0.7-1.1,1.4-1.6,2.1
		C55.8,58.4,56.6,56.8,57.4,55.1z"/>
	<path d="M75.6,48.9c-0.4,0-0.7,0-0.9-0.1c-0.9-0.2-1.7,0-2.4,0.5c-0.5,0.4-1.1,0.7-1.8,1c0.6-0.5,1.1-1,1.7-1.5
		c0.4-0.3,0.5-0.6,0.1-1c-0.1-0.1-0.1-0.2-0.1-0.4c1.8,0.2,3.1-0.7,4.5-1.4c-0.2,0.2-0.5,0.4-0.7,0.6c-0.2,0.2-0.5,0.4-0.7,0.6
		c-0.5,0.3-0.5,0.6-0.1,1C75.3,48.5,75.4,48.7,75.6,48.9z"/>
	<path d="M136.6,59.8c-0.5-0.6-1-1.3-1.4-1.9c-0.2-0.3-0.4-0.3-0.7-0.1c-0.1,0.1-0.2,0.1-0.3,0.2c-0.3,0.2-0.4,0.1-0.5-0.3
		c0-0.3-0.1-0.6,0-0.8c0.1-0.8-0.3-1.4-0.8-2c-0.5-0.6-0.9-1.3-1.4-2c0.1,0.1,0.2,0.1,0.2,0.2c0.6,0.7,1.2,1.3,1.8,2
		c0.1,0.1,0.4,0.1,0.5,0.2c0.1,0.1,0.4,0.1,0.4,0.2c0.7,1.4,1.4,2.9,2,4.3C136.7,59.7,136.6,59.7,136.6,59.8
		C136.6,59.8,136.6,59.8,136.6,59.8z"/>
	<path d="M108.2,36c-0.2,0.1-0.5,0.2-0.7,0.3c0,0,0,0.1,0,0.1c0.8,0.4,1.5,0.8,2.3,1.2c0,0,0,0.1,0,0.1c-2.2-1-4.4-1.6-6.8-1.1
		c0-0.1,0-0.1,0-0.2c0.4-0.2,0.9-0.4,1.3-0.6c0,0,0-0.1,0-0.1c-0.6-0.2-1.2-0.5-1.8-0.8C104.3,35.3,106.2,35.6,108.2,36z"/>
	<path d="M88.9,36.5c-2.4-0.5-4.6,0.2-6.8,1.1c0,0,0-0.1,0-0.1c0.7-0.4,1.5-0.8,2.2-1.2c0,0,0-0.1,0-0.1c-0.3-0.1-0.5-0.2-0.7-0.3
		c1.9-0.3,3.9-0.7,5.9-1.1c-0.6,0.3-1.2,0.5-1.8,0.7c0,0,0,0.1,0,0.1c0.4,0.2,0.8,0.4,1.2,0.6C88.9,36.4,88.9,36.5,88.9,36.5z"/>
	<path d="M78.9,38.4c-1,0.2-2,0.2-3,0.6c-0.9,0.3-1.7,0.9-2.7,1.3c0.6-0.4,1.1-0.7,1.7-1.1c0.3-0.2,0.5-0.4,0.1-0.7
		c1.7-0.6,3.4-1.2,5-1.7c0,0,0,0,0,0.1c-0.5,0.3-1,0.5-1.5,0.8c-0.1,0.1-0.2,0.2-0.4,0.3c0.1,0.1,0.2,0.2,0.4,0.3
		C78.7,38.2,78.8,38.3,78.9,38.4z"/>
	<path d="M111.7,36.7c1.7,0.6,3.3,1.1,5,1.7c-0.1,0.1-0.2,0.2-0.3,0.4c0.7,0.5,1.4,0.9,2.1,1.4c0,0,0,0.1,0,0.1
		c-1.7-1-3.4-2.1-5.6-1.8c0-0.1,0-0.1,0-0.2c0.2-0.1,0.4-0.3,0.8-0.5C112.9,37.5,112.3,37.1,111.7,36.7
		C111.6,36.7,111.7,36.7,111.7,36.7z"/>
	<path d="M47.2,75.2c0.1,0.1,0.1,0.1,0.3,0.2c0.3-0.5,0.5-1,0.8-1.6c0,0,0.1,0,0.1,0c-0.7,1.8-1,3.7-0.6,5.7c0,0-0.1,0-0.1,0
		c-0.1-0.3-0.2-0.6-0.3-0.8c0,0-0.1,0-0.1,0c-0.1,0.3-0.2,0.7-0.3,1c0,0,0,0-0.1,0C46.9,78.2,47,76.7,47.2,75.2z"/>
	<path d="M144.5,78.8c-0.1,0.2-0.1,0.4-0.2,0.6c-0.1,0-0.1,0-0.2,0c0.2-1.8,0.1-3.6-0.6-5.3c0.1,0,0.1,0,0.2,0
		c0.2,0.3,0.3,0.7,0.5,1c0.1,0.1,0.3,0.1,0.5,0.3c0.1,1.3,0.2,2.7,0.3,4.2c0,0-0.1,0-0.1,0c-0.1-0.2-0.2-0.5-0.2-0.7
		C144.6,78.8,144.6,78.8,144.5,78.8z"/>
	<path d="M50.4,64.8c-0.8,1.8-1.4,3.6-1.4,5.7c-0.2-0.3-0.3-0.5-0.4-0.9c-0.2,0.4-0.4,0.8-0.6,1.1c0,0-0.1,0-0.1,0
		c0.2-0.5,0.4-1,0.5-1.5c0.2-0.7,0.4-1.5,0.5-2.2c0-0.1,0-0.3,0.1-0.4C49.4,66.1,49.9,65.5,50.4,64.8z"/>
	<path d="M141.6,65c0.1,0.2,0.2,0.4,0.3,0.5c0.3,0.3,0.2,0.9,0.8,0.9c0,0,0,0.1,0,0.1c0.3,1.3,0.7,2.5,1,3.8c0,0,0,0.1,0,0.2
		c-0.2-0.4-0.3-0.6-0.5-1c-0.1,0.3-0.2,0.6-0.3,0.8c-0.1-1.9-0.7-3.6-1.4-5.3C141.6,65.1,141.6,65.1,141.6,65z"/>
	<path d="M135.1,53.3c-0.7-0.7-1.3-1.5-2-2.1c-0.2-0.2-0.5-0.3-0.8-0.4c-0.1-0.1-0.4-0.2-0.4-0.3c0-0.9-0.6-1.4-1.2-2
		c-0.4-0.3-0.7-0.6-1-1C131.9,49,133.5,51.1,135.1,53.3C135.2,53.2,135.2,53.3,135.1,53.3z"/>
	<path d="M62.1,47.6c-0.5,0.5-1.1,1-1.6,1.4c-0.4,0.3-0.6,0.7-0.6,1.2c0,0.4-0.1,0.5-0.5,0.5c-0.2,0-0.5,0.2-0.7,0.4
		c-0.7,0.7-1.3,1.5-2,2.2c0.1-0.7,4.4-5.3,5.3-5.9C62,47.5,62,47.5,62.1,47.6z"/>
	<path d="M125.4,43.6c-1.2-0.6-2.5-1.2-3.8-1.9c-0.1,0-0.2-0.2-0.2-0.2c0.2-0.5-0.2-0.6-0.5-0.8c-0.3-0.2-0.5-0.3-0.7-0.6
		C122.1,41.1,123.8,42.3,125.4,43.6z"/>
	<path d="M66.4,43.5c1.7-1.2,3.4-2.3,5.1-3.5c0,0.1,0.1,0.1,0.1,0.2c-0.3,0.2-0.6,0.4-0.9,0.6c-0.3,0.2-0.5,0.4-0.2,0.7
		C69,42.2,67.7,42.9,66.4,43.5C66.4,43.5,66.4,43.5,66.4,43.5z"/>
	<path d="M53.6,57.5c-0.6,1.4-1.2,2.7-1.9,4.1c-0.7-0.2-0.5,0.6-1,0.7c0.9-1.6,1.8-3.3,2.7-4.9C53.5,57.4,53.5,57.4,53.6,57.5z"/>
	<path d="M140.9,62.3c-0.3-0.3-0.3-0.8-0.8-0.8c0,0,0-0.1-0.1-0.1c-0.6-1.3-1.2-2.6-1.7-3.8c0,0,0.1,0,0.1-0.1
		c0.9,1.6,1.7,3.1,2.6,4.7C141,62.2,140.9,62.2,140.9,62.3z"/>
	<path d="M92.9,33.6c1.7-0.3,3.5-0.3,5.2,0C96.4,33.6,94.7,33.6,92.9,33.6z"/>
	<path d="M86.3,34.5c0.7-0.1,1.4-0.2,2.1-0.3c0,0,0,0.1,0,0.1c-0.7,0.1-1.4,0.2-2.1,0.3C86.3,34.6,86.3,34.5,86.3,34.5z"/>
</g>
</svg>
