<?xml version="1.0" encoding="utf-8"?>
<!-- Generator: Adobe Illustrator 23.0.3, SVG Export Plug-In . SVG Version: 6.00 Build 0)  -->
<svg version="1.1" id="layer" xmlns="http://www.w3.org/2000/svg" xmlns:xlink="http://www.w3.org/1999/xlink" x="0px" y="0px"
	 viewBox="0 0 192 142" style="enable-background:new 0 0 192 142;" xml:space="preserve">
<g>
	<path d="M34.5,82.8c-7.2,0-11.6-6.1-11.6-12.7c0-6.9,4-12.6,11.6-12.6c5.6,0,10,3.3,10.3,8.1h-5c-0.2-2.2-2.6-4-5.3-4
		c-4,0-6.6,3-6.6,8.7c0,3.9,2,8.2,6.6,8.2c4.2,0,5.8-2.1,5.8-5.4H35v-3.9h9.9v4C44.8,78.8,42.3,82.8,34.5,82.8z"/>
	<path d="M47.6,82V58.1h4.6V82H47.6z"/>
	<path d="M54.4,71.9c0.3-3.9,3.9-7.4,7.8-7.8c6.1-0.6,10.1,3.2,10.1,9.2c0,5.5-3.4,9.2-8.9,9.2C57.2,82.5,53.9,78,54.4,71.9z
		 M67.6,73.3c0-3.5-1.4-5.3-4.2-5.3c-2.8,0-4.2,1.8-4.2,5.3c0,3.5,1.4,5.3,4.2,5.3C66.2,78.6,67.6,76.8,67.6,73.3L67.6,73.3z"/>
	<path d="M74.4,82V58.1H79v8.7c1.3-1.9,3-2.7,5.2-2.7c4.5,0,7.2,3.8,7.2,9.1c0,5.9-3.2,9.4-7.5,9.4c-2.1,0-3.8-0.8-4.8-2.6v2.1
		L74.4,82L74.4,82L74.4,82z M86.6,73.4c0-3.5-1.3-5.4-4-5.4c-2.6,0-3.9,1.9-3.9,5.6c0,2.9,1.8,5,3.9,5C85,78.7,86.6,76.5,86.6,73.4z
		"/>
	<path d="M105,82c-0.1-0.5-0.2-1-0.2-1.5c-1,1.2-2.9,2-5.3,2c-4,0-5.9-2-5.9-4.8c0-5,3.4-5.6,8-6.2c2.3-0.3,2.9-0.8,2.9-2
		c0-1.2-1.2-1.8-2.9-1.8c-2.1,0-2.9,1-3.2,2.6H94c0.1-3.6,2.1-6.1,7.6-6.1s7.4,2.5,7.4,6.9v11.1H105V82z M104.7,73.4
		c-0.5,0.5-1.3,0.7-2.9,1c-2.6,0.5-3.5,1.3-3.5,2.7c0,1.3,0.8,2,2.2,2c2.3,0,4.1-1.8,4.2-3.8V73.4z"/>
	<path d="M123.6,82V71.4c0-2.7-0.8-3.4-2.9-3.4c-2.5,0-3.5,1.3-3.5,4v10h-4.6V64.5h4.2V67c1-2,2.8-3,5.6-3c3.3,0,5.8,2,5.8,5.9V82
		L123.6,82L123.6,82z"/>
	<path d="M141.6,75.4c-0.1,1.9-1,3-2.7,3c-1.9,0-2.7-1.3-2.7-3.5v-7.2h7.2v-3.6h-7.2v-4.3h-4.6v15.6c0,3.8,2,7,7.2,7
		c4.9,0,7-3.3,7-7l0,0L141.6,75.4L141.6,75.4z"/>
	<path d="M151.5,56.8c-0.5-0.3-1.2-0.1-1.5,0.3c-0.1,0.2-0.2,0.6-0.1,0.8l2.1,3c4,6,4,13.9,0,19.9l-2.1,3c-0.1,0.6,0.1,1.2,0.7,1.3
		c0.2,0.1,0.6,0,0.8-0.1L168.7,72c0.6-0.5,0.7-1.3,0.2-1.9c-0.1-0.1-0.1-0.2-0.2-0.2L151.5,56.8z"/>
</g>
</svg>
