<?xml version="1.0" encoding="utf-8"?>
<!-- Generator: Adobe Illustrator 23.0.3, SVG Export Plug-In . SVG Version: 6.00 Build 0)  -->
<svg version="1.1" id="Capa_1" xmlns="http://www.w3.org/2000/svg" xmlns:xlink="http://www.w3.org/1999/xlink" x="0px" y="0px"
	 viewBox="0 0 192 142" style="enable-background:new 0 0 192 142;" xml:space="preserve">
<style type="text/css">
	.st0{fill:#0B0C0C;}
</style>
<g>
	<path class="st0" d="M99.5,104.2c0-1.8,0-3.5,0-5.3c0-0.3,0.1-0.4,0.4-0.4c2.1,0,4.1,0,6.2,0c0.3,0,0.4,0.1,0.4,0.4
		c0,0.4,0,0.8,0,1.2c0,0.3-0.1,0.3-0.3,0.3c-1.3,0-2.7,0-4.1,0c-0.3,0-0.4,0.1-0.4,0.4c0,0.7,0,1.3,0,2c0,0.3,0.1,0.4,0.4,0.4
		c1.2,0,2.4,0,3.6,0c0.3,0,0.4,0.1,0.4,0.4c0,0.4,0,0.8,0,1.2c0,0.3-0.1,0.3-0.3,0.3c-1.2,0-2.5,0-3.7,0c-0.3,0-0.4,0.1-0.4,0.4
		c0,0.7,0,1.5,0,2.2c0,0.3,0.1,0.3,0.3,0.3c1.3,0,2.7,0,4.1,0c0.3,0,0.4,0.1,0.4,0.4c0,0.4,0,0.8,0,1.2c0,0.2-0.1,0.3-0.3,0.3
		c-2.1,0-4.3,0-6.4,0c-0.3,0-0.3-0.2-0.3-0.3C99.5,107.7,99.5,106,99.5,104.2z"/>
	<path class="st0" d="M65.8,107.9c0.3-0.9,0.5-1.7,0.7-2.6c0.6-2.2,1.3-4.3,1.9-6.5c0.1-0.3,0.2-0.4,0.5-0.4c0.5,0,1,0,1.5,0
		c0.2,0,0.3,0,0.2,0.3c-1.1,3.6-2.1,7.2-3.2,10.8c-0.1,0.2-0.1,0.2-0.3,0.2c-0.9,0-1.8,0-2.7,0c-0.3,0-0.3-0.1-0.4-0.3
		c-0.7-2.3-1.4-4.6-2.1-6.8c-0.4-1.2-0.7-2.5-1.1-3.7c-0.1-0.3-0.1-0.4,0.3-0.4c0.5,0,1,0,1.5,0c0.3,0,0.4,0.1,0.4,0.3
		c0.8,2.9,1.7,5.8,2.5,8.8C65.7,107.7,65.7,107.7,65.8,107.9z"/>
	<path class="st0" d="M121.8,98.5c0.7,0,1.4,0,2.1,0c0.2,0,0.3,0.1,0.4,0.3c0.6,1.1,1.3,2.2,1.9,3.2c0.1,0.1,0.1,0.3,0.3,0.4
		c0.7-1.2,1.4-2.4,2.1-3.6c0.1-0.2,0.3-0.3,0.5-0.3c0.6,0,1.3,0,2,0c-0.1,0.2-0.2,0.4-0.3,0.6c-1,1.6-1.9,3.2-2.9,4.8
		c-0.1,0.2-0.1,0.4,0,0.6c1,1.6,2.1,3.3,3.1,4.9c0.1,0.1,0.2,0.3,0.3,0.4c-0.8,0-1.5,0-2.2,0c-0.2,0-0.2-0.2-0.3-0.3
		c-0.8-1.2-1.5-2.5-2.3-3.7c-0.6,1-1.3,2-1.8,3c-0.4,0.8-0.8,1-1.8,1c-0.4,0-0.7,0-1.1,0c0-0.2,0.1-0.3,0.2-0.4c1-1.7,2.1-3.3,3.1-5
		c0.2-0.2,0.2-0.4,0-0.6C123.9,102.1,122.8,100.3,121.8,98.5z"/>
	<path class="st0" d="M93.2,105.1c0-1.4,0-2.9,0-4.3c0-0.3-0.1-0.4-0.4-0.4c-0.8,0-1.6,0-2.5,0c-0.3,0-0.3-0.1-0.3-0.3
		c0-0.4,0-0.9,0-1.3c0-0.2,0.1-0.3,0.3-0.3c2.6,0,5.3,0,7.9,0c0.2,0,0.3,0.1,0.3,0.3c0,0.4,0,0.9,0,1.4c0,0.2-0.1,0.3-0.3,0.3
		c-0.8,0-1.7,0-2.5,0c-0.3,0-0.4,0.1-0.4,0.4c0,2.9,0,5.7,0,8.6c0,0.3-0.1,0.4-0.4,0.4c-0.4,0-0.9,0-1.4,0c-0.3,0-0.4-0.1-0.4-0.4
		C93.2,108,93.2,106.5,93.2,105.1z"/>
	<path class="st0" d="M118.4,104.2c0-1.8,0-3.5,0-5.3c0-0.3,0.1-0.4,0.4-0.4c0.4,0,0.9,0,1.4,0c0.3,0,0.4,0.1,0.4,0.4
		c0,3.5,0,7,0,10.6c0,0.3-0.1,0.4-0.4,0.4c-0.4,0-0.9,0-1.4,0c-0.3,0-0.4-0.1-0.4-0.4C118.4,107.7,118.4,105.9,118.4,104.2z"/>
	<path class="st0" d="M114.5,105.8c0.9-0.4,1.5-1,1.6-1.9c0.1-0.9,0.1-1.7,0.1-2.6c0-1.4-0.8-2.3-2.2-2.6c-0.3-0.1-0.6-0.1-0.9-0.1
		c-1.6,0-3.2,0-4.8,0c-0.2,0-0.3,0-0.3,0.3c0,3.6,0,7.1,0,10.7c0,0.2,0.1,0.3,0.3,0.3c0.5,0,1,0,1.5,0c0.3,0,0.3-0.1,0.3-0.3
		c0-1,0-2.1,0-3.1c0-0.2,0.1-0.3,0.3-0.3c0.5,0,0.9,0,1.4,0c0.3,0,0.4,0.1,0.5,0.3c0.7,1.1,1.5,2.1,2.2,3.2c0.1,0.1,0.1,0.3,0.3,0.3
		c0.8,0,1.6,0,2.5,0C116.3,108.4,115.4,107.1,114.5,105.8z M114,103.2c0,0.6-0.3,0.9-0.9,1c-0.9,0.1-1.9,0-2.8,0.1
		c-0.2,0-0.2-0.2-0.2-0.3c0-0.6,0-1.1,0-1.7c0-0.5,0-1.1,0-1.6c0-0.2,0-0.3,0.2-0.3c0.9,0,1.7,0,2.6,0c0.8,0,1.1,0.4,1.1,1.2
		C114,102.1,114,102.7,114,103.2z"/>
	<path class="st0" d="M87.7,105.8c1.1-0.5,1.4-1,1.6-2c0.1-0.8,0.1-1.7,0.1-2.5c0-1.4-0.7-2.3-2.2-2.6c-0.3-0.1-0.7-0.1-1-0.1
		c-1.6,0-3.2,0-4.8,0c-0.2,0-0.3,0.1-0.3,0.3c0,3.6,0,7.1,0,10.7c0,0.2,0.1,0.3,0.3,0.3c0.5,0,1,0,1.5,0c0.3,0,0.3-0.1,0.3-0.3
		c0-1,0-2.1,0-3.1c0-0.2,0.1-0.3,0.3-0.3c0.4,0,0.9,0,1.3,0c0.3,0,0.5,0.1,0.6,0.3c0.7,1.1,1.5,2.1,2.2,3.2c0.1,0.2,0.2,0.3,0.4,0.3
		c0.7,0,1.5,0,2.3,0C89.6,108.4,88.7,107.1,87.7,105.8z M87.3,103.2c0,0.6-0.3,0.9-0.9,1c-0.9,0.1-1.9,0-2.8,0.1
		c-0.2,0-0.2-0.1-0.2-0.2c0-1.1,0-2.2,0-3.3c0-0.2,0.1-0.2,0.3-0.2c0.4,0,0.8,0,1.2,0c0,0,0.9,0,1.4,0c0.7,0.1,1,0.4,1,1.1
		C87.3,102.1,87.3,102.6,87.3,103.2z"/>
	<path class="st0" d="M79.6,101.4c-0.1-1.5-0.9-2.4-2.4-2.8c-1.1-0.3-2.3-0.3-3.4-0.1c-1.8,0.4-2.6,1.5-2.7,3.3c0,0.8,0,1.6,0,2.4
		c0,0,0,0,0,0c0,0.9,0,1.7,0,2.6c0.1,1.4,0.8,2.4,2.1,2.9c1.3,0.4,2.6,0.4,3.9,0.1c1.5-0.4,2.3-1.3,2.4-2.8
		C79.7,105.1,79.7,103.2,79.6,101.4z M77.5,104.2c0,0.7,0,1.4,0,2.2c0,1-0.4,1.6-1.4,1.7c-0.6,0.1-1.2,0.1-1.8-0.1
		c-0.6-0.2-0.9-0.6-0.9-1.2c-0.1-1.7-0.1-3.4,0-5.1c0-0.7,0.4-1.1,1.1-1.2c0.6-0.2,1.3-0.2,1.9,0c0.8,0.2,1.2,0.7,1.3,1.6
		C77.5,102.7,77.5,103.4,77.5,104.2z"/>
	<path class="st0" d="M130.7,32.2c-11.4,6.8-22.8,13.5-34.3,20.3c-0.3,0.2-0.5,0.2-0.8,0C84.2,45.8,72.7,39,61.3,32.2
		c-0.1-0.1-0.2-0.2-0.4-0.2v0.4c0,5.8,0,11.5,0,17.3c0,0.3,0.1,0.5,0.4,0.7c11.5,6.8,22.9,13.6,34.4,20.4c0.3,0.2,0.4,0.2,0.7,0
		c11.5-6.8,22.9-13.6,34.4-20.4c0.3-0.2,0.4-0.3,0.4-0.6c0-5.8,0-11.6,0-17.4V32C130.9,32.1,130.8,32.2,130.7,32.2z M130.8,73.3
		c-5.5-3.2-10.9-6.4-16.3-9.5c-0.3-0.2-0.4-0.1-0.7,0c-4.9,2.9-9.7,5.9-14.6,8.8c-0.1,0.1-0.2,0.1-0.3,0.2
		c10.8,6.3,21.5,12.6,32.3,19v-0.4c0-5.8,0-11.6,0-17.4C131.1,73.6,131,73.4,130.8,73.3z M78.2,63.8c-0.3-0.2-0.4-0.2-0.7,0
		c-5.4,3.2-10.9,6.4-16.3,9.5c-0.3,0.2-0.4,0.3-0.4,0.6c0,5.8,0,11.6,0,17.4c0,0.1-0.1,0.3,0.1,0.4c10.7-6.3,21.5-12.6,32.2-18.9
		c-0.1-0.1-0.2-0.2-0.3-0.2C87.9,69.6,83.1,66.7,78.2,63.8z"/>
</g>
</svg>
