<?xml version="1.0" encoding="utf-8"?>
<!-- Generator: Adobe Illustrator 23.0.3, SVG Export Plug-In . SVG Version: 6.00 Build 0)  -->
<svg version="1.1" id="Capa_1" xmlns="http://www.w3.org/2000/svg" xmlns:xlink="http://www.w3.org/1999/xlink" x="0px" y="0px"
	 viewBox="0 0 192 142" style="enable-background:new 0 0 192 142;" xml:space="preserve">
<style type="text/css">
	.st0{fill-rule:evenodd;clip-rule:evenodd;}
</style>
<path class="st0" d="M31,81.8h-5.8v-7.3c0-1.5-0.6-2.6-1.8-2.6c-1.1,0-1.9,1.2-1.9,2.5v7.4h-5.9v-6.7c0-2,0.6-3.8,1.6-5.1
	c1.1-1.5,3.2-2.8,5.7-3c2.4-0.1,4.2,0.8,5.6,2c1.3,1.1,2.5,3.2,2.5,5C31,75.9,31,81.8,31,81.8z M90.5,64.1c0-0.9,0.1-1.8-0.1-2.4
	c-0.2-0.8-1-1.6-1.7-1.9c-1.8-0.7-3.4,0.4-3.9,1.6c-0.3,0.7-0.2,1.8-0.2,2.9c0,5.7,0,12.2,0,17.5c1.9,0,3.9,0,5.8,0
	C90.5,76.3,90.5,69.8,90.5,64.1z M109.3,69.9c-0.9,1.1-1.7,2.5-1.8,4.3c-0.2,2.9,0.9,4.7,2.2,6c1.1,1.1,2.7,2.1,4.7,2.3
	c2.4,0.2,4.1-0.6,5.5-1.7c1.3-1,2.4-2.7,2.8-4.5c0.2-1.1,0.1-3.5,0.1-3.5s0-9.5,0-10.6c0-1.1-0.9-2-1.9-2.4c-1.9-0.7-4.1,0.7-4,2.8
	c0.1,1.2,0,4.7,0,4.7C113.5,66.5,110.8,68,109.3,69.9z M115,71.3c1.3-0.2,1.9,1.5,2,2.9c0.1,1.8-0.5,3.8-1.6,4
	c-1.5,0.3-2.2-2-2.1-3.8C113.4,73.1,113.9,71.5,115,71.3z M68.7,71.2c1-1.8-0.4-3.7-1.5-4.1c-0.3-0.1-0.8-0.2-1.4-0.2
	c-1.5,0.2-2.2,1.3-2.8,2.4c-0.6,1-2.1,3.7-2.1,3.7s0-2.2,0-3.4c0-1.1-0.9-2.6-3-2.7c-1.7,0-2.8,1.5-2.8,2.9c0,1.7,0,3.8,0,5.9
	c0,2.1,0,5.9,0,5.9h5.9v-4.6l3.1,4.6h4.6c1.2,0,1.4-1.1,0.9-1.8c-0.9-1.4-3.1-4.6-3.1-4.6S67.7,73,68.7,71.2z M49.3,67.6
	c-3.1-1.3-6.5-0.2-8.3,1.6c-1.2,1.2-2.1,2.9-2.3,4.9c-0.2,2.7,0.8,4.5,2.2,6c1.2,1.2,2.7,2.1,4.7,2.3c1.9,0.1,3.3-0.3,4.5-1
	c1.5-0.8,2.6-2.1,3.3-3.6c0.3-0.7,0.6-1.4,0.6-2.4h-5.9c-0.1,1.2-0.7,2.8-1.8,2.8c-1.2,0-1.8-1.7-1.9-3.2c-0.1-1.1,0.2-2.4,0.6-3
	c0.2-0.4,0.7-0.8,1.2-0.8c0.6,0,1.1,0.5,1.3,1c0.3,0.5,0.4,1.1,0.5,1.8h5.9C53.8,70.9,51.9,68.7,49.3,67.6z M82,69.3
	c-1.3-1.3-3.3-2.4-5.9-2.3c-3.3,0.2-5.6,2.4-6.6,4.8c-0.6,1.5-0.8,3.2-0.4,4.8c0.4,1.7,1.6,3.2,2.7,4.1c1,0.8,2.6,1.5,4.2,1.6
	c1.7,0.1,2.9-0.3,4.1-0.9c2.1-1.1,3.2-2.5,3.7-5.2c-1.7,0-3.4,0-5.2,0c-0.5,0.8-1,1.9-2.1,1.8c-1.1-0.1-1.6-1.6-1.7-2.6
	c3,0,6,0,9.1,0C84.1,72.8,83.4,70.7,82,69.3z M78.3,73.3h-3.4c0.1-1.3,1.4-2.9,2.5-1.8C77.8,71.9,78.1,72.6,78.3,73.3z M95.7,67.8
	c-0.8,0.4-1.5,0.9-2.1,1.5c-1.2,1.2-2.1,2.7-2.3,4.8c-0.2,3,1,5,2.5,6.4c1.4,1.3,3.3,2.1,5.5,2c2.1-0.1,3.9-1,5.2-2.3
	c1.2-1.2,2.2-3,2.2-5.3c0-2.5-1.1-4.4-2.4-5.6c-1.3-1.2-3.3-2.3-5.8-2.1C97.4,67.2,96.6,67.4,95.7,67.8z M98.8,71.3
	c1.6-0.3,2.2,2.2,2.1,3.9c-0.1,1.4-0.7,2.8-1.6,2.9c-0.2,0-0.4,0-0.5,0c-1.1-0.2-1.7-2.2-1.6-3.9c0.1-1.2,0.5-2.2,1-2.7
	C98.4,71.5,98.6,71.3,98.8,71.3z M134.5,67.8c-1-0.5-2.3-0.8-3.7-0.7c-2.1,0.1-3.7,1-4.9,2.3c-1.5,1.5-2.5,3.4-2.3,6.2
	c0.2,3,2.4,5.4,4.8,6.4c1.5,0.6,3.3,0.7,4.8,0.3c2.9-0.7,4.8-2.7,5.3-5.9h-5.2c-0.5,0.8-0.9,1.9-2,1.8c-1.2-0.1-1.6-1.5-1.7-2.6h9.1
	C138.9,71.5,137.2,69,134.5,67.8z M133,73.4h-3.4c0.2-1.1,0.8-2.4,2-2.1C132.4,71.4,132.9,72.5,133,73.4z M141.4,69.6
	c-1.1,1.2-2.1,3.1-2,5.7c0.2,2.2,1.2,3.9,2.5,5.1c1.4,1.2,3.4,2.1,5.7,2c2.3-0.1,3.9-1.2,5.1-2.5c1.2-1.3,2.2-3.2,2-5.7
	c-0.1-1.1-0.4-2.1-0.9-2.9c-1.2-2.4-3.7-4.5-7.3-4.2C144.3,67.3,142.6,68.3,141.4,69.6z M147,71.3c1.2-0.2,1.9,1.5,2,2.7
	c0.2,1.8-0.4,4-1.6,4.2c-0.7,0.1-1.3-0.4-1.6-1c-0.9-1.6-0.6-4.7,0.5-5.7C146.5,71.4,146.7,71.3,147,71.3z M171,74
	c0-1.8-1.3-3.9-2.5-5c-1.4-1.2-3.1-2.1-5.6-2c-2.5,0.1-4.5,1.5-5.7,3c-1,1.3-1.6,3-1.6,5.1v6.7h5.9v-7.4c0-1.3,0.8-2.5,1.9-2.5
	c1.2,0,1.8,1.2,1.8,2.6v7.3h5.8C171,81.8,171,75.9,171,74z M38,73.5c0-1,0-1.9-0.1-2.8c-0.1-0.9-0.6-1.5-1.2-2c-0.4-0.4-1-0.9-1-1.5
	c0-0.5,0.6-1,1-1.4c0.4-0.4,0.9-0.8,1.2-1.2c0.9-1.4,0.5-3.1-0.5-4.1c-0.7-0.5-1.3-1-2.5-0.9c-1.6,0.1-3.1,1.5-3,3.4
	c0.1,1.4,0.9,2,1.6,2.8c0.4,0.4,1,1,1,1.5c0,0.5-0.6,1-1,1.4c-0.4,0.4-0.8,0.9-1,1.3c-0.4,0.8-0.3,2.2-0.3,3.4c0,2.7,0,5.7,0,8.3
	c2,0,3.9,0,5.9,0C38,79.1,38,76.2,38,73.5z M172.3,79.9h1.8v0.2h-0.8v1.7H173v-1.7h-0.7V79.9z M176.1,79.9h0.3v1.9h-0.3v-1.5
	l-0.7,0.7h-0.1l-0.7-0.7v1.5h-0.3v-1.9h0.3l0.7,0.8L176.1,79.9z"/>
</svg>
