<?xml version="1.0" encoding="utf-8"?>
<!-- Generator: Adobe Illustrator 23.0.3, SVG Export Plug-In . SVG Version: 6.00 Build 0)  -->
<svg version="1.1"
	 id="svg2" inkscape:version="0.91 r13725" sodipodi:docname="logo.svg" xmlns:cc="http://creativecommons.org/ns#" xmlns:dc="http://purl.org/dc/elements/1.1/" xmlns:inkscape="http://www.inkscape.org/namespaces/inkscape" xmlns:rdf="http://www.w3.org/1999/02/22-rdf-syntax-ns#" xmlns:sodipodi="http://sodipodi.sourceforge.net/DTD/sodipodi-0.dtd" xmlns:svg="http://www.w3.org/2000/svg"
	 xmlns="http://www.w3.org/2000/svg" xmlns:xlink="http://www.w3.org/1999/xlink" x="0px" y="0px" viewBox="0 0 192 142"
	 style="enable-background:new 0 0 192 142;" xml:space="preserve">
<sodipodi:namedview  bordercolor="#666666" borderopacity="1.0" fit-margin-bottom="0" fit-margin-left="0" fit-margin-right="0" fit-margin-top="0" id="base" inkscape:current-layer="layer1" inkscape:cx="585.55114" inkscape:cy="-10.958883" inkscape:document-units="px" inkscape:pageopacity="0.0" inkscape:pageshadow="2" inkscape:window-height="683" inkscape:window-maximized="0" inkscape:window-width="1102" inkscape:window-x="655" inkscape:window-y="191" inkscape:zoom="2" pagecolor="#ffffff" showgrid="false">
	</sodipodi:namedview>
<g>
	<path d="M149.6,80.2c-3.9-0.1-7-1.8-9.2-5.2c-1-1.6-1.4-3.4-1-5.2c0.5-2.9,1.9-4.9,4.5-6.5c1.2-0.6,2.3-1.2,3.6-1.4
		c1-0.3,2.1-0.4,3.1-0.3c1.7,0.3,3.2,0.6,4.7,1.6c1.3,0.8,2.5,1.7,3.4,3c2.1,2.9,2.1,6.5,0,9.5c-1.2,1.6-2.6,2.7-4.4,3.5
		C152.7,80,151.2,80.4,149.6,80.2z M149.6,62.8c-0.9,0-1.6,0-2.3,0.5c-1.3,0.9-1.8,2.1-2.1,3.5c-0.4,2.1-0.4,4.2-0.3,6.4
		c0.1,1.3,0.3,2.6,0.9,3.8c0.4,0.6,0.9,1.3,1.4,1.7c2.2,1.3,5.6,0.8,6.5-2.5c0.9-3.1,0.9-6.2,0.3-9.3c-0.1-0.8-0.5-1.6-0.9-2.2
		C152.5,63.2,151,62.8,149.6,62.8z"/>
	<path d="M64.7,71.9c0,1.7,0,3.4,0,5.1c0,1,0.5,1.7,1.6,1.7c0.3,0,0.5,0,0.8,0c0.4,0,0.6,0.1,0.5,0.5c0,0.4-0.3,0.5-0.6,0.5
		c-0.4,0-0.6,0-1,0c-1.4,0-2.9,0-4.3,0c-0.4,0-0.6,0-0.6-0.5c0-0.3,0-0.5,0.4-0.5c0.1,0,0.3,0,0.3,0c1.2,0,1.7-0.4,1.8-1.6
		c0-0.3,0.1-0.6,0.1-0.9c0-3.4,0-6.7,0-10c0-0.1,0-0.3,0-0.4c-0.1-1.7-0.4-2.2-2.2-2.7c-0.3-0.1-0.5-0.1-0.5-0.5
		c0-0.3,0.1-0.5,0.4-0.5c0.1,0,0.3,0,0.3,0c2.2,0,4.4,0,6.6,0c0.5,0,0.8,0.1,1.2,0.5c2.1,2.5,4.2,4.8,6.2,7.3
		c0.6,0.8,1.3,1.4,1.9,2.2c0.1,0.1,0.3,0.1,0.4,0.3c0.1-0.1,0.3-0.4,0.3-0.5c0-0.5,0-1,0-1.7c0-1.7,0-3.4,0-5.1
		c0-1.4-0.4-1.7-1.8-2.1c-0.3-0.1-0.5,0-0.8,0c-0.3,0-0.4-0.3-0.4-0.5c0-0.3,0.1-0.5,0.4-0.5c0.4,0,0.6,0,1,0c1.4,0,2.9,0,4.2,0
		c0.3,0,0.5,0,0.6,0c0.1,0.1,0.3,0.4,0.4,0.5c0,0.1-0.1,0.3-0.4,0.4c-0.1,0.1-0.4,0-0.5,0C79.5,63,79,63.6,79,64.9
		c0,4.4,0,8.8,0,13.4c0,0.3,0,0.5,0,0.8c0,0.4-0.1,0.5-0.5,0.5c-1.2,0.1-1.9-0.3-2.7-1.2c-1.8-2.2-3.6-4.4-5.6-6.5
		c-1.7-1.9-3.2-3.9-4.9-5.7c-0.3-0.3-0.5-0.4-0.8-0.5c-0.1,0.3-0.3,0.6-0.3,0.9C64.7,68.5,64.7,70.2,64.7,71.9z"/>
	<path d="M165.8,72.1c0,1.7,0,3.5,0,5.2c0,1,0.5,1.6,1.6,1.6c0.4,0,0.6,0,1,0c0.3,0,0.5,0.1,0.4,0.4c0,0.3-0.1,0.4-0.4,0.5
		c-0.1,0.1-0.3,0-0.4,0c-1.8,0-3.6,0-5.5,0c-0.1,0-0.3,0-0.3,0c-0.1-0.1-0.3-0.3-0.4-0.5c-0.1-0.3,0.1-0.5,0.4-0.5
		c0.1,0,0.4,0,0.5,0c1.2,0,1.7-0.6,1.8-1.8c0-1.6,0-3.1,0-4.7c0-2.2-0.1-4.4,0-6.6c0.1-1.6-0.9-2.2-2.1-2.5c-0.1,0-0.3,0-0.4-0.1
		c-0.1-0.1-0.3-0.4-0.3-0.5c0-0.1,0.1-0.3,0.3-0.4c0.1,0,0.4,0,0.6,0c1.9,0,4,0,6,0c0.9,0,1.4,0.3,2.1,0.9c1.8,2.2,3.8,4.4,5.7,6.6
		c0.6,0.8,1.3,1.6,1.9,2.3c0.1,0.1,0.3,0.4,0.5,0.4s0.4-0.4,0.4-0.6c0-2.1,0-4.3,0-6.4c0-1.4-0.9-2.2-2.1-2.2c-0.3,0-0.4,0-0.6,0
		s-0.4-0.3-0.4-0.5c0-0.1,0.1-0.4,0.4-0.4c0.1-0.1,0.4,0,0.6,0c1.6,0,3.2,0,4.8,0c0.1,0,0.4,0,0.5,0c0.1,0.1,0.4,0.3,0.4,0.5
		c0,0.1-0.3,0.4-0.4,0.5c-0.4,0.1-0.9,0.1-1.3,0.3c-0.8,0.3-1.2,0.9-1.2,1.8c0,3.6,0,7.4,0,11c0,0.9,0,1.8,0,2.7
		c0,0.6,0,0.8-0.8,0.8c-0.3,0-0.6,0-0.9,0s-0.6-0.1-0.8-0.4c-1.3-1.6-2.6-3.1-4-4.7c-0.9-1-1.7-1.9-2.6-3c-1.7-1.9-3.4-3.9-4.9-5.8
		c-0.1-0.1-0.3-0.1-0.4-0.3c0,0.1-0.1,0.3-0.1,0.4c0,0.8,0,1.6,0,2.2C165.8,69.6,165.8,70.8,165.8,72.1L165.8,72.1z"/>
	<path d="M44.4,79.8c-1.4,0-3,0-4.4,0c-0.1,0-0.4,0-0.5,0c-0.4,0-0.5-0.1-0.5-0.5s0.3-0.5,0.5-0.5c0.4,0,0.9,0,1.3,0
		c0.6,0,0.8-0.3,0.5-0.8c-0.4-0.9-0.9-1.7-1.3-2.6c-0.1-0.4-0.4-0.5-0.9-0.5c-2.1,0-4.3,0-6.4,0c-0.4,0-0.6,0.1-0.8,0.4
		c-0.4,0.6-0.8,1.4-1,2.1c-0.3,0.8,0.1,1.3,1,1.4c0.4,0,0.8,0,1.2,0c0.1,0,0.4,0.1,0.4,0.3c0.1,0.3,0,0.5-0.3,0.6
		c-0.1,0-0.3,0-0.3,0c-1.8,0-3.5,0-5.3,0c-0.1,0-0.3,0-0.3,0C27,79.6,27,79.4,27,79.1s0.3-0.4,0.5-0.4c0.5,0,1-0.1,1.4-0.4
		c0.5-0.4,0.9-0.8,1.2-1.4c1.3-2.6,2.6-5.3,3.9-8c0.9-1.9,1.9-4,2.9-6c0.3-0.5,0.5-0.6,1.2-0.6c0.3,0,0.4,0,0.6,0
		c0.5,0,0.8,0.3,1,0.6c1.6,3.1,3.1,6.1,4.7,9.2c1,2.1,2.1,4.2,3.2,6.1c0.1,0.4,0.4,0.4,0.8,0.4c0.5,0,0.9,0,1.4,0
		c0.1,0,0.4,0.1,0.4,0.3c0.1,0.3,0,0.5-0.4,0.6c-0.3,0-0.5,0-0.8,0C47.3,79.8,45.8,79.8,44.4,79.8L44.4,79.8z M35.9,73.9
		c0.8,0,1.6,0,2.2,0c0.8,0,0.9-0.1,0.5-0.9c-0.1-0.3-0.3-0.5-0.4-0.8c-0.6-1.3-1.3-2.6-1.9-3.9c-0.1-0.1-0.4-0.5-0.5-0.4
		c-0.3,0-0.5,0.3-0.5,0.5c-0.8,1.6-1.6,3.1-2.3,4.7c-0.3,0.6-0.1,0.9,0.5,0.9C34.4,73.9,35.1,73.9,35.9,73.9z"/>
	<path d="M99.5,79.8c-1.4,0-2.7,0-4.2,0c-0.3,0-0.5,0-0.8,0c-0.4,0-0.5-0.3-0.5-0.6s0.3-0.4,0.5-0.4c0.4,0,0.8,0,1.2,0
		c0.6,0,0.8-0.3,0.5-0.8c-0.3-0.6-0.6-1.2-0.9-1.8c-0.5-1.2-1.2-1.3-2.2-1.3c-1.7,0-3.2,0-4.9,0c-0.6,0-1,0.1-1.4,0.9
		c-0.3,0.5-0.5,1-0.6,1.4c-0.4,0.9,0,1.6,1,1.6c0.3,0,0.6,0,0.9,0s0.5,0,0.5,0.4s-0.1,0.6-0.5,0.6c-0.1,0-0.3,0-0.3,0
		c-1.7,0-3.5,0-5.2,0c-0.3,0-0.5-0.1-0.6-0.3c-0.3-0.4,0-0.8,0.4-0.8c1.3,0,2.1-0.6,2.6-1.8c0.9-1.9,1.9-3.9,2.9-5.7
		c0.9-1.9,1.8-3.9,2.9-5.8c0.4-0.9,0.8-1.8,1.3-2.6c0-0.1,0.1-0.3,0.1-0.3c0.6,0,1.3-0.1,1.9-0.1c0.4,0,0.5,0.3,0.6,0.6
		c0.9,1.8,1.9,3.6,2.9,5.5c0.9,1.8,1.8,3.6,2.7,5.5c0.8,1.4,1.4,3,2.2,4.4c0.1,0.1,0.4,0.4,0.6,0.4c0.5,0,0.9,0,1.4,0
		c0.3,0,0.5,0,0.5,0.4c0,0.3-0.1,0.5-0.4,0.6c-0.3,0-0.5,0-0.8,0C102.5,79.8,101.1,79.8,99.5,79.8L99.5,79.8z M93.4,73.9
		c0.8,0,0.9-0.1,0.5-0.8c-0.8-1.7-1.7-3.5-2.6-5.2c-0.1-0.3-0.3-0.1-0.4,0c-0.1,0.1-0.3,0.3-0.3,0.4c-0.8,1.7-1.7,3.4-2.5,5.1
		C88,73.9,88.1,74,88.6,74C89.4,73.9,92.6,73.9,93.4,73.9z"/>
	<path d="M17.2,79.8c-2.6,0-5.1,0-7.7,0c-0.4,0-0.6,0-0.8-0.5c0-0.3,0.1-0.5,0.4-0.5c0.5,0,0.9,0,1.4,0c1,0,1,0,1-1c0-1.6,0-3,0-4.5
		c0-3,0-6,0.1-9c0-0.9-0.1-1.2-1-1.2c-0.5,0-0.9,0-1.4,0c-0.3,0-0.4-0.1-0.4-0.4c0-0.3,0.1-0.5,0.4-0.5c0.3,0,0.4,0,0.6,0
		c3,0,6.1,0,9.1,0c0.1,0,0.4,0,0.5,0c0.4,0,0.5,0.1,0.5,0.5c0,0.1-0.3,0.4-0.4,0.4c-0.5,0-1,0-1.7,0c-0.9,0-1,0-1,1
		c0,4.5,0,9.1,0,13.6c0,0.3,0,0.4,0,0.6c0,0.1,0.3,0.4,0.4,0.4c1.8,0.1,3.5,0,5.1-0.9c1.4-0.9,2.1-2.3,2.2-3.9c0-0.1,0-0.3,0-0.4
		c0-0.4,0.3-0.6,0.6-0.5c0.4,0,0.5,0.3,0.5,0.6c0,0.9,0,1.8,0,2.7s0,1.8,0,2.7s0,0.9-0.9,0.9C22.3,79.8,19.7,79.8,17.2,79.8z"/>
	<path d="M128.6,70.9c0-2.2,0-4.5,0-6.7c0-0.9,0-0.9-1-0.9c-0.4,0-0.9,0-1.3,0c-0.3,0-0.5-0.1-0.4-0.4c0-0.3,0.1-0.5,0.5-0.5
		c0.3,0,0.4,0,0.6,0c3,0,5.8,0,8.8,0c0.3,0,0.4,0,0.6,0c0.1,0.1,0.4,0.3,0.4,0.4c0,0.1-0.3,0.4-0.4,0.5c-0.3,0.1-0.6,0-1,0
		c-0.3,0-0.5,0-0.8,0c-0.6,0-0.6,0.1-0.8,0.8c0,0.1,0,0.4,0,0.5c0,4.4,0,8.8,0,13.2c0,0.1,0,0.4,0,0.5c0,0.4,0.3,0.6,0.6,0.6
		c0.6,0,1.2,0,1.8,0c0.3,0,0.5,0,0.5,0.4c0,0.3-0.3,0.5-0.4,0.6c-0.1,0.1-0.4,0-0.5,0c-2.7,0-5.3,0-8,0c-0.4,0-0.9,0-1.3,0.1
		c-0.3,0-0.5-0.1-0.5-0.4c-0.1-0.4,0-0.5,0.4-0.5c0.5,0,1,0,1.6,0c0.8,0,0.8,0,0.8-0.8C128.6,75.7,128.6,73.3,128.6,70.9z"/>
	<path d="M122.1,73.7c-0.4,0-0.5,0.3-0.5,0.6c-0.1,1.2-0.5,2.2-1.4,3.1c-1.3,1.3-2.7,1.8-4.5,1.8c-1.3,0-2.3-0.5-3.2-1.4
		c-0.8-0.9-1.2-1.9-1.4-3.1c-0.4-1.6-0.3-3.2-0.3-4.9c0-1.4,0.1-3,0.8-4.3c0-0.1,1.3-2.7,4.3-2.7c1.4,0,2.7,0.5,3.5,1.4l0,0l0,0
		c0.8,0.8,1.2,1.7,1.6,2.6c0.1,0.4,0.3,0.8,0.4,1c0.1,0.4,0.4,0.5,0.8,0.5c0.4-0.1,0.5-0.3,0.5-0.8c0-0.9,0-1.8,0-2.6l0,0
		c0-0.8,0-1.6,0-2.2c0-0.1-0.1-0.4-0.3-0.4s-0.3,0-0.4,0.1c-0.1,0.1-0.1,0.3-0.3,0.4c-0.4,0.3-0.6,0.5-1.2,0.3
		c-0.6-0.4-1.4-0.6-2.2-0.9c-2.3-0.9-4.8-0.6-7,0.3c-2.3,0.9-4.2,2.5-5.3,4.7c-1.4,2.7-1.3,5.5,0.3,8c0.9,1.6,2.2,2.6,3.6,3.4
		c0.9,0.5,1.8,1,2.9,1.3c1.3,0.4,2.7,0.4,4,0.3c1-0.1,2.2-0.4,3.1-0.9c1.7-1,2.7-2.7,3-4.8C123,73.7,122.9,73.6,122.1,73.7z"/>
</g>
</svg>
