<?xml version="1.0" encoding="utf-8"?>
<!-- Generator: Adobe Illustrator 23.0.3, SVG Export Plug-In . SVG Version: 6.00 Build 0)  -->
<svg version="1.1"
	 id="svg2" xmlns:cc="http://creativecommons.org/ns#" xmlns:dc="http://purl.org/dc/elements/1.1/" xmlns:inkscape="http://www.inkscape.org/namespaces/inkscape" xmlns:rdf="http://www.w3.org/1999/02/22-rdf-syntax-ns#" xmlns:sodipodi="http://sodipodi.sourceforge.net/DTD/sodipodi-0.dtd" xmlns:svg="http://www.w3.org/2000/svg"
	 xmlns="http://www.w3.org/2000/svg" xmlns:xlink="http://www.w3.org/1999/xlink" x="0px" y="0px" viewBox="0 0 192 142"
	 style="enable-background:new 0 0 192 142;" xml:space="preserve">
<sodipodi:namedview  bordercolor="#666666" borderopacity="1.0" fit-margin-bottom="5" fit-margin-left="10" fit-margin-right="10" fit-margin-top="5" id="base" inkscape:current-layer="layer1" inkscape:cx="172.36641" inkscape:cy="217.38017" inkscape:document-units="px" inkscape:pageopacity="0.0" inkscape:pageshadow="2" inkscape:window-height="1017" inkscape:window-maximized="1" inkscape:window-width="1920" inkscape:window-x="1016" inkscape:window-y="-8" inkscape:zoom="1.4" pagecolor="#ffffff" showgrid="false" units="px">
	</sodipodi:namedview>
<g id="layer1" transform="translate(-137.8498,-390.54123)" inkscape:groupmode="layer" inkscape:label="Layer 1">
	<g id="g23944" transform="matrix(1.5421564,0,0,1.5421564,148.7686,-598.51789)">
		<g id="g13605" transform="matrix(0,2.7249422,2.7249422,0,129.07155,656.47605)">
			<path id="path13607" inkscape:connector-curvature="0" d="M9.5-29.7c0-0.6,0.3-1.2,0.8-1.6l0,0l0,0l-0.7,0v-1.4h5v1.4h-2.8
				c-0.5,0-1,0.4-1,1.1c0,0.6,0.4,1.1,1,1.1h2.8v1.4h-3.1C10.3-27.7,9.5-28.5,9.5-29.7"/>
		</g>
		<g id="g13609" transform="matrix(0,2.7249422,2.7249422,0,247.76404,657.32296)">
			<path id="path13611" inkscape:connector-curvature="0" d="M9.2-61.5l3.4-1.2L9.2-64v-1.6l5,2v1.5l-5,2V-61.5z"/>
		</g>
		<g id="g13613" transform="matrix(0,2.7249422,2.7249422,0,57.56743,672.48808)">
			<path id="path13615" inkscape:connector-curvature="0" d="M5.2-10.5c-0.3,0.2-0.5,0.6-0.5,1C4.7-9,5-8.6,5.4-8.4l1-2.4
				C5.9-10.8,5.5-10.7,5.2-10.5 M7.1-7.9c0.4-0.6,0.5-0.9,0.5-1.4c0-0.5-0.1-0.8-0.4-1.1L5.8-6.9C5.3-7,4.8-7.2,4.4-7.5
				C3.9-8,3.6-8.6,3.6-9.5c0-1.5,1.1-2.6,2.6-2.6c1.5,0,2.6,1.1,2.6,2.8c0,0.9-0.4,1.9-0.9,2.3L7.1-7.9z"/>
		</g>
		<g id="g13617" transform="matrix(0,2.7249422,2.7249422,0,39.971116,694.96858)">
			<path id="path13619" inkscape:connector-curvature="0" d="M-0.8-5.8v-3.1h-5.2v-1.4h6.5l0,4.5H-0.8z"/>
		</g>
		<g id="g13621" transform="matrix(0,2.7249422,2.7249422,0,288.37412,668.31919)">
			<path id="path13623" inkscape:connector-curvature="0" d="M6.3-72.4c0-0.8,0.6-1.3,1.4-1.3c0.8,0,1.4,0.6,1.4,1.3
				c0,0.8-0.6,1.3-1.4,1.3C6.9-71.1,6.3-71.7,6.3-72.4 M10.3-72.4c0-1.5-1.1-2.7-2.6-2.7c-1.4,0-2.6,1.2-2.6,2.7
				c0,1.5,1.1,2.7,2.6,2.7C9.1-69.7,10.3-70.9,10.3-72.4"/>
		</g>
		<g id="g13625" transform="matrix(0,2.7249422,2.7249422,0,181.94605,668.31919)">
			<path id="path13627" inkscape:connector-curvature="0" d="M6.3-43.9c0-0.8,0.6-1.3,1.4-1.3c0.8,0,1.4,0.6,1.4,1.3
				c0,0.8-0.6,1.3-1.4,1.3C6.9-42.5,6.3-43.1,6.3-43.9 M10.3-43.9c0-1.5-1.1-2.7-2.6-2.7c-1.4,0-2.6,1.2-2.6,2.7
				c0,1.5,1.1,2.7,2.6,2.7C9.1-41.2,10.3-42.4,10.3-43.9"/>
		</g>
	</g>
</g>
</svg>
